<?xml version="1.0" encoding="utf-8"?>
<!-- Generator: Adobe Illustrator 23.0.1, SVG Export Plug-In . SVG Version: 6.00 Build 0)  -->
<svg version="1.1" id="lights" xmlns="http://www.w3.org/2000/svg" xmlns:xlink="http://www.w3.org/1999/xlink" x="0px" y="0px"
	 viewBox="0 0 1920 1080" style="enable-background:new 0 0 1920 1080;" xml:space="preserve">
<style type="text/css">
	.st0{opacity:0.84;}
	.st1{opacity:0.8;fill:url(#Lum._C_23_);enable-background:new    ;}
	.st2{opacity:0.8;fill:url(#Lum._C_24_);enable-background:new    ;}
	.st3{opacity:0.8;fill:url(#Lum._C_25_);enable-background:new    ;}
	.st4{opacity:0.8;fill:url(#Lum._C_26_);enable-background:new    ;}
	.st5{opacity:0.8;fill:url(#Lum._C_27_);enable-background:new    ;}
	.st6{opacity:0.8;fill:url(#Lum._C_28_);enable-background:new    ;}
	.st7{opacity:0.8;fill:url(#Lum._C_29_);enable-background:new    ;}
	.st8{opacity:0.8;fill:url(#Lum._C_30_);enable-background:new    ;}
	.st9{opacity:0.8;fill:url(#Lum._C_31_);enable-background:new    ;}
	.st10{opacity:0.8;fill:url(#Lum._C_32_);enable-background:new    ;}
	.st11{opacity:0.8;fill:url(#Lum._C_33_);enable-background:new    ;}
	.st12{opacity:0.8;fill:url(#Lum._C_34_);enable-background:new    ;}
	.st13{opacity:0.8;fill:url(#Lum._C_35_);enable-background:new    ;}
	.st14{opacity:0.8;fill:url(#Lum._C_36_);enable-background:new    ;}
	.st15{opacity:0.8;fill:url(#Lum._C_37_);enable-background:new    ;}
	.st16{opacity:0.8;fill:url(#Lum._C_38_);enable-background:new    ;}
	.st17{opacity:0.8;fill:url(#Lum._C_39_);enable-background:new    ;}
	.st18{opacity:0.8;fill:url(#Lum._C_40_);enable-background:new    ;}
	.st19{opacity:0.8;fill:url(#Lum._C_41_);enable-background:new    ;}
	.st20{opacity:0.8;fill:url(#Lum._C_42_);enable-background:new    ;}
	.st21{opacity:0.8;fill:url(#Lum._C_43_);enable-background:new    ;}
	.st22{opacity:0.8;fill:url(#Lum._C_44_);enable-background:new    ;}
	.st23{opacity:0.84;fill:url(#Lum_-_C_1_);enable-background:new    ;}
	.st24{fill:url(#Lum._Fenetre_4_);}
	.st25{fill:url(#Lum._Fenetre_5_);}
	.st26{fill:url(#Lum._Fenetre_6_);}
	.st27{fill:url(#Lum._Fenetre_7_);}
	.st28{fill:url(#Luminosite_sol_fenetres_1_);}
	.st29{fill:none;}
</style>
<g id="Lum_-_Guirlande" class="st0">
	
		<radialGradient id="Lum._C_23_" cx="1068.0363" cy="344.408" r="13.0347" gradientTransform="matrix(0.9624 -2.213889e-02 -0.2803 -0.9624 142.6197 1100.1387)" gradientUnits="userSpaceOnUse">
		<stop  offset="0" style="stop-color:#FCEE21"/>
		<stop  offset="0.7406" style="stop-color:#F5FBFD;stop-opacity:0"/>
	</radialGradient>
	<path id="Lum._C_1_" class="st1" d="M1061.4,745.3c-2-6.9,2-12.7,8.9-12.8c6.9-0.2,14.2,5.3,16.2,12.2s-2,12.7-8.9,12.8
		C1070.7,757.7,1063.4,752.2,1061.4,745.3z"/>
	
		<radialGradient id="Lum._C_24_" cx="1002.0128" cy="325.3899" r="13.0023" gradientTransform="matrix(0.9624 -2.213889e-02 -0.2803 -0.9624 142.6197 1100.1387)" gradientUnits="userSpaceOnUse">
		<stop  offset="0" style="stop-color:#FCEE21"/>
		<stop  offset="0.7406" style="stop-color:#F5FBFD;stop-opacity:0"/>
	</radialGradient>
	<path id="Lum._C_18_" class="st2" d="M1003.2,765.1c-2-6.9,2-12.7,8.9-12.8c6.9-0.2,14.2,5.3,16.2,12.2s-2,12.7-8.9,12.8
		S1005.2,772,1003.2,765.1z"/>
	
		<radialGradient id="Lum._C_25_" cx="992.0612" cy="333.3365" r="13.0152" gradientTransform="matrix(0.9624 -2.213889e-02 -0.2803 -0.9624 142.6197 1100.1387)" gradientUnits="userSpaceOnUse">
		<stop  offset="0" style="stop-color:#FCEE21"/>
		<stop  offset="0.7406" style="stop-color:#F5FBFD;stop-opacity:0"/>
	</radialGradient>
	<path id="Lum._C_19_" class="st3" d="M991.4,757.6c-2-6.9,2-12.7,8.9-12.8c6.9-0.2,14.2,5.3,16.2,12.2s-2,12.7-8.9,12.8
		C1000.7,770,993.4,764.6,991.4,757.6z"/>
	
		<radialGradient id="Lum._C_26_" cx="976.6548" cy="329.2982" r="13.0164" gradientTransform="matrix(0.9624 -2.213889e-02 -0.2803 -0.9624 142.6197 1100.1387)" gradientUnits="userSpaceOnUse">
		<stop  offset="0" style="stop-color:#FCEE21"/>
		<stop  offset="0.7406" style="stop-color:#F5FBFD;stop-opacity:0"/>
	</radialGradient>
	<path id="Lum._C_20_" class="st4" d="M977.7,761.9c-2-6.9,2-12.7,8.9-12.8c6.9-0.2,14.2,5.3,16.2,12.2s-2,12.7-8.9,12.8
		C987,774.3,979.7,768.8,977.7,761.9z"/>
	
		<radialGradient id="Lum._C_27_" cx="961.8749" cy="336.6547" r="13.02" gradientTransform="matrix(0.9624 -2.213889e-02 -0.2803 -0.9624 142.6197 1100.1387)" gradientUnits="userSpaceOnUse">
		<stop  offset="0" style="stop-color:#FCEE21"/>
		<stop  offset="0.7406" style="stop-color:#F5FBFD;stop-opacity:0"/>
	</radialGradient>
	<path id="Lum._C_21_" class="st5" d="M961.4,755.1c-2-6.9,2-12.7,8.9-12.8c6.9-0.2,14.2,5.3,16.2,12.2s-2,12.7-8.9,12.8
		C970.7,767.5,963.4,762,961.4,755.1z"/>
	
		<radialGradient id="Lum._C_28_" cx="1082.8461" cy="337.0629" r="13.0168" gradientTransform="matrix(0.9624 -2.213889e-02 -0.2803 -0.9624 142.6197 1100.1387)" gradientUnits="userSpaceOnUse">
		<stop  offset="0" style="stop-color:#FCEE21"/>
		<stop  offset="0.7406" style="stop-color:#F5FBFD;stop-opacity:0"/>
	</radialGradient>
	<path id="Lum._C_2_" class="st6" d="M1077.7,752c-2-6.9,2-12.7,8.9-12.8c6.9-0.2,14.2,5.3,16.2,12.2s-2,12.7-8.9,12.8
		S1079.7,759,1077.7,752z"/>
	
		<radialGradient id="Lum._C_29_" cx="1098.2794" cy="341.2147" r="13.0099" gradientTransform="matrix(0.9624 -2.213889e-02 -0.2803 -0.9624 142.6197 1100.1387)" gradientUnits="userSpaceOnUse">
		<stop  offset="0" style="stop-color:#FCEE21"/>
		<stop  offset="0.7406" style="stop-color:#F5FBFD;stop-opacity:0"/>
	</radialGradient>
	<path id="Lum._C_3_" class="st7" d="M1091.4,747.7c-2-6.9,2-12.7,8.9-12.8c6.9-0.2,14.2,5.3,16.2,12.2s-2,12.7-8.9,12.8
		C1100.7,760.1,1093.4,754.6,1091.4,747.7z"/>
	
		<radialGradient id="Lum._C_30_" cx="1108.2041" cy="333.2338" r="13.0164" gradientTransform="matrix(0.9624 -2.213889e-02 -0.2803 -0.9624 142.6197 1100.1387)" gradientUnits="userSpaceOnUse">
		<stop  offset="0" style="stop-color:#FCEE21"/>
		<stop  offset="0.7406" style="stop-color:#F5FBFD;stop-opacity:0"/>
	</radialGradient>
	<path id="Lum._C_22_" class="st8" d="M1103.2,755.2c-2-6.9,2-12.7,8.9-12.8c6.9-0.2,14.2,5.3,16.2,12.2s-2,12.7-8.9,12.8
		C1112.5,767.6,1105.2,762.1,1103.2,755.2z"/>
	
		<radialGradient id="Lum._C_31_" cx="1124.356" cy="336.603" r="13.0164" gradientTransform="matrix(0.9624 -2.213889e-02 -0.2803 -0.9624 142.6197 1100.1387)" gradientUnits="userSpaceOnUse">
		<stop  offset="0" style="stop-color:#FCEE21"/>
		<stop  offset="0.7406" style="stop-color:#F5FBFD;stop-opacity:0"/>
	</radialGradient>
	<path id="Lum._C_4_" class="st9" d="M1117.8,751.6c-2-6.9,2-12.7,8.9-12.8c6.9-0.2,14.2,5.3,16.2,12.2s-2,12.7-8.9,12.8
		C1127.1,764,1119.8,758.5,1117.8,751.6z"/>
	
		<radialGradient id="Lum._C_32_" cx="1142.0107" cy="334.395" r="13.0103" gradientTransform="matrix(0.9624 -2.213889e-02 -0.2803 -0.9624 142.6197 1100.1387)" gradientUnits="userSpaceOnUse">
		<stop  offset="0" style="stop-color:#FCEE21"/>
		<stop  offset="0.7406" style="stop-color:#F5FBFD;stop-opacity:0"/>
	</radialGradient>
	<path id="Lum._C_5_" class="st10" d="M1135.4,753.3c-2-6.9,2-12.7,8.9-12.8c6.9-0.2,14.2,5.3,16.2,12.2s-2,12.7-8.9,12.8
		C1144.7,765.7,1137.4,760.2,1135.4,753.3z"/>
	
		<radialGradient id="Lum._C_33_" cx="1156.6251" cy="342.5107" r="13.0164" gradientTransform="matrix(0.9624 -2.213889e-02 -0.2803 -0.9624 142.6197 1100.1387)" gradientUnits="userSpaceOnUse">
		<stop  offset="0" style="stop-color:#FCEE21"/>
		<stop  offset="0.7406" style="stop-color:#F5FBFD;stop-opacity:0"/>
	</radialGradient>
	<path id="Lum._C_6_" class="st11" d="M1147.2,745.2c-2-6.9,2-12.7,8.9-12.8s14.2,5.3,16.2,12.2s-2,12.7-8.9,12.8
		C1156.5,757.6,1149.2,752.1,1147.2,745.2z"/>
	
		<radialGradient id="Lum._C_34_" cx="1169.4469" cy="338.3711" r="12.9964" gradientTransform="matrix(0.9624 -2.213889e-02 -0.2803 -0.9624 142.6197 1100.1387)" gradientUnits="userSpaceOnUse">
		<stop  offset="0" style="stop-color:#FCEE21"/>
		<stop  offset="0.7406" style="stop-color:#F5FBFD;stop-opacity:0"/>
	</radialGradient>
	<path id="Lum._C_7_" class="st12" d="M1160.7,748.9c-2-6.9,2-12.7,8.9-12.8c6.9-0.2,14.2,5.3,16.2,12.2s-2,12.7-8.9,12.8
		C1169.9,761.3,1162.7,755.8,1160.7,748.9z"/>
	
		<radialGradient id="Lum._C_35_" cx="1186.0414" cy="344.8486" r="13.023" gradientTransform="matrix(0.9624 -2.213889e-02 -0.2803 -0.9624 142.6197 1100.1387)" gradientUnits="userSpaceOnUse">
		<stop  offset="0" style="stop-color:#FCEE21"/>
		<stop  offset="0.7406" style="stop-color:#F5FBFD;stop-opacity:0"/>
	</radialGradient>
	<path id="Lum._C_8_" class="st13" d="M1174.8,742.3c-2-6.9,2-12.7,8.9-12.8c6.9-0.2,14.2,5.3,16.2,12.2s-2,12.7-8.9,12.8
		C1184.1,754.7,1176.9,749.2,1174.8,742.3z"/>
	
		<radialGradient id="Lum._C_36_" cx="1198.1171" cy="337.7684" r="13.0152" gradientTransform="matrix(0.9624 -2.213889e-02 -0.2803 -0.9624 142.6197 1100.1387)" gradientUnits="userSpaceOnUse">
		<stop  offset="0" style="stop-color:#FCEE21"/>
		<stop  offset="0.7406" style="stop-color:#F5FBFD;stop-opacity:0"/>
	</radialGradient>
	<path id="Lum._C_9_" class="st14" d="M1188.5,748.8c-2-6.9,2-12.7,8.9-12.8c6.9-0.2,14.2,5.3,16.2,12.2s-2,12.7-8.9,12.8
		S1190.5,755.7,1188.5,748.8z"/>
	
		<radialGradient id="Lum._C_37_" cx="1216.7687" cy="343.4664" r="13.0196" gradientTransform="matrix(0.9624 -2.213889e-02 -0.2803 -0.9624 142.6197 1100.1387)" gradientUnits="userSpaceOnUse">
		<stop  offset="0" style="stop-color:#FCEE21"/>
		<stop  offset="0.7406" style="stop-color:#F5FBFD;stop-opacity:0"/>
	</radialGradient>
	<path id="Lum._C_10_" class="st15" d="M1204.8,742.9c-2-6.9,2-12.7,8.9-12.8c6.9-0.2,14.2,5.3,16.2,12.2s-2,12.7-8.9,12.8
		C1214.1,755.3,1206.8,749.8,1204.8,742.9z"/>
	
		<radialGradient id="Lum._C_38_" cx="1227.2059" cy="335.587" r="13.0126" gradientTransform="matrix(0.9624 -2.213889e-02 -0.2803 -0.9624 142.6197 1100.1387)" gradientUnits="userSpaceOnUse">
		<stop  offset="0" style="stop-color:#FCEE21"/>
		<stop  offset="0.7406" style="stop-color:#F5FBFD;stop-opacity:0"/>
	</radialGradient>
	<path id="Lum._C_11_" class="st16" d="M1217.1,750.3c-2-6.9,2-12.7,8.9-12.8s14.2,5.3,16.2,12.2s-2,12.7-8.9,12.8
		C1226.3,762.7,1219.1,757.2,1217.1,750.3z"/>
	
		<radialGradient id="Lum._C_39_" cx="1243.6427" cy="338.8998" r="13.0152" gradientTransform="matrix(0.9624 -2.213889e-02 -0.2803 -0.9624 142.6197 1100.1387)" gradientUnits="userSpaceOnUse">
		<stop  offset="0" style="stop-color:#FCEE21"/>
		<stop  offset="0.7406" style="stop-color:#F5FBFD;stop-opacity:0"/>
	</radialGradient>
	<path id="Lum._C_12_" class="st17" d="M1232,746.7c-2-6.9,2-12.7,8.9-12.8s14.2,5.3,16.2,12.2s-2,12.7-8.9,12.8
		C1241.2,759.1,1234,753.6,1232,746.7z"/>
	
		<radialGradient id="Lum._C_40_" cx="1256.9877" cy="333.5519" r="12.9942" gradientTransform="matrix(0.9624 -2.213889e-02 -0.2803 -0.9624 142.6197 1100.1387)" gradientUnits="userSpaceOnUse">
		<stop  offset="0" style="stop-color:#FCEE21"/>
		<stop  offset="0.7406" style="stop-color:#F5FBFD;stop-opacity:0"/>
	</radialGradient>
	<path id="Lum._C_13_" class="st18" d="M1246.3,751.6c-2-6.9,2-12.7,8.9-12.8c6.9-0.2,14.2,5.3,16.2,12.2s-2,12.7-8.9,12.8
		S1248.3,758.5,1246.3,751.6z"/>
	
		<radialGradient id="Lum._C_41_" cx="1273.8846" cy="340.3889" r="13.0242" gradientTransform="matrix(0.9624 -2.213889e-02 -0.2803 -0.9624 142.6197 1100.1387)" gradientUnits="userSpaceOnUse">
		<stop  offset="0" style="stop-color:#FCEE21"/>
		<stop  offset="0.7406" style="stop-color:#F5FBFD;stop-opacity:0"/>
	</radialGradient>
	<path id="Lum._C_14_" class="st19" d="M1260.6,744.6c-2-6.9,2-12.7,8.9-12.8c6.9-0.2,14.2,5.3,16.2,12.2s-2,12.7-8.9,12.8
		C1269.9,757,1262.7,751.5,1260.6,744.6z"/>
	
		<radialGradient id="Lum._C_42_" cx="1287.7657" cy="336.4807" r="13.0164" gradientTransform="matrix(0.9624 -2.213889e-02 -0.2803 -0.9624 142.6197 1100.1387)" gradientUnits="userSpaceOnUse">
		<stop  offset="0" style="stop-color:#FCEE21"/>
		<stop  offset="0.7406" style="stop-color:#F5FBFD;stop-opacity:0"/>
	</radialGradient>
	<path id="Lum._C_15_" class="st20" d="M1275.1,748.1c-2-6.9,2-12.7,8.9-12.8s14.2,5.3,16.2,12.2s-2,12.7-8.9,12.8
		C1284.4,760.5,1277.1,755,1275.1,748.1z"/>
	
		<radialGradient id="Lum._C_43_" cx="1306.9908" cy="343.6236" r="13.0164" gradientTransform="matrix(0.9624 -2.213889e-02 -0.2803 -0.9624 142.6197 1100.1387)" gradientUnits="userSpaceOnUse">
		<stop  offset="0" style="stop-color:#FCEE21"/>
		<stop  offset="0.7406" style="stop-color:#F5FBFD;stop-opacity:0"/>
	</radialGradient>
	<path id="Lum._C_16_" class="st21" d="M1291.6,740.8c-2-6.9,2-12.7,8.9-12.8s14.2,5.3,16.2,12.2s-2,12.7-8.9,12.8
		C1300.9,753.2,1293.6,747.7,1291.6,740.8z"/>
	
		<radialGradient id="Lum._C_44_" cx="1322.8751" cy="338.5463" r="13.0067" gradientTransform="matrix(0.9624 -2.213889e-02 -0.2803 -0.9624 142.6197 1100.1387)" gradientUnits="userSpaceOnUse">
		<stop  offset="0" style="stop-color:#FCEE21"/>
		<stop  offset="0.7406" style="stop-color:#F5FBFD;stop-opacity:0"/>
	</radialGradient>
	<path id="Lum._C_17_" class="st22" d="M1308.3,745.3c-2-6.9,2-12.7,8.9-12.8c6.9-0.2,14.2,5.3,16.2,12.2s-2,12.7-8.9,12.8
		C1317.5,757.7,1310.3,752.2,1308.3,745.3z"/>
</g>
<radialGradient id="Lum_-_C_1_" cx="1181.496" cy="435.0392" r="112.8693" gradientTransform="matrix(0.9624 -2.213889e-02 -0.2803 -0.9624 142.6197 1100.1387)" gradientUnits="userSpaceOnUse">
	<stop  offset="0" style="stop-color:#FCEE21"/>
	<stop  offset="0.7406" style="stop-color:#F5FBFD;stop-opacity:0"/>
</radialGradient>
<path id="Lum_-_C" class="st23" d="M1049.1,657.8c-17.5-60,17-109.8,77-111.1s122.8,46.1,140.3,106.1s-17,109.8-77,111.1
	C1129.4,765.3,1066.6,717.8,1049.1,657.8z"/>
<g id="Lum._Fenettres" class="st0">
	
		<linearGradient id="Lum._Fenetre_4_" gradientUnits="userSpaceOnUse" x1="1424.3772" y1="660.7215" x2="1424.3772" y2="601.3668" gradientTransform="matrix(0 -1.7492 -1.0631 0 1649.413 3175.6072)">
		<stop  offset="0" style="stop-color:#FBB03B;stop-opacity:0"/>
		<stop  offset="0.1988" style="stop-color:#FBB03B;stop-opacity:0.4"/>
		<stop  offset="0.5186" style="stop-color:#FBC532;stop-opacity:0.5"/>
		<stop  offset="0.7979" style="stop-color:#FCEE21;stop-opacity:0.5"/>
		<stop  offset="1" style="stop-color:#FBB03B;stop-opacity:0"/>
	</linearGradient>
	<path id="Lum._Fenetre_3_" class="st24" d="M1010.1,663.7v36.7l-53.5,8c-5,0.8-9.6-3.2-9.6-8.3V668c0-4.9,4.1-8.7,9-8.3
		L1010.1,663.7z"/>
	
		<linearGradient id="Lum._Fenetre_5_" gradientUnits="userSpaceOnUse" x1="1206.1508" y1="-245.5365" x2="1206.1508" y2="-306.2108" gradientTransform="matrix(0 1.7492 1.0631 0 1568.8328 -1320.745)">
		<stop  offset="0" style="stop-color:#FBB03B;stop-opacity:0"/>
		<stop  offset="0.1988" style="stop-color:#FBB03B;stop-opacity:0.4"/>
		<stop  offset="0.5186" style="stop-color:#FBC532;stop-opacity:0.5"/>
		<stop  offset="0.7979" style="stop-color:#FCEE21;stop-opacity:0.5"/>
		<stop  offset="1" style="stop-color:#FBB03B;stop-opacity:0"/>
	</linearGradient>
	<path id="Lum._Fenetre_2_" class="st25" d="M1243.3,805.8v-36.7l58-1.6c2.8-0.1,5.2,2.1,5.3,5l1.2,32.7c0.1,3.1-2.5,5.6-5.6,5.4
		L1243.3,805.8z"/>
	
		<linearGradient id="Lum._Fenetre_6_" gradientUnits="userSpaceOnUse" x1="1208.1517" y1="-309.03" x2="1208.1517" y2="-369.7043" gradientTransform="matrix(0 1.7492 1.0631 0 1568.8328 -1320.745)">
		<stop  offset="0" style="stop-color:#FBB03B;stop-opacity:0"/>
		<stop  offset="0.1988" style="stop-color:#FBB03B;stop-opacity:0.4"/>
		<stop  offset="0.5186" style="stop-color:#FBC532;stop-opacity:0.5"/>
		<stop  offset="0.7979" style="stop-color:#FCEE21;stop-opacity:0.5"/>
		<stop  offset="1" style="stop-color:#FBB03B;stop-opacity:0"/>
	</linearGradient>
	<path id="Lum._Fenetre_1_" class="st26" d="M1175.8,810.8v-39.9l57.9-1.8c2.9-0.1,5.2,2.2,5.3,5l1.3,36.5c0.1,3.1-2.5,5.6-5.6,5.4
		L1175.8,810.8z"/>
	
		<linearGradient id="Lum._Fenetre_7_" gradientUnits="userSpaceOnUse" x1="1209.6095" y1="-369.9027" x2="1209.6095" y2="-440.0776" gradientTransform="matrix(0 1.7492 1.0631 0 1568.8328 -1320.745)">
		<stop  offset="0" style="stop-color:#FBB03B;stop-opacity:0"/>
		<stop  offset="0.1988" style="stop-color:#FBB03B;stop-opacity:0.4"/>
		<stop  offset="0.5186" style="stop-color:#FBC532;stop-opacity:0.5"/>
		<stop  offset="0.7979" style="stop-color:#FCEE21;stop-opacity:0.5"/>
		<stop  offset="1" style="stop-color:#FBB03B;stop-opacity:0"/>
	</linearGradient>
	<path id="Lum._Fenetre" class="st27" d="M1100.9,814.9v-43.7l67.8-1.9c2.8-0.1,5.2,2.1,5.3,5l1.5,41.2c0.1,3.1-2.5,5.6-5.6,5.4
		L1100.9,814.9z"/>
	
		<linearGradient id="Luminosite_sol_fenetres_1_" gradientUnits="userSpaceOnUse" x1="1132.0032" y1="115.2246" x2="1303.3658" y2="286.5873" gradientTransform="matrix(1 0 0 -1 0 1077.8898)">
		<stop  offset="0" style="stop-color:#FBB03B;stop-opacity:0"/>
		<stop  offset="0.1988" style="stop-color:#FBB03B;stop-opacity:0.4"/>
		<stop  offset="0.5186" style="stop-color:#FBC532;stop-opacity:0.5"/>
		<stop  offset="0.7979" style="stop-color:#FCEE21;stop-opacity:0.5"/>
		<stop  offset="1" style="stop-color:#FBB03B;stop-opacity:0"/>
	</linearGradient>
	<path id="Luminosite_sol_fenetres" class="st28" d="M1085.1,868.4l231.4-12.5c0.3,0,0.6,0,1,0l52.8,4.7c8.3,0.7,8.1,12.9-0.2,13.4
		L1066,893.4c-7.1,0.4-10-9-3.8-12.5l19.9-11.5C1083,868.8,1084,868.5,1085.1,868.4z"/>
</g>
<rect class="st29" width="1920" height="1080"/>
</svg>
