<?xml version="1.0" encoding="utf-8"?>
<!-- Generator: Adobe Illustrator 23.0.1, SVG Export Plug-In . SVG Version: 6.00 Build 0)  -->
<svg version="1.1" id="stars" xmlns="http://www.w3.org/2000/svg" xmlns:xlink="http://www.w3.org/1999/xlink" x="0px" y="0px"
	 viewBox="0 0 1920 1080" style="enable-background:new 0 0 1920 1080;" xml:space="preserve">
<style type="text/css">
	.st0{opacity:0.84;}
	.st1{fill:#FCEE21;}
	.st2{fill:none;}
</style>
<g id="star_x5F_g1" class="st0">
	<path class="st1" d="M246.3,54.7l-0.7,5.4c-0.1,0.6-0.6,1.1-1.2,1.2l-3.9,0.3l3.9,0.5c0.6,0.1,1.1,0.6,1.1,1.2l0.4,4.2l0.7-4.3
		c0.1-0.6,0.6-1,1.2-1.1l3.9-0.4l-3.8-0.3c-0.6-0.1-1-0.6-1.1-1.2L246.3,54.7z"/>
	<path class="st1" d="M1023.9,144.1l-1.7,13.6c-0.3,1.6-1.5,2.7-3.1,2.9l-9.8,0.6l9.8,1.2c1.5,0.3,2.7,1.5,2.9,3.1l1,10.8l1.7-10.8
		c0.3-1.4,1.5-2.5,2.9-2.7l9.9-1l-9.7-0.7c-1.5-0.3-2.6-1.4-2.9-2.9L1023.9,144.1z"/>
</g>
<g id="star_x5F_g2" class="st0">
	<path class="st1" d="M1602.1,57.4l-1.7,14.2c-0.3,1.6-1.6,2.9-3.2,3.1l-10.2,0.7l10.2,1.3c1.6,0.3,2.8,1.6,3,3.2l1,11.2l1.8-11.2
		c0.4-1.5,1.6-2.6,3.1-2.8l10.3-1.1l-10.1-0.7c-1.5-0.3-2.7-1.5-3-3L1602.1,57.4z"/>
	<path class="st1" d="M1505.8,244.8l-2,16.4c-0.3,1.9-1.8,3.3-3.7,3.5l-11.7,0.8l11.8,1.5c1.8,0.4,3.2,1.8,3.5,3.7l1.2,12.9l2.1-13
		c0.4-1.7,1.8-3,3.5-3.3l11.9-1.2l-11.6-0.9c-1.8-0.3-3.1-1.7-3.5-3.5L1505.8,244.8z"/>
	<path class="st1" d="M568.6,153.9l-0.7,5.4c-0.1,0.6-0.6,1.1-1.2,1.2l-3.9,0.3l3.9,0.5c0.6,0.1,1.1,0.6,1.1,1.2l0.4,4.2l0.7-4.3
		c0.1-0.6,0.6-1,1.2-1.1l3.9-0.4l-3.8-0.3c-0.6-0.1-1-0.6-1.1-1.2L568.6,153.9z"/>
</g>
<g id="star_x5F_g3" class="st0">
	<path class="st1" d="M1306.6,114.4l-0.8,6.3c-0.1,0.7-0.7,1.3-1.4,1.4l-4.5,0.3l4.6,0.6c0.7,0.1,1.3,0.7,1.4,1.4l0.4,5l0.8-5
		c0.2-0.7,0.7-1.2,1.4-1.3l4.6-0.5l-4.5-0.3c-0.7-0.1-1.2-0.7-1.3-1.4L1306.6,114.4z"/>
	<path class="st1" d="M286.4,245.3l-1.8,14.4c-0.3,1.6-1.6,2.9-3.3,3.1l-10.4,0.7l10.4,1.3c1.6,0.3,2.9,1.6,3.1,3.3l1,11.4l1.8-11.5
		c0.4-1.5,1.6-2.6,3.1-2.9l10.5-1.1l-10.3-0.8c-1.6-0.3-2.8-1.5-3.1-3.1L286.4,245.3z"/>
	<path class="st1" d="M681.2,71.5l-0.7,5.4c-0.1,0.6-0.6,1.1-1.2,1.2l-3.9,0.3l3.9,0.5c0.6,0.1,1.1,0.6,1.1,1.2l0.4,4.2l0.7-4.3
		c0.1-0.6,0.6-1,1.2-1.1l3.9-0.4l-3.8-0.3c-0.6-0.1-1-0.6-1.1-1.2L681.2,71.5z"/>
</g>
<rect class="st2" width="1920" height="1080"/>
</svg>
