<svg xmlns="http://www.w3.org/2000/svg" xmlns:xlink="http://www.w3.org/1999/xlink" viewBox="0 0 1920.5 823.93"><defs><style>.cls-1,.cls-32,.cls-5{fill:none;}.cls-2{clip-path:url(#clip-path);}.cls-3{fill:#9c7449;}.cls-4{clip-path:url(#clip-path-2);}.cls-5{stroke:#404041;stroke-linecap:round;stroke-linejoin:round;stroke-width:0.57px;}.cls-6{fill:#b88858;}.cls-7{clip-path:url(#clip-path-3);}.cls-8{fill:#b18350;}.cls-9{clip-path:url(#clip-path-4);}.cls-10{clip-path:url(#clip-path-5);}.cls-11{clip-path:url(#clip-path-6);}.cls-12{fill:#9fb95d;}.cls-13{fill:#3d6725;}.cls-14{fill:#98b739;}.cls-15{fill:#4fbe97;}.cls-16{fill:#8ecc96;}.cls-17{fill:#f79560;}.cls-18{fill:#80931e;}.cls-19{fill:#8fa41a;}.cls-20{fill:#b8c634;}.cls-21{fill:#7fa31c;}.cls-22{fill:#c9d152;}.cls-23{fill:#bdc442;}.cls-24{fill:#f2d6a7;}.cls-25{fill:#cc403d;}.cls-26{fill:#bc2526;}.cls-27{fill:#966743;}.cls-28,.cls-31{fill:#32352e;}.cls-28,.cls-29,.cls-32{stroke:#966743;stroke-miterlimit:10;}.cls-28{stroke-width:1.4px;}.cls-29{fill:#fff;}.cls-29,.cls-32{stroke-width:0.7px;}.cls-30{fill:#7c4e2f;}.cls-33{fill:#ef4a3d;}.cls-34{fill:#140d11;}.cls-35{fill:#fbd0c8;}.cls-36{fill:#ef6f63;}.cls-37{fill:#130d10;}.cls-38{fill:#504052;}.cls-39{fill:#2a7e54;}.cls-40{fill:#0d3953;}.cls-41{fill:#00465a;}.cls-42{fill:#f7941e;}.cls-43{fill:#fffcd5;}</style><clipPath id="clip-path" transform="translate(0.5 -256.57)"><path class="cls-1" d="M1326.43,390.07,987.12,880.92h701.76L1349.57,390.07A14.07,14.07,0,0,0,1326.43,390.07Z"/></clipPath><clipPath id="clip-path-2" transform="translate(0.5 -256.57)"><path class="cls-1" d="M1094,862.67c92.28-297.93,219-551.54,254.57-620.32a12,12,0,0,1,20.8-.79c39.79,64.42,176.44,300.62,253.07,621.11Z"/></clipPath><clipPath id="clip-path-3" transform="translate(0.5 -256.57)"><path class="cls-1" d="M891.64,304.41,529,829h750L916.36,304.41A15,15,0,0,0,891.64,304.41Z"/></clipPath><clipPath id="clip-path-4" transform="translate(0.5 -256.57)"><path class="cls-1" d="M612.65,910C714.8,507.4,855,164.69,894.45,71.75c4.73-11.17,17.62-11.77,23-1.07,44,87,195.31,406.24,280.14,839.32Z"/></clipPath><clipPath id="clip-path-5" transform="translate(0.5 -256.57)"><path class="cls-1" d="M536,449.82,266.34,839.92H824.06L554.39,449.82A11.17,11.17,0,0,0,536,449.82Z"/></clipPath><clipPath id="clip-path-6" transform="translate(0.5 -256.57)"><path class="cls-1" d="M301.13,873C383.08,600.16,495.6,367.92,527.22,304.93a10.47,10.47,0,0,1,18.48-.73C581,363.2,702.4,579.51,770.46,873Z"/></clipPath></defs><title>base2</title><g id="Motagnes_1er_plan" data-name="Motagnes 1er plan"><g id="Montagne"><g class="cls-2"><path class="cls-3" d="M1326.43,390.07,987.12,880.92h701.76L1349.57,390.07A14.07,14.07,0,0,0,1326.43,390.07Z" transform="translate(0.5 -256.57)"/><g class="cls-4"><path class="cls-5" d="M1368.67,751.56c-39.64,45.44-29-100.55-2.9-173.06s43.51,52.21,56.08-49.31,56.08-130.52,56.08-130.52l-21.27-19.34s-90.89,119.89-94.75,90.88-20.31,1-20.31,1-61.87,224.3-87,196.26-96.68,193.37-96.68,193.37l292,18.37S1408.31,706.12,1368.67,751.56Zm301.23,7.63c-22.24-72.52-87-34.81-111.19-9.67-13.53-72.52-33.84-75.42-62.84-109.25s30.94-29,22.23-109.26S1549,443,1522,412.09c-48.34,44.48-27.07,175-57,180.8s-29,89.92,8.7,92.82,29,146.95,29,146.95l16.43,33.84s137.29-5.8,146-6.76S1692.13,831.7,1669.9,759.19ZM1241.05,611.37c41.58,33.84,8.7-195.3,8.7-195.3l-28,23.2s35.77,143.09,2.9,132.46-79.28,55.11-79.28,55.11l-28,125.69S1199.48,577.53,1241.05,611.37Z" transform="translate(0.5 -256.57)"/></g><path class="cls-6" d="M1225.72,496.36c8.42,8.42,17.78-13.1,28.07-7.49s-8.42,27.13.93,31.81,16.85-20.58,30.88-16.84,0,40.24,16.84,42.11,16.85-26.2,35.56-26.2h.94c18.71,0,18.71,28.07,35.55,26.2s2.81-38.37,16.84-42.11,21.52,21.52,30.88,16.84-9.36-26.2.94-31.81,19.65,15.91,28.07,7.49L1353,372.84H1323Z" transform="translate(0.5 -256.57)"/></g></g><g id="Montagne-2" data-name="Montagne"><g class="cls-7"><path class="cls-8" d="M891.64,304.41,529,829h750L916.36,304.41A15,15,0,0,0,891.64,304.41Z" transform="translate(0.5 -256.57)"/><g class="cls-9"><path class="cls-5" d="M916.71,759.85C872.83,821.26,884.6,624,913.49,526s48.17,70.55,62.08-66.63S1037.64,283,1037.64,283l-23.54-26.13s-100.61,162-104.89,122.81S886.74,381,886.74,381s-68.5,303.11-96.32,265.22-107,261.3-107,261.3l323.22,24.82S960.59,698.45,916.71,759.85ZM1226,829.1c-24.62-98-96.32-47-123.08-13.07-15-98-37.46-101.9-69.57-147.63s34.25-39.2,24.62-147.64,34.25-118.89,4.28-160.7c-53.51,60.1-30,236.48-63.14,244.32S967,725.88,1008.75,729.8s32.11,198.59,32.11,198.59l18.19,45.73s152-7.84,161.61-9.15S1250.62,927.08,1226,829.1ZM775.43,570.41c46,45.73,9.63-263.91,9.63-263.91l-31,31.35s39.6,193.37,3.21,179-87.76,74.47-87.76,74.47l-31,169.85S729.41,524.68,775.43,570.41Z" transform="translate(0.5 -256.57)"/></g><path class="cls-3" d="M784,418c9,9,19-14,30-8s-9,29,1,34,18-22,33-18,0,43,18,45,18-28,38-28h1c20,0,20,30,38,28s3-41,18-45,23,23,33,18-10-28,1-34,21,17,30,8L920,286H888Z" transform="translate(0.5 -256.57)"/></g></g><g id="Montagne-3" data-name="Montagne"><g class="cls-10"><path class="cls-3" d="M536,449.82,266.34,839.92H824.06L554.39,449.82A11.17,11.17,0,0,0,536,449.82Z" transform="translate(0.5 -256.57)"/><rect class="cls-3" x="545.7" y="128.26" width="414.2" height="548.05"/><g class="cls-11"><path class="cls-5" d="M545.08,771.25c-35.21,41.61-25.76-92.08-2.58-158.49s38.64,47.81,49.81-45.15,49.8-119.53,49.8-119.53l-18.89-17.71S542.5,540.16,539.07,513.6s-18,.88-18,.88-55,205.41-77.29,179.74S357.88,871.3,357.88,871.3l259.33,16.82S580.29,729.63,545.08,771.25Zm248.16,46.92c-19.75-66.4-77.28-31.87-98.75-8.85-12-66.41-30-69.06-55.81-100.05s27.48-26.56,19.75-100,27.48-80.57,3.43-108.9c-42.93,40.72-24,160.25-50.66,165.56s-25.76,82.35,7.73,85,25.76,134.58,25.76,134.58l14.6,31s121.93-5.31,129.66-6.2S813,884.58,793.24,818.17ZM431.73,642.86c36.92,31,7.73-178.84,7.73-178.84l-24.9,21.24s31.77,131,2.57,121.3S346.72,657,346.72,657l-24.9,115.1S394.81,611.88,431.73,642.86Z" transform="translate(0.5 -256.57)"/></g><path class="cls-6" d="M456,534.29c6.7,6.7,14.13-10.41,22.31-5.95s-6.69,21.57.75,25.29,13.38-16.36,24.54-13.39,0,32,13.38,33.46,13.39-20.82,28.26-20.82h.74c14.87,0,14.87,22.31,28.26,20.82s2.23-30.48,13.39-33.46,17.1,17.11,24.54,13.39-7.44-20.82.74-25.29,15.61,12.65,22.31,5.95L557.1,436.13H533.3Z" transform="translate(0.5 -256.57)"/></g></g><g id="Sapin"><path class="cls-12" d="M171.57,835.4V748.3L160.9,765.07a.53.53,0,0,0,.39.81l3,.32-8.63,13.56a.53.53,0,0,0,.41.81l5.34.45L147.77,802.4a.53.53,0,0,0,.41.81l10.21.85-17.81,28a.53.53,0,0,0,.41.81Z" transform="translate(0.5 -256.57)"/><path class="cls-13" d="M171.57,748.48v86.88l30.09-2.51a.53.53,0,0,0,.4-.8l-17.81-28,10.22-.85a.52.52,0,0,0,.4-.8L181.25,781l5.36-.45a.52.52,0,0,0,.4-.8l-8.64-13.57,3-.32a.52.52,0,0,0,.39-.8Z" transform="translate(0.5 -256.57)"/></g><g id="Sapin-2" data-name="Sapin"><path class="cls-12" d="M200.72,818.3V754.54L193,766.62a.53.53,0,0,0,.4.81l1.95.21-6.19,9.73a.52.52,0,0,0,.4.81l3.67.31-9.83,15.45a.53.53,0,0,0,.4.82l7.24.6-12.9,20.28a.53.53,0,0,0,.4.82Z" transform="translate(0.5 -256.57)"/><path class="cls-13" d="M200.72,754.67v63.6l21.79-1.81a.53.53,0,0,0,.41-.81L210,795.36l7.24-.6a.52.52,0,0,0,.4-.81l-9.83-15.46,3.68-.31a.53.53,0,0,0,.4-.81l-6.2-9.73,2-.21a.53.53,0,0,0,.4-.8Z" transform="translate(0.5 -256.57)"/></g><g id="Sapin-3" data-name="Sapin"><path class="cls-14" d="M145.29,843.42v-77.2L135.88,781a.53.53,0,0,0,.39.81l2.54.27L131.22,794a.52.52,0,0,0,.4.81l4.64.39-12,18.87a.53.53,0,0,0,.4.81l8.95.75-15.72,24.71a.52.52,0,0,0,.4.81Z" transform="translate(0.5 -256.57)"/><path class="cls-13" d="M145.29,766.38v77l26.56-2.21a.53.53,0,0,0,.4-.82l-15.72-24.7,8.95-.75a.53.53,0,0,0,.4-.81l-12-18.87,4.64-.39a.52.52,0,0,0,.4-.81l-7.59-11.94,2.55-.27a.54.54,0,0,0,.4-.81Z" transform="translate(0.5 -256.57)"/></g><g id="Sapin-4" data-name="Sapin"><path class="cls-12" d="M110.53,851.22V794.39l-6.92,10.88a.38.38,0,0,0,.29.59l1.87.2-5.59,8.79a.39.39,0,0,0,.29.6l3.42.28-8.84,13.9a.38.38,0,0,0,.29.59l6.59.55L90.36,849a.39.39,0,0,0,.29.6Z" transform="translate(0.5 -256.57)"/><path class="cls-13" d="M110.53,794.51v56.68l19.56-1.63a.39.39,0,0,0,.3-.59l-11.58-18.2,6.59-.55a.39.39,0,0,0,.3-.59l-8.84-13.9,3.41-.28a.4.4,0,0,0,.3-.6L115,806.06l1.88-.2a.39.39,0,0,0,.29-.59Z" transform="translate(0.5 -256.57)"/></g><g id="Sapin-5" data-name="Sapin"><path class="cls-12" d="M78.27,874.93v-77.2l-9.41,14.79a.52.52,0,0,0,.38.8l2.55.28-7.6,11.94a.52.52,0,0,0,.4.8l4.65.39-12,18.88a.52.52,0,0,0,.4.8l8.95.75L50.85,871.88a.52.52,0,0,0,.4.8Z" transform="translate(0.5 -256.57)"/><path class="cls-13" d="M78.27,797.9v77l26.56-2.22a.52.52,0,0,0,.4-.81L89.51,847.16l8.95-.75a.53.53,0,0,0,.4-.81l-12-18.87,4.64-.38a.53.53,0,0,0,.4-.82L84.3,813.6l2.55-.28a.53.53,0,0,0,.4-.8Z" transform="translate(0.5 -256.57)"/></g><g id="Sapin-6" data-name="Sapin"><path class="cls-14" d="M591.76,868.15V762.89l-12.89,20.26a.64.64,0,0,0,.47,1l3.6.39L572.51,800.9a.65.65,0,0,0,.49,1l6.45.53L563,828.27a.64.64,0,0,0,.48,1l12.34,1-21.51,33.81a.64.64,0,0,0,.49,1Z" transform="translate(0.5 -256.57)"/><path class="cls-13" d="M591.76,763.11v105l36.37-3a.63.63,0,0,0,.48-1l-21.52-33.82,12.35-1a.64.64,0,0,0,.49-1l-16.46-25.86,6.47-.53a.63.63,0,0,0,.48-1L600,784.52l3.63-.39a.64.64,0,0,0,.47-1Z" transform="translate(0.5 -256.57)"/></g><g id="Sapin-7" data-name="Sapin"><path class="cls-12" d="M640.07,823.49V746.42L630.78,761a.65.65,0,0,0,.48,1l2.35.25L626.13,774a.65.65,0,0,0,.49,1l4.44.37-11.88,18.68a.64.64,0,0,0,.48,1l8.75.72-15.6,24.51a.65.65,0,0,0,.49,1Z" transform="translate(0.5 -256.57)"/><path class="cls-13" d="M640.07,746.58v76.88l26.34-2.2a.64.64,0,0,0,.49-1l-15.6-24.52,8.75-.72a.65.65,0,0,0,.49-1l-11.89-18.68,4.45-.37a.64.64,0,0,0,.48-1l-7.48-11.76,2.38-.26a.64.64,0,0,0,.47-1Z" transform="translate(0.5 -256.57)"/></g><circle class="cls-15" cx="500.44" cy="586.17" r="20.25"/><circle class="cls-16" cx="524.47" cy="602.2" r="16.03"/><circle class="cls-16" cx="474.93" cy="615.39" r="16.03"/><path class="cls-17" d="M523.62,860.06h0a2.11,2.11,0,0,0-3,0l-18,18V846.74a2.75,2.75,0,0,0-2.74-2.75h0a2.75,2.75,0,0,0-2.75,2.75v44.35L479,872.91a2.11,2.11,0,0,0-3,3l21.16,21.16V933.4h5.47V884l20.94-20.94A2.09,2.09,0,0,0,523.62,860.06Z" transform="translate(0.5 -256.57)"/><g id="Sapin-8" data-name="Sapin"><path class="cls-12" d="M1105,747V701.13l-5.59,8.78a.31.31,0,0,0,.24.48l1.51.16-4.51,7.09a.31.31,0,0,0,.23.48l2.76.23-7.13,11.21a.31.31,0,0,0,.24.48l5.31.44-9.34,14.68a.32.32,0,0,0,.24.48Z" transform="translate(0.5 -256.57)"/><path class="cls-13" d="M1105,701.23V747l15.78-1.32a.32.32,0,0,0,.24-.48l-9.34-14.68L1117,730a.31.31,0,0,0,.24-.48l-7.13-11.21,2.76-.23a.31.31,0,0,0,.23-.48l-4.51-7.09,1.52-.16a.32.32,0,0,0,.24-.48Z" transform="translate(0.5 -256.57)"/></g><path class="cls-18" d="M594,1080V875c-70-14-148-37-252-14S170,939,142,993c-17,32.82-25.91,66-30.27,87Z" transform="translate(0.5 -256.57)"/><path class="cls-19" d="M-.5,1080H896.07C880.41,902,667,761,406,761,236.93,761,87.82,820.18-.5,910.25Z" transform="translate(0.5 -256.57)"/><path class="cls-20" d="M379,1080.5C486.37,834.8,704.72,722,943.5,722c269.79,0,488.5,156.48,488.5,349.5q0,4.51-.16,9Z" transform="translate(0.5 -256.57)"/><path class="cls-21" d="M1303,1080.5V983c-57.29-72.53-158.13-104.27-256-111-107.75-7.41-244.25,23.26-316,129a265.75,265.75,0,0,0-36.87,79.5Z" transform="translate(0.5 -256.57)"/><path class="cls-22" d="M1920,954.14C1833.71,878.34,1702.92,830,1556.5,830c-216.73,0-399.23,105.9-453.83,250H1920Z" transform="translate(0.5 -256.57)"/><path class="cls-23" d="M1920,1035a352.36,352.36,0,0,0-78-45c-116.88-48.08-209-49.23-301-4-60.88,29.92-100.08,68-121.39,94H1920Z" transform="translate(0.5 -256.57)"/></g><g id="Calque_21" data-name="Calque 21"><rect class="cls-24" x="913.3" y="414.71" width="92.66" height="106.28"/><rect class="cls-25" x="907.67" y="402.09" width="105.67" height="45.12"/><rect class="cls-26" x="907.67" y="392.25" width="105.67" height="9.85"/><path class="cls-27" d="M970.56,777.76H949.44V739.55A10.56,10.56,0,0,1,960,729h0a10.56,10.56,0,0,1,10.56,10.56Z" transform="translate(0.5 -256.57)"/><path class="cls-25" d="M923.3,703.78a8.07,8.07,0,1,1-8.06-8.07A8.06,8.06,0,0,1,923.3,703.78Z" transform="translate(0.5 -256.57)"/><path class="cls-25" d="M936.09,703.78a8.07,8.07,0,1,1-8.06-8.07A8.06,8.06,0,0,1,936.09,703.78Z" transform="translate(0.5 -256.57)"/><path class="cls-25" d="M948.88,703.78a8.07,8.07,0,1,1-8.06-8.07A8.06,8.06,0,0,1,948.88,703.78Z" transform="translate(0.5 -256.57)"/><circle class="cls-25" cx="954.1" cy="447.21" r="8.07"/><circle class="cls-25" cx="966.89" cy="447.21" r="8.07"/><circle class="cls-25" cx="979.68" cy="447.21" r="8.07"/><circle class="cls-25" cx="992.47" cy="447.21" r="8.07"/><circle class="cls-25" cx="1005.26" cy="447.21" r="8.07"/><rect class="cls-26" x="907.67" y="418.19" width="105.67" height="14.31"/><path class="cls-26" d="M923.3,689.06a8.07,8.07,0,1,1-8.06-8.07A8.06,8.06,0,0,1,923.3,689.06Z" transform="translate(0.5 -256.57)"/><path class="cls-26" d="M936.09,689.06A8.07,8.07,0,1,1,928,681,8.06,8.06,0,0,1,936.09,689.06Z" transform="translate(0.5 -256.57)"/><path class="cls-26" d="M948.88,689.06a8.07,8.07,0,1,1-8.06-8.07A8.06,8.06,0,0,1,948.88,689.06Z" transform="translate(0.5 -256.57)"/><path class="cls-26" d="M961.67,689.06A8.07,8.07,0,1,1,953.6,681,8.07,8.07,0,0,1,961.67,689.06Z" transform="translate(0.5 -256.57)"/><path class="cls-26" d="M974.46,689.06a8.07,8.07,0,1,1-8.07-8.07A8.07,8.07,0,0,1,974.46,689.06Z" transform="translate(0.5 -256.57)"/><path class="cls-26" d="M987.25,689.06a8.07,8.07,0,1,1-8.07-8.07A8.07,8.07,0,0,1,987.25,689.06Z" transform="translate(0.5 -256.57)"/><path class="cls-26" d="M1000,689.06A8.07,8.07,0,1,1,992,681,8.07,8.07,0,0,1,1000,689.06Z" transform="translate(0.5 -256.57)"/><path class="cls-26" d="M1012.83,689.06a8.07,8.07,0,1,1-8.07-8.07A8.07,8.07,0,0,1,1012.83,689.06Z" transform="translate(0.5 -256.57)"/><rect class="cls-25" x="907.67" y="402.09" width="105.67" height="14.31"/><path class="cls-25" d="M923.3,673a8.07,8.07,0,1,1-8.06-8.07A8.07,8.07,0,0,1,923.3,673Z" transform="translate(0.5 -256.57)"/><path class="cls-25" d="M936.09,673A8.07,8.07,0,1,1,928,664.9,8.07,8.07,0,0,1,936.09,673Z" transform="translate(0.5 -256.57)"/><path class="cls-25" d="M948.88,673a8.07,8.07,0,1,1-8.06-8.07A8.07,8.07,0,0,1,948.88,673Z" transform="translate(0.5 -256.57)"/><path class="cls-25" d="M961.67,673a8.07,8.07,0,1,1-8.07-8.07A8.07,8.07,0,0,1,961.67,673Z" transform="translate(0.5 -256.57)"/><path class="cls-25" d="M974.46,673a8.07,8.07,0,1,1-8.07-8.07A8.07,8.07,0,0,1,974.46,673Z" transform="translate(0.5 -256.57)"/><path class="cls-25" d="M987.25,673a8.07,8.07,0,1,1-8.07-8.07A8.07,8.07,0,0,1,987.25,673Z" transform="translate(0.5 -256.57)"/><path class="cls-25" d="M1000,673A8.07,8.07,0,1,1,992,664.9,8.07,8.07,0,0,1,1000,673Z" transform="translate(0.5 -256.57)"/><path class="cls-25" d="M1012.83,673a8.07,8.07,0,1,1-8.07-8.07A8.07,8.07,0,0,1,1012.83,673Z" transform="translate(0.5 -256.57)"/><rect class="cls-28" x="923.8" y="475.63" width="15.29" height="15.29"/><line class="cls-29" x1="931.45" y1="475.63" x2="931.45" y2="490.92"/><line class="cls-29" x1="923.8" y1="483.27" x2="939.09" y2="483.27"/><rect class="cls-28" x="981.91" y="475.63" width="15.29" height="15.29"/><line class="cls-29" x1="989.55" y1="475.63" x2="989.55" y2="490.92"/><line class="cls-29" x1="981.91" y1="483.27" x2="997.2" y2="483.27"/><rect class="cls-27" x="907.67" y="520.99" width="103.92" height="5.44" rx="2.72"/><rect class="cls-30" x="910.86" y="518.21" width="97.54" height="2.78" rx="1.39"/><path class="cls-31" d="M967,739.55a7,7,0,0,0-14,0V765h14Z" transform="translate(0.5 -256.57)"/><line class="cls-32" x1="960.5" y1="474.02" x2="960.5" y2="513.94"/><line class="cls-32" x1="951.99" y1="484.47" x2="970.42" y2="484.47"/><line class="cls-32" x1="951.99" y1="490.65" x2="970.42" y2="490.65"/><line class="cls-32" x1="951.99" y1="496.82" x2="970.42" y2="496.82"/><line class="cls-32" x1="951.99" y1="502.99" x2="970.42" y2="502.99"/></g><g id="Arbres"><g id="Sapin-9" data-name="Sapin"><path class="cls-12" d="M1806,917V812.74l-12.7,20a.71.71,0,0,0,.52,1.09l3.44.37L1787,850.28a.72.72,0,0,0,.54,1.1l6.27.52-16.22,25.49a.71.71,0,0,0,.54,1.09l12.09,1L1769,912.86a.72.72,0,0,0,.55,1.1Z" transform="translate(0.5 -256.57)"/><path class="cls-13" d="M1806,813V917l35.88-3a.71.71,0,0,0,.54-1.09l-21.24-33.38,12.1-1a.71.71,0,0,0,.54-1.09L1817.6,851.9l6.27-.52a.71.71,0,0,0,.54-1.09l-10.26-16.13,3.46-.37a.71.71,0,0,0,.53-1.08Z" transform="translate(0.5 -256.57)"/></g><g id="Sapin-10" data-name="Sapin"><path class="cls-14" d="M1841,923V811.66L1827.42,833a.76.76,0,0,0,.56,1.17l3.67.39-11,17.22a.77.77,0,0,0,.59,1.17l6.68.55-17.31,27.22a.76.76,0,0,0,.58,1.17l12.91,1.07-22.68,35.64a.76.76,0,0,0,.58,1.17Z" transform="translate(0.5 -256.57)"/><path class="cls-13" d="M1841,811.9V923l38.32-3.2a.75.75,0,0,0,.58-1.16l-22.68-35.65,12.91-1.07a.76.76,0,0,0,.58-1.17l-17.32-27.22,6.69-.56a.75.75,0,0,0,.58-1.16l-11-17.22,3.7-.4a.75.75,0,0,0,.56-1.15Z" transform="translate(0.5 -256.57)"/></g><g id="Sapin-11" data-name="Sapin"><path class="cls-12" d="M1881.92,946.5V869.24L1872.51,884a.53.53,0,0,0,.39.81l2.55.27-7.61,11.95a.53.53,0,0,0,.41.81l4.64.39-12,18.89a.53.53,0,0,0,.4.81l9,.74-15.74,24.74a.53.53,0,0,0,.4.81Z" transform="translate(0.5 -256.57)"/><path class="cls-13" d="M1881.92,869.4v77.07l26.59-2.22a.53.53,0,0,0,.41-.81l-15.74-24.74,9-.74a.53.53,0,0,0,.4-.81l-12-18.89,4.64-.39a.52.52,0,0,0,.4-.81l-7.6-11.95,2.56-.27a.53.53,0,0,0,.4-.8Z" transform="translate(0.5 -256.57)"/></g><path class="cls-33" d="M228.36,769.84a6.36,6.36,0,1,0-11.81,0,2.3,2.3,0,0,1-.57,2.57,9.68,9.68,0,1,0,13,0A2.32,2.32,0,0,1,228.36,769.84Z" transform="translate(0.5 -256.57)"/><rect class="cls-34" x="222.32" y="510.83" width="0.93" height="30.03" rx="0.46"/><path class="cls-34" d="M227.22,777.35l-4.9,4.36a.51.51,0,0,0-.15.35h0a.46.46,0,0,0,.77.34l4.9-4.36a.48.48,0,0,0,.16-.35h0A.47.47,0,0,0,227.22,777.35Z" transform="translate(0.5 -256.57)"/><path class="cls-34" d="M222.75,772h0a.46.46,0,0,1-.77.35l-.16-.14-2.77-2.46a.51.51,0,0,1-.15-.35h0a.46.46,0,0,1,.77-.35l2.15,1.91.77.69A.46.46,0,0,1,222.75,772Z" transform="translate(0.5 -256.57)"/><circle class="cls-35" cx="226.84" cy="517.25" r="0.77"/><circle class="cls-35" cx="220.44" cy="508.1" r="0.77"/><circle class="cls-35" cx="226.56" cy="528.84" r="0.77"/><path class="cls-36" d="M574,703.88a30.14,30.14,0,1,1,56.06,0,10.93,10.93,0,0,0,2.74,12.21,45.95,45.95,0,1,1-61.7.14A11,11,0,0,0,574,703.88Z" transform="translate(0.5 -256.57)"/><rect class="cls-34" x="601.19" y="435.74" width="4.4" height="141.26" rx="2.2"/><path class="cls-34" d="M579.43,739.51l23.29,20.71a2.21,2.21,0,0,1,.74,1.65h0a2.2,2.2,0,0,1-3.66,1.65l-23.3-20.71a2.21,2.21,0,0,1-.74-1.65h0A2.21,2.21,0,0,1,579.43,739.51Z" transform="translate(0.5 -256.57)"/><path class="cls-34" d="M600.69,714.11h0a2.2,2.2,0,0,0,3.67,1.64l.74-.65,13.11-11.66a2.21,2.21,0,0,0,.74-1.65h0a2.21,2.21,0,0,0-3.67-1.65l-10.18,9.06-3.67,3.28A2.21,2.21,0,0,0,600.69,714.11Z" transform="translate(0.5 -256.57)"/><circle class="cls-35" cx="584.11" cy="466.2" r="3.67"/><circle class="cls-35" cx="614.47" cy="422.76" r="3.67"/><circle class="cls-35" cx="585.47" cy="521.23" r="3.67"/><path class="cls-36" d="M522.49,753.23a25.89,25.89,0,1,1,49.94-9.57,25.58,25.58,0,0,1-1.81,9.54A9.41,9.41,0,0,0,573,763.69a39.44,39.44,0,1,1-53,.11A9.47,9.47,0,0,0,522.49,753.23Z" transform="translate(0.5 -256.57)"/><rect class="cls-34" x="545.88" y="486.72" width="3.78" height="121.27" rx="1.89"/><path class="cls-34" d="M527.13,783.82l20,17.78a1.89,1.89,0,0,1,.63,1.41h0a1.89,1.89,0,0,1-3.14,1.42l-20-17.79a1.85,1.85,0,0,1-.64-1.41h0A1.89,1.89,0,0,1,527.13,783.82Z" transform="translate(0.5 -256.57)"/><path class="cls-34" d="M545.38,762h0a1.89,1.89,0,0,0,3.15,1.41l.64-.56,11.25-10a1.87,1.87,0,0,0,.64-1.41v0a1.89,1.89,0,0,0-3.15-1.41l-8.74,7.77L546,760.6A1.87,1.87,0,0,0,545.38,762Z" transform="translate(0.5 -256.57)"/><circle class="cls-35" cx="531.22" cy="512.88" r="3.15"/><circle class="cls-35" cx="557.29" cy="475.58" r="3.15"/><circle class="cls-35" cx="532.39" cy="560.12" r="3.15"/><path class="cls-36" d="M325,833.51a11.63,11.63,0,1,1,22.43-4.3,11.73,11.73,0,0,1-.81,4.29,4.22,4.22,0,0,0,1.05,4.71,17.71,17.71,0,1,1-23.79,0A4.25,4.25,0,0,0,325,833.51Z" transform="translate(0.5 -256.57)"/><rect class="cls-34" x="335.77" y="572.48" width="1.7" height="54.46" rx="0.85"/><path class="cls-34" d="M327.07,847.25l9,8a.89.89,0,0,1,.29.64h0a.85.85,0,0,1-1.42.64l-9-8a.84.84,0,0,1-.28-.63h0A.84.84,0,0,1,327.07,847.25Z" transform="translate(0.5 -256.57)"/><path class="cls-34" d="M335.27,837.46h0a.85.85,0,0,0,1.41.63l.29-.26,5-4.49a.85.85,0,0,0,.29-.63h0a.85.85,0,0,0-1.42-.63L337,835.56l-1.42,1.26A.85.85,0,0,0,335.27,837.46Z" transform="translate(0.5 -256.57)"/><circle class="cls-35" cx="329.18" cy="584.23" r="1.42"/><circle class="cls-35" cx="340.89" cy="567.47" r="1.42"/><circle class="cls-35" cx="329.71" cy="605.44" r="1.42"/><path class="cls-33" d="M1354.63,818.32a18.54,18.54,0,0,0,1.29-6.78,18.35,18.35,0,1,0-35.4,6.76,6.67,6.67,0,0,1-1.65,7.43,27.77,27.77,0,0,0-9.21,21.67,27.95,27.95,0,1,0,46.75-21.59A6.71,6.71,0,0,1,1354.63,818.32Z" transform="translate(0.5 -256.57)"/><path class="cls-37" d="M1353.19,838.86a2.31,2.31,0,0,0-2.51.39l-11.26,10V812.62a2.34,2.34,0,0,0-4.68,0v6.7l-4.54-4a2.34,2.34,0,1,0-3.11,3.5l7.65,6.81v71a2.34,2.34,0,0,0,4.68,0V855.52l.22-.17,14.15-12.61a2.36,2.36,0,0,0,.78-1.74A2.31,2.31,0,0,0,1353.19,838.86Z" transform="translate(0.5 -256.57)"/><circle class="cls-35" cx="1349.3" cy="573.24" r="2.22"/><circle class="cls-35" cx="1330.82" cy="546.82" r="2.22"/><circle class="cls-35" cx="1348.47" cy="606.7" r="2.22"/><path class="cls-36" d="M1298.06,850.8a15.05,15.05,0,1,1,28,0,5.46,5.46,0,0,0,1.36,6.1,22.94,22.94,0,1,1-30.81.07A5.51,5.51,0,0,0,1298.06,850.8Z" transform="translate(0.5 -256.57)"/><rect class="cls-34" x="1311.87" y="588.45" width="2.2" height="70.54" rx="1.1"/><path class="cls-34" d="M1300.76,868.59l11.63,10.35a1.09,1.09,0,0,1,.37.82h0a1.1,1.1,0,0,1-1.83.83l-11.64-10.35a1.11,1.11,0,0,1-.37-.82h0A1.11,1.11,0,0,1,1300.76,868.59Z" transform="translate(0.5 -256.57)"/><path class="cls-34" d="M1311.37,855.91h0a1.11,1.11,0,0,0,1.84.82l.36-.33,6.55-5.82a1.09,1.09,0,0,0,.37-.82h0a1.1,1.1,0,0,0-1.83-.82l-5.09,4.52-1.83,1.64A1.11,1.11,0,0,0,1311.37,855.91Z" transform="translate(0.5 -256.57)"/><circle class="cls-35" cx="1303.34" cy="603.66" r="1.83"/><circle class="cls-35" cx="1318.51" cy="581.97" r="1.83"/><circle class="cls-35" cx="1304.02" cy="631.15" r="1.83"/><path class="cls-36" d="M1593.06,825.8a15.05,15.05,0,1,1,28,0,5.46,5.46,0,0,0,1.36,6.1,22.94,22.94,0,1,1-30.81.07A5.51,5.51,0,0,0,1593.06,825.8Z" transform="translate(0.5 -256.57)"/><rect class="cls-34" x="1606.87" y="563.45" width="2.2" height="70.54" rx="1.1"/><path class="cls-34" d="M1595.76,843.59l11.63,10.35a1.09,1.09,0,0,1,.37.82h0a1.1,1.1,0,0,1-1.83.83l-11.64-10.35a1.11,1.11,0,0,1-.37-.82h0A1.11,1.11,0,0,1,1595.76,843.59Z" transform="translate(0.5 -256.57)"/><path class="cls-34" d="M1606.37,830.91h0a1.11,1.11,0,0,0,1.84.82l.36-.33,6.55-5.82a1.09,1.09,0,0,0,.37-.82h0a1.1,1.1,0,0,0-1.83-.82l-5.09,4.52-1.83,1.64A1.11,1.11,0,0,0,1606.37,830.91Z" transform="translate(0.5 -256.57)"/><circle class="cls-35" cx="1598.34" cy="578.66" r="1.83"/><circle class="cls-35" cx="1613.51" cy="556.97" r="1.83"/><circle class="cls-35" cx="1599.02" cy="606.15" r="1.83"/><path class="cls-33" d="M658.63,751.32a18.54,18.54,0,0,0,1.29-6.78,18.35,18.35,0,1,0-35.4,6.76,6.67,6.67,0,0,1-1.65,7.43,27.77,27.77,0,0,0-9.21,21.67,27.95,27.95,0,1,0,46.75-21.59A6.71,6.71,0,0,1,658.63,751.32Z" transform="translate(0.5 -256.57)"/><path class="cls-37" d="M657.19,771.86a2.31,2.31,0,0,0-2.51.39l-11.26,10V745.62a2.34,2.34,0,1,0-4.68,0v6.7l-4.54-4a2.34,2.34,0,1,0-3.11,3.5l7.65,6.81v71a2.34,2.34,0,0,0,4.68,0V788.52l.22-.17,14.15-12.61a2.36,2.36,0,0,0,.78-1.74A2.31,2.31,0,0,0,657.19,771.86Z" transform="translate(0.5 -256.57)"/><circle class="cls-35" cx="653.3" cy="506.24" r="2.22"/><circle class="cls-35" cx="634.82" cy="479.82" r="2.22"/><circle class="cls-35" cx="652.47" cy="539.7" r="2.22"/><path class="cls-38" d="M248.3,758.34s-7.3,19.73-6.13,25.56,6.13,5.41,6.13,5.41,4.94.41,6.12-5.41S248.3,758.34,248.3,758.34Z" transform="translate(0.5 -256.57)"/><path class="cls-17" d="M248.3,767.64h0a.74.74,0,0,0-.74.73v23.19H249v-23.2A.73.73,0,0,0,248.3,767.64Z" transform="translate(0.5 -256.57)"/><path class="cls-33" d="M857.63,760.32a18.54,18.54,0,0,0,1.29-6.78,18.35,18.35,0,1,0-35.4,6.76,6.67,6.67,0,0,1-1.65,7.43,27.77,27.77,0,0,0-9.21,21.67,27.95,27.95,0,1,0,46.75-21.59A6.71,6.71,0,0,1,857.63,760.32Z" transform="translate(0.5 -256.57)"/><path class="cls-37" d="M856.19,780.86a2.31,2.31,0,0,0-2.51.39l-11.26,10V754.62a2.34,2.34,0,1,0-4.68,0v6.7l-4.54-4a2.34,2.34,0,1,0-3.11,3.5l7.65,6.81v71a2.34,2.34,0,0,0,4.68,0V797.52l.22-.17,14.15-12.61a2.36,2.36,0,0,0,.78-1.74A2.31,2.31,0,0,0,856.19,780.86Z" transform="translate(0.5 -256.57)"/><circle class="cls-35" cx="852.3" cy="515.24" r="2.22"/><circle class="cls-35" cx="833.82" cy="488.82" r="2.22"/><circle class="cls-35" cx="851.47" cy="548.7" r="2.22"/><path class="cls-33" d="M1132.84,685.13a21.54,21.54,0,0,0,1.55-8.06,22,22,0,0,0-44.08,0,21.58,21.58,0,0,0,1.55,8,7.82,7.82,0,0,1-2,8.81,32.83,32.83,0,0,0-11.07,25.72c.59,17.57,15.25,31.8,33,32a33.38,33.38,0,0,0,34.1-33.15A33,33,0,0,0,1135,694,7.87,7.87,0,0,1,1132.84,685.13Z" transform="translate(0.5 -256.57)"/><path class="cls-37" d="M1131.11,709.5a2.77,2.77,0,0,0-3,.46l-13.52,11.89V678.36a2.82,2.82,0,0,0-5.63,0v7.95l-5.45-4.77a2.81,2.81,0,0,0-3-.46,2.76,2.76,0,0,0-.72,4.61l9.19,8.08v84.3a2.82,2.82,0,0,0,5.63,0V729.26a2.65,2.65,0,0,0,.26-.21l17-14.95a2.76,2.76,0,0,0,.94-2.07A2.72,2.72,0,0,0,1131.11,709.5Z" transform="translate(0.5 -256.57)"/><ellipse class="cls-35" cx="1126.34" cy="442.18" rx="2.67" ry="2.63"/><ellipse class="cls-35" cx="1104.14" cy="410.83" rx="2.67" ry="2.63"/><ellipse class="cls-35" cx="1125.35" cy="481.89" rx="2.67" ry="2.63"/><path class="cls-33" d="M190.22,782.41a6.36,6.36,0,1,0-11.81,0,2.32,2.32,0,0,1-.57,2.57,9.68,9.68,0,1,0,13,0A2.3,2.3,0,0,1,190.22,782.41Z" transform="translate(0.5 -256.57)"/><rect class="cls-34" x="184.18" y="523.4" width="0.93" height="30.03" rx="0.46"/><path class="cls-34" d="M189.08,789.91l-4.9,4.37a.45.45,0,0,0-.15.34h0a.46.46,0,0,0,.77.35l4.9-4.37a.43.43,0,0,0,.15-.34h0A.46.46,0,0,0,189.08,789.91Z" transform="translate(0.5 -256.57)"/><path class="cls-34" d="M184.61,784.56h0a.46.46,0,0,1-.77.35l-.16-.14-2.77-2.46a.45.45,0,0,1-.15-.34h0a.46.46,0,0,1,.77-.35l2.15,1.9.77.7A.44.44,0,0,1,184.61,784.56Z" transform="translate(0.5 -256.57)"/><circle class="cls-35" cx="188.7" cy="529.82" r="0.77"/><circle class="cls-35" cx="182.3" cy="520.66" r="0.77"/><circle class="cls-35" cx="188.41" cy="541.41" r="0.77"/><path class="cls-33" d="M268.79,776.84a8.34,8.34,0,1,0-16.08-3.08,8.43,8.43,0,0,0,.59,3.07,3,3,0,0,1-.75,3.37,12.7,12.7,0,1,0,17.05,0A3,3,0,0,1,268.79,776.84Z" transform="translate(0.5 -256.57)"/><rect class="cls-34" x="260.72" y="517.07" width="1.22" height="39.39" rx="0.61"/><path class="cls-34" d="M267.3,786.68l-6.42,5.73a.6.6,0,0,0-.21.45h0a.61.61,0,0,0,1,.46l6.43-5.73a.59.59,0,0,0,.2-.45h0A.61.61,0,0,0,267.3,786.68Z" transform="translate(0.5 -256.57)"/><path class="cls-34" d="M261.43,779.67h0a.61.61,0,0,1-1,.46l-.2-.19-3.63-3.22a.64.64,0,0,1-.21-.46h0a.62.62,0,0,1,1-.46l2.82,2.5,1,.91A.61.61,0,0,1,261.43,779.67Z" transform="translate(0.5 -256.57)"/><circle class="cls-35" cx="266.65" cy="525.49" r="1.01"/><circle class="cls-35" cx="258.25" cy="513.49" r="1.01"/><circle class="cls-35" cx="266.27" cy="540.69" r="1.01"/><path class="cls-33" d="M318.31,838.63a8.48,8.48,0,0,0,.59-3.08,8.34,8.34,0,0,0-16.67,0,8.23,8.23,0,0,0,.59,3.07,3,3,0,0,1-.75,3.38,12.61,12.61,0,0,0-4.19,9.84A12.7,12.7,0,1,0,319.12,842,3,3,0,0,1,318.31,838.63Z" transform="translate(0.5 -256.57)"/><rect class="cls-34" x="310.23" y="578.87" width="1.22" height="39.39" rx="0.61"/><path class="cls-34" d="M316.82,848.48l-6.43,5.72a.61.61,0,0,0-.2.46h0a.61.61,0,0,0,1,.45l6.43-5.72a.61.61,0,0,0,.2-.46h0A.61.61,0,0,0,316.82,848.48Z" transform="translate(0.5 -256.57)"/><path class="cls-34" d="M311,841.46h0a.61.61,0,0,1-1,.46l-.21-.18-3.63-3.23a.59.59,0,0,1-.2-.45h0a.61.61,0,0,1,1-.46l2.82,2.5,1,.91A.59.59,0,0,1,311,841.46Z" transform="translate(0.5 -256.57)"/><circle class="cls-35" cx="316.16" cy="587.28" r="1.01"/><circle class="cls-35" cx="307.77" cy="575.28" r="1.01"/><circle class="cls-35" cx="315.79" cy="602.48" r="1.01"/><path class="cls-33" d="M133.75,810.49a6.46,6.46,0,0,0,.44-2.35,6.35,6.35,0,1,0-12.7,0,6.5,6.5,0,0,0,.44,2.35,2.29,2.29,0,0,1-.57,2.57,9.62,9.62,0,0,0-3.19,7.51,9.68,9.68,0,1,0,16.19-7.48A2.33,2.33,0,0,1,133.75,810.49Z" transform="translate(0.5 -256.57)"/><rect class="cls-34" x="127.71" y="551.49" width="0.93" height="30.03" rx="0.46"/><path class="cls-34" d="M132.61,818l-4.9,4.37a.44.44,0,0,0-.16.34h0a.47.47,0,0,0,.78.35l4.9-4.37a.47.47,0,0,0,.15-.34h0A.46.46,0,0,0,132.61,818Z" transform="translate(0.5 -256.57)"/><path class="cls-34" d="M128.14,812.65h0a.47.47,0,0,1-.78.35l-.15-.14-2.77-2.46a.46.46,0,0,1-.16-.35h0a.47.47,0,0,1,.78-.34l2.15,1.9.77.69A.48.48,0,0,1,128.14,812.65Z" transform="translate(0.5 -256.57)"/><circle class="cls-35" cx="132.23" cy="557.9" r="0.77"/><circle class="cls-35" cx="125.83" cy="548.75" r="0.77"/><circle class="cls-35" cx="131.94" cy="569.49" r="0.77"/><circle class="cls-15" cx="238.44" cy="472.17" r="20.25"/><circle class="cls-16" cx="262.47" cy="488.2" r="16.03"/><circle class="cls-16" cx="212.93" cy="501.39" r="16.03"/><path class="cls-17" d="M261.62,746.06h0a2.11,2.11,0,0,0-3,0l-18,18V732.74a2.75,2.75,0,0,0-2.74-2.75h0a2.75,2.75,0,0,0-2.75,2.75v44.35L217,758.91a2.11,2.11,0,0,0-3,3l21.16,21.16V819.4h5.47V770l20.94-20.94A2.09,2.09,0,0,0,261.62,746.06Z" transform="translate(0.5 -256.57)"/><path class="cls-39" d="M1392.68,752.45s-24.79,67-20.8,86.76,20.8,18.4,20.8,18.4,16.78,1.4,20.79-18.4S1392.68,752.45,1392.68,752.45Z" transform="translate(0.5 -256.57)"/><path class="cls-17" d="M1392.68,784a2.49,2.49,0,0,0-2.5,2.49V865.2h5V786.47A2.51,2.51,0,0,0,1392.68,784Z" transform="translate(0.5 -256.57)"/><path class="cls-38" d="M1376.69,827.18s-16.35,44.18-13.73,57.24,13.73,12.13,13.73,12.13,11.07.92,13.72-12.13S1376.69,827.18,1376.69,827.18Z" transform="translate(0.5 -256.57)"/><path class="cls-17" d="M1376.69,848h0a1.66,1.66,0,0,0-1.65,1.64v51.94h3.29v-52A1.63,1.63,0,0,0,1376.69,848Z" transform="translate(0.5 -256.57)"/><path class="cls-39" d="M649.32,758.82s-20.89,56.43-17.53,73.12,17.53,15.5,17.53,15.5,14.14,1.19,17.52-15.5S649.32,758.82,649.32,758.82Z" transform="translate(0.5 -256.57)"/><path class="cls-17" d="M649.32,785.39a2.09,2.09,0,0,0-2.1,2.1v66.35h4.2V787.49A2.12,2.12,0,0,0,649.32,785.39Z" transform="translate(0.5 -256.57)"/><path class="cls-39" d="M1360.11,823.28s-20.89,56.43-17.53,73.12,17.53,15.5,17.53,15.5,14.14,1.19,17.52-15.5S1360.11,823.28,1360.11,823.28Z" transform="translate(0.5 -256.57)"/><path class="cls-17" d="M1360.11,849.85a2.09,2.09,0,0,0-2.1,2.1V918.3h4.2V852A2.12,2.12,0,0,0,1360.11,849.85Z" transform="translate(0.5 -256.57)"/><path class="cls-39" d="M1503.05,806s-14.67,39.62-12.31,51.34,12.31,10.89,12.31,10.89,9.92.83,12.3-10.89S1503.05,806,1503.05,806Z" transform="translate(0.5 -256.57)"/><path class="cls-17" d="M1503.05,824.68a1.47,1.47,0,0,0-1.48,1.47v46.59h3V826.15A1.49,1.49,0,0,0,1503.05,824.68Z" transform="translate(0.5 -256.57)"/><circle class="cls-40" cx="1015.75" cy="459.01" r="17.16"/><circle class="cls-41" cx="1037.91" cy="483.29" r="13.59"/><circle class="cls-41" cx="995.39" cy="472.57" r="13.59"/><path class="cls-17" d="M995.18,730.24h0a1.77,1.77,0,0,1,2.53,0l15.23,15.23V719a2.33,2.33,0,0,1,2.33-2.33h0a2.32,2.32,0,0,1,2.32,2.33v37.58l15.4-15.39a1.79,1.79,0,1,1,2.53,2.53l-17.93,17.93V792.4h-4.65V750.52l-17.76-17.76A1.76,1.76,0,0,1,995.18,730.24Z" transform="translate(0.5 -256.57)"/><circle class="cls-40" cx="1523.07" cy="518.54" r="17.16"/><circle class="cls-41" cx="1545.23" cy="542.83" r="13.59"/><circle class="cls-41" cx="1502.71" cy="532.11" r="13.59"/><path class="cls-17" d="M1502.5,789.78h0a1.77,1.77,0,0,1,2.53,0L1520.26,805V778.49a2.32,2.32,0,0,1,2.33-2.32h0a2.32,2.32,0,0,1,2.32,2.32v37.59l15.4-15.4a1.79,1.79,0,0,1,2.53,2.54l-17.93,17.93v30.78h-4.65V810.05l-17.76-17.76A1.75,1.75,0,0,1,1502.5,789.78Z" transform="translate(0.5 -256.57)"/><circle class="cls-40" cx="1150.66" cy="461.35" r="11.23"/><circle class="cls-41" cx="1165.17" cy="477.24" r="8.89"/><circle class="cls-41" cx="1137.34" cy="470.23" r="8.89"/><path class="cls-17" d="M1137,727.52h0a1.15,1.15,0,0,1,1.66,0l10,10V720.14a1.52,1.52,0,0,1,1.53-1.53h0a1.52,1.52,0,0,1,1.52,1.53v24.58l10.07-10.07a1.17,1.17,0,0,1,1.66,1.66L1151.7,748v20.15h-3V740.78L1137,729.16A1.15,1.15,0,0,1,1137,727.52Z" transform="translate(0.5 -256.57)"/><circle class="cls-40" cx="115.54" cy="531.36" r="11.5"/><circle class="cls-41" cx="130.4" cy="547.63" r="9.1"/><circle class="cls-41" cx="101.9" cy="540.45" r="9.1"/><path class="cls-17" d="M101.6,797.75h0a1.2,1.2,0,0,1,1.7,0L113.5,808V790.19a1.55,1.55,0,0,1,1.56-1.55h0a1.55,1.55,0,0,1,1.56,1.55v25.18l10.31-10.31a1.2,1.2,0,0,1,1.7,1.7l-12,12V839.4H113.5V811.34l-11.9-11.9A1.17,1.17,0,0,1,101.6,797.75Z" transform="translate(0.5 -256.57)"/><path class="cls-38" d="M176.09,803.4S168.8,823.12,170,829s6.12,5.42,6.12,5.42,4.95.41,6.13-5.42S176.09,803.4,176.09,803.4Z" transform="translate(0.5 -256.57)"/><path class="cls-17" d="M176.09,812.69h0a.74.74,0,0,0-.73.74v23.18h1.47v-23.2A.73.73,0,0,0,176.09,812.69Z" transform="translate(0.5 -256.57)"/><path class="cls-38" d="M147.41,788.76s-7.29,19.73-6.12,25.55,6.12,5.42,6.12,5.42,5,.41,6.13-5.42S147.41,788.76,147.41,788.76Z" transform="translate(0.5 -256.57)"/><path class="cls-17" d="M147.41,798.06h0a.73.73,0,0,0-.73.73V822h1.47v-23.2A.73.73,0,0,0,147.41,798.06Z" transform="translate(0.5 -256.57)"/><path class="cls-36" d="M147.15,777.65a9.39,9.39,0,1,1,18.12-3.47,9.46,9.46,0,0,1-.65,3.46,3.4,3.4,0,0,0,.85,3.8,14.31,14.31,0,1,1-19.23,0A3.43,3.43,0,0,0,147.15,777.65Z" transform="translate(0.5 -256.57)"/><rect class="cls-34" x="155.96" y="517.47" width="1.37" height="44.01" rx="0.69"/><path class="cls-34" d="M148.83,788.75l7.26,6.45a.68.68,0,0,1,.23.52h0a.68.68,0,0,1-1.14.51l-7.26-6.45a.68.68,0,0,1-.23-.51h0A.69.69,0,0,1,148.83,788.75Z" transform="translate(0.5 -256.57)"/><path class="cls-34" d="M155.46,780.84h0a.69.69,0,0,0,1.14.51l.23-.21,4.08-3.63a.68.68,0,0,0,.23-.51h0a.69.69,0,0,0-1.14-.51l-3.17,2.82-1.15,1A.71.71,0,0,0,155.46,780.84Z" transform="translate(0.5 -256.57)"/><circle class="cls-35" cx="150.63" cy="526.97" r="1.14"/><circle class="cls-35" cx="160.09" cy="513.43" r="1.14"/><circle class="cls-35" cx="151.06" cy="544.11" r="1.14"/><rect class="cls-15" x="608.54" y="550.95" width="0.63" height="27.77"/><path class="cls-15" d="M610.74,812.43a4.26,4.26,0,0,0-1.83,3.86l-.56.54-.55-.54a4.26,4.26,0,0,0-1.83-3.86,1.6,1.6,0,0,0-2.19,2.25,4.28,4.28,0,0,0,3.9,1.74l.6.58.07-.07.08.07.6-.58a4.25,4.25,0,0,0,3.9-1.74A1.6,1.6,0,0,0,610.74,812.43Z" transform="translate(0.5 -256.57)"/><path class="cls-15" d="M610.74,817.56a4.25,4.25,0,0,0-1.83,3.86l-.56.54-.55-.54a4.25,4.25,0,0,0-1.83-3.86,1.6,1.6,0,0,0-2.19,2.25,4.24,4.24,0,0,0,3.9,1.73l.6.59.07-.08.08.08.6-.59a4.21,4.21,0,0,0,3.9-1.73A1.6,1.6,0,0,0,610.74,817.56Z" transform="translate(0.5 -256.57)"/><path class="cls-15" d="M610.74,822.31a4.25,4.25,0,0,0-1.83,3.86l-.56.54-.55-.54a4.25,4.25,0,0,0-1.83-3.86,1.6,1.6,0,0,0-2.19,2.25,4.28,4.28,0,0,0,3.9,1.74l.6.58.07-.08.08.08.6-.58a4.25,4.25,0,0,0,3.9-1.74A1.6,1.6,0,0,0,610.74,822.31Z" transform="translate(0.5 -256.57)"/><path class="cls-42" d="M609.72,802.51c0,1.62-.61,2.94-1.37,2.94s-1.37-1.32-1.37-2.94.62-1.45,1.37-1.45S609.72,800.89,609.72,802.51Z" transform="translate(0.5 -256.57)"/><path class="cls-42" d="M612.07,804.61c-1.14,1.15-2.5,1.64-3,1.11s0-1.9,1.1-3,1.47-.6,2-.06S613.22,803.47,612.07,804.61Z" transform="translate(0.5 -256.57)"/><path class="cls-42" d="M612.24,807.77c-1.62,0-2.94-.62-2.94-1.37s1.32-1.37,2.94-1.37,1.45.62,1.45,1.37S613.86,807.77,612.24,807.77Z" transform="translate(0.5 -256.57)"/><path class="cls-42" d="M610.13,810.11c-1.14-1.14-1.64-2.51-1.1-3s1.9,0,3,1.1.6,1.47.06,2S611.28,811.26,610.13,810.11Z" transform="translate(0.5 -256.57)"/><path class="cls-42" d="M607,810.28c0-1.62.61-2.93,1.37-2.93s1.37,1.31,1.37,2.93-.62,1.45-1.37,1.45S607,811.91,607,810.28Z" transform="translate(0.5 -256.57)"/><path class="cls-42" d="M604.64,808.17c1.14-1.14,2.5-1.64,3-1.1s0,1.9-1.11,3-1.46.6-2,.06S603.48,809.32,604.64,808.17Z" transform="translate(0.5 -256.57)"/><path class="cls-42" d="M604.46,805c1.63,0,2.94.62,2.94,1.37s-1.31,1.37-2.94,1.37-1.44-.61-1.44-1.37S602.84,805,604.46,805Z" transform="translate(0.5 -256.57)"/><path class="cls-42" d="M606.57,802.68c1.15,1.14,1.65,2.5,1.11,3s-1.9,0-3-1.11-.6-1.46-.06-2S605.42,801.53,606.57,802.68Z" transform="translate(0.5 -256.57)"/><circle class="cls-43" cx="608.85" cy="549.83" r="1.62"/><path class="cls-33" d="M1041.87,769a8.85,8.85,0,1,0-16.45,0,3.21,3.21,0,0,1-.79,3.58,13.48,13.48,0,1,0,18.1,0A3.25,3.25,0,0,1,1041.87,769Z" transform="translate(0.5 -256.57)"/><path class="cls-37" d="M1041.18,778.9a1.1,1.1,0,0,0-1.21.19l-5.43,4.83V766.24a1.13,1.13,0,1,0-2.26,0v3.24l-2.19-2a1.14,1.14,0,0,0-1.21-.18,1.12,1.12,0,0,0-.29,1.87l3.69,3.29v34.26a1.13,1.13,0,1,0,2.26,0V786.93l.11-.08,6.82-6.08a1.12,1.12,0,0,0-.29-1.87Z" transform="translate(0.5 -256.57)"/><circle class="cls-35" cx="1039.56" cy="517.96" r="1.07"/><circle class="cls-35" cx="1030.65" cy="505.22" r="1.07"/><circle class="cls-35" cx="1039.16" cy="534.1" r="1.07"/><path class="cls-38" d="M165.75,787.28s-7.3,19.73-6.13,25.56,6.13,5.41,6.13,5.41,4.94.41,6.12-5.41S165.75,787.28,165.75,787.28Z" transform="translate(0.5 -256.57)"/><path class="cls-17" d="M165.75,796.58h0a.74.74,0,0,0-.74.73V820.5h1.47V797.3A.73.73,0,0,0,165.75,796.58Z" transform="translate(0.5 -256.57)"/><path class="cls-38" d="M193.75,786.28s-7.3,19.73-6.13,25.56,6.13,5.41,6.13,5.41,4.94.41,6.12-5.41S193.75,786.28,193.75,786.28Z" transform="translate(0.5 -256.57)"/><path class="cls-17" d="M193.75,795.58h0a.74.74,0,0,0-.74.73V819.5h1.47V796.3A.73.73,0,0,0,193.75,795.58Z" transform="translate(0.5 -256.57)"/><path class="cls-38" d="M1631.75,784.86s-20.14,54.41-16.91,70.5,16.91,14.94,16.91,14.94,13.64,1.14,16.9-14.94S1631.75,784.86,1631.75,784.86Z" transform="translate(0.5 -256.57)"/><path class="cls-17" d="M1631.75,810.5h0a2,2,0,0,0-2,2v64h4v-64A2,2,0,0,0,1631.75,810.5Z" transform="translate(0.5 -256.57)"/><path class="cls-38" d="M806.47,746.57s-20.13,54.42-16.91,70.5S806.47,832,806.47,832s13.64,1.14,16.9-14.94S806.47,746.57,806.47,746.57Z" transform="translate(0.5 -256.57)"/><path class="cls-17" d="M806.47,772.21h0a2,2,0,0,0-2,2v64h4v-64A2,2,0,0,0,806.47,772.21Z" transform="translate(0.5 -256.57)"/><path class="cls-38" d="M585.9,767.27S565.77,821.68,569,837.76,585.9,852.7,585.9,852.7s13.64,1.14,16.9-14.94S585.9,767.27,585.9,767.27Z" transform="translate(0.5 -256.57)"/><path class="cls-17" d="M585.9,792.91h0a2,2,0,0,0-2,2v64h4v-64A2,2,0,0,0,585.9,792.91Z" transform="translate(0.5 -256.57)"/><path class="cls-38" d="M619.76,716.15s-26.25,70.94-22,91.91,22,19.48,22,19.48,17.79,1.48,22-19.48S619.76,716.15,619.76,716.15Z" transform="translate(0.5 -256.57)"/><path class="cls-17" d="M619.76,749.58h0a2.65,2.65,0,0,0-2.64,2.64v83.4h5.28V752.18A2.62,2.62,0,0,0,619.76,749.58Z" transform="translate(0.5 -256.57)"/><path class="cls-38" d="M700.45,724.67s-13.46,36.39-11.3,47.14,11.3,10,11.3,10,9.12.76,11.3-10S700.45,724.67,700.45,724.67Z" transform="translate(0.5 -256.57)"/><path class="cls-17" d="M700.45,741.81h0a1.37,1.37,0,0,0-1.35,1.36V786h2.71v-42.8A1.36,1.36,0,0,0,700.45,741.81Z" transform="translate(0.5 -256.57)"/><path class="cls-38" d="M100.75,808.66s-9.63,26-8.09,33.72,8.09,7.15,8.09,7.15,6.52.55,8.08-7.15S100.75,808.66,100.75,808.66Z" transform="translate(0.5 -256.57)"/><path class="cls-17" d="M100.75,820.93h0a1,1,0,0,0-1,1v30.6h1.94V821.88A1,1,0,0,0,100.75,820.93Z" transform="translate(0.5 -256.57)"/><rect class="cls-15" x="1042.32" y="531.82" width="0.63" height="27.62"/><path class="cls-15" d="M1044.51,793.27a4.24,4.24,0,0,0-1.82,3.84l-.55.54-.56-.54a4.23,4.23,0,0,0-1.82-3.84,1.59,1.59,0,0,0-2.18,2.24,4.23,4.23,0,0,0,3.88,1.72l.6.58.08-.07.07.07.6-.58a4.19,4.19,0,0,0,3.88-1.72A1.59,1.59,0,0,0,1044.51,793.27Z" transform="translate(0.5 -256.57)"/><path class="cls-15" d="M1044.51,798.37a4.24,4.24,0,0,0-1.82,3.84l-.55.54-.56-.54a4.23,4.23,0,0,0-1.82-3.84,1.59,1.59,0,0,0-2.18,2.24,4.23,4.23,0,0,0,3.88,1.72l.6.58.08-.07.07.07.6-.58a4.19,4.19,0,0,0,3.88-1.72A1.59,1.59,0,0,0,1044.51,798.37Z" transform="translate(0.5 -256.57)"/><path class="cls-15" d="M1044.51,803.1a4.21,4.21,0,0,0-1.82,3.83l-.55.54-.56-.54a4.21,4.21,0,0,0-1.82-3.83,1.59,1.59,0,0,0-2.18,2.23,4.27,4.27,0,0,0,3.88,1.73l.6.58.08-.08.07.08.6-.58a4.23,4.23,0,0,0,3.88-1.73A1.59,1.59,0,0,0,1044.51,803.1Z" transform="translate(0.5 -256.57)"/><path class="cls-42" d="M1043.5,783.4c0,1.62-.61,2.92-1.36,2.92s-1.37-1.3-1.37-2.92.62-1.44,1.37-1.44S1043.5,781.79,1043.5,783.4Z" transform="translate(0.5 -256.57)"/><path class="cls-42" d="M1045.83,785.5c-1.13,1.13-2.49,1.63-3,1.09s0-1.88,1.1-3,1.45-.59,2-.06S1047,784.36,1045.83,785.5Z" transform="translate(0.5 -256.57)"/><path class="cls-42" d="M1046,788.63c-1.61,0-2.92-.61-2.92-1.36s1.31-1.36,2.92-1.36,1.44.61,1.44,1.36S1047.61,788.63,1046,788.63Z" transform="translate(0.5 -256.57)"/><path class="cls-42" d="M1043.91,791c-1.14-1.13-1.64-2.49-1.1-3s1.89,0,3,1.1.6,1.45.06,2S1045,792.11,1043.91,791Z" transform="translate(0.5 -256.57)"/><path class="cls-42" d="M1040.77,791.13c0-1.61.61-2.92,1.36-2.92s1.36,1.31,1.36,2.92-.61,1.45-1.36,1.45S1040.77,792.75,1040.77,791.13Z" transform="translate(0.5 -256.57)"/><path class="cls-42" d="M1038.44,789c1.14-1.14,2.49-1.64,3-1.1s0,1.89-1.09,3-1.46.6-2,.06S1037.29,790.17,1038.44,789Z" transform="translate(0.5 -256.57)"/><path class="cls-42" d="M1038.27,785.9c1.61,0,2.92.62,2.92,1.37s-1.31,1.36-2.92,1.36-1.44-.61-1.44-1.36S1036.65,785.9,1038.27,785.9Z" transform="translate(0.5 -256.57)"/><path class="cls-42" d="M1040.37,783.57c1.13,1.14,1.63,2.49,1.09,3s-1.88,0-3-1.09-.59-1.46-.06-2S1039.22,782.43,1040.37,783.57Z" transform="translate(0.5 -256.57)"/><circle class="cls-43" cx="1042.64" cy="530.7" r="1.61"/><rect class="cls-15" x="1162.36" y="495.24" width="0.4" height="17.66"/><path class="cls-15" d="M1163.58,754.93a2.72,2.72,0,0,0-1.17,2.46l-.35.34-.36-.34a2.7,2.7,0,0,0-1.16-2.46,1,1,0,0,0-1.39,1.43,2.7,2.7,0,0,0,2.48,1.11l.38.37,0-.05,0,.05.39-.37a2.71,2.71,0,0,0,2.48-1.11A1,1,0,0,0,1163.58,754.93Z" transform="translate(0.5 -256.57)"/><path class="cls-15" d="M1163.58,758.19a2.72,2.72,0,0,0-1.17,2.46l-.35.34-.36-.34a2.7,2.7,0,0,0-1.16-2.46,1,1,0,0,0-1.39,1.43,2.7,2.7,0,0,0,2.48,1.11l.38.37,0-.05,0,.05.39-.37a2.71,2.71,0,0,0,2.48-1.11A1,1,0,0,0,1163.58,758.19Z" transform="translate(0.5 -256.57)"/><path class="cls-15" d="M1163.58,761.21a2.72,2.72,0,0,0-1.17,2.46l-.35.34-.36-.34a2.7,2.7,0,0,0-1.16-2.46,1,1,0,0,0-1.39,1.43,2.7,2.7,0,0,0,2.48,1.11l.38.37,0,0,0,0,.39-.37a2.71,2.71,0,0,0,2.48-1.11A1,1,0,0,0,1163.58,761.21Z" transform="translate(0.5 -256.57)"/><path class="cls-42" d="M1162.93,748.62c0,1-.39,1.87-.87,1.87s-.87-.84-.87-1.87.39-.92.87-.92S1162.93,747.59,1162.93,748.62Z" transform="translate(0.5 -256.57)"/><path class="cls-42" d="M1164.42,750c-.73.73-1.59,1-1.93.7s0-1.2.7-1.93.93-.38,1.27,0S1165.15,749.23,1164.42,750Z" transform="translate(0.5 -256.57)"/><path class="cls-42" d="M1164.53,752c-1,0-1.87-.39-1.87-.87s.84-.87,1.87-.87.92.39.92.87S1165.56,752,1164.53,752Z" transform="translate(0.5 -256.57)"/><path class="cls-42" d="M1163.19,753.46c-.73-.73-1-1.6-.7-1.94s1.2,0,1.93.7.38.93,0,1.28S1163.92,754.19,1163.19,753.46Z" transform="translate(0.5 -256.57)"/><path class="cls-42" d="M1161.18,753.57c0-1,.39-1.87.87-1.87s.87.84.87,1.87-.39.92-.87.92S1161.18,754.6,1161.18,753.57Z" transform="translate(0.5 -256.57)"/><path class="cls-42" d="M1159.69,752.22c.73-.72,1.6-1,1.94-.7s0,1.21-.7,1.94-.93.38-1.27,0S1159,753,1159.69,752.22Z" transform="translate(0.5 -256.57)"/><path class="cls-42" d="M1159.58,750.22c1,0,1.87.39,1.87.87s-.84.87-1.87.87-.92-.39-.92-.87S1158.55,750.22,1159.58,750.22Z" transform="translate(0.5 -256.57)"/><path class="cls-42" d="M1160.93,748.73c.72.73,1,1.59.7,1.93s-1.21,0-1.94-.7-.38-.93,0-1.27S1160.19,748,1160.93,748.73Z" transform="translate(0.5 -256.57)"/><circle class="cls-43" cx="1162.56" cy="494.53" r="1.03"/><rect class="cls-15" x="1231.25" y="590.95" width="0.63" height="27.62"/><path class="cls-15" d="M1233.44,852.41a4.21,4.21,0,0,0-1.82,3.83l-.55.54-.55-.54a4.25,4.25,0,0,0-1.83-3.83,1.59,1.59,0,0,0-2.18,2.23,4.27,4.27,0,0,0,3.89,1.73l.6.58.07-.08.07.08.6-.58a4.23,4.23,0,0,0,3.88-1.73A1.59,1.59,0,0,0,1233.44,852.41Z" transform="translate(0.5 -256.57)"/><path class="cls-15" d="M1233.44,857.51a4.21,4.21,0,0,0-1.82,3.83l-.55.54-.55-.54a4.25,4.25,0,0,0-1.83-3.83,1.59,1.59,0,0,0-2.18,2.23,4.27,4.27,0,0,0,3.89,1.73l.6.58.07-.08.07.08.6-.58a4.23,4.23,0,0,0,3.88-1.73A1.59,1.59,0,0,0,1233.44,857.51Z" transform="translate(0.5 -256.57)"/><path class="cls-15" d="M1233.44,862.23a4.22,4.22,0,0,0-1.82,3.84l-.55.54-.55-.54a4.26,4.26,0,0,0-1.83-3.84,1.59,1.59,0,0,0-2.18,2.24,4.23,4.23,0,0,0,3.89,1.72l.6.58.07-.07.07.07.6-.58a4.22,4.22,0,0,0,3.88-1.72A1.59,1.59,0,0,0,1233.44,862.23Z" transform="translate(0.5 -256.57)"/><path class="cls-42" d="M1232.43,842.54c0,1.61-.61,2.92-1.36,2.92s-1.36-1.31-1.36-2.92.61-1.44,1.36-1.44S1232.43,840.93,1232.43,842.54Z" transform="translate(0.5 -256.57)"/><path class="cls-42" d="M1234.77,844.63c-1.14,1.14-2.5,1.63-3,1.1s0-1.89,1.1-3,1.45-.59,2-.06S1235.9,843.49,1234.77,844.63Z" transform="translate(0.5 -256.57)"/><path class="cls-42" d="M1234.93,847.77c-1.61,0-2.92-.61-2.92-1.36s1.31-1.37,2.92-1.37,1.44.62,1.44,1.37S1236.54,847.77,1234.93,847.77Z" transform="translate(0.5 -256.57)"/><path class="cls-42" d="M1232.84,850.1c-1.14-1.14-1.63-2.5-1.1-3s1.89,0,3,1.1.59,1.45.06,2S1234,851.24,1232.84,850.1Z" transform="translate(0.5 -256.57)"/><path class="cls-42" d="M1229.7,850.27c0-1.61.61-2.92,1.36-2.92s1.36,1.31,1.36,2.92-.61,1.44-1.36,1.44S1229.7,851.88,1229.7,850.27Z" transform="translate(0.5 -256.57)"/><path class="cls-42" d="M1227.37,848.17c1.14-1.14,2.49-1.63,3-1.1s0,1.89-1.1,3-1.46.59-2,.06S1226.23,849.31,1227.37,848.17Z" transform="translate(0.5 -256.57)"/><path class="cls-42" d="M1227.2,845c1.61,0,2.92.61,2.92,1.36s-1.31,1.36-2.92,1.36-1.44-.61-1.44-1.36S1225.59,845,1227.2,845Z" transform="translate(0.5 -256.57)"/><path class="cls-42" d="M1229.3,842.7c1.14,1.14,1.63,2.5,1.1,3s-1.89,0-3-1.1-.59-1.45-.06-2S1228.15,841.56,1229.3,842.7Z" transform="translate(0.5 -256.57)"/><circle class="cls-43" cx="1231.57" cy="589.83" r="1.61"/><rect class="cls-15" x="1219.36" y="598.71" width="0.32" height="14.03"/><path class="cls-15" d="M1220.23,857.76a2.14,2.14,0,0,0-.93,2l-.28.27-.28-.27a2.14,2.14,0,0,0-.93-2,.8.8,0,0,0-1.1,1.13,2.16,2.16,0,0,0,2,.88l.3.29,0,0,0,0,.3-.29a2.13,2.13,0,0,0,2-.88A.8.8,0,0,0,1220.23,857.76Z" transform="translate(0.5 -256.57)"/><path class="cls-15" d="M1220.23,860.35a2.14,2.14,0,0,0-.93,1.95l-.28.27-.28-.27a2.14,2.14,0,0,0-.93-1.95.8.8,0,0,0-1.1,1.14,2.17,2.17,0,0,0,2,.87l.3.3,0,0,0,0,.3-.3a2.14,2.14,0,0,0,2-.87A.8.8,0,0,0,1220.23,860.35Z" transform="translate(0.5 -256.57)"/><path class="cls-15" d="M1220.23,862.75a2.14,2.14,0,0,0-.93,2l-.28.27-.28-.27a2.14,2.14,0,0,0-.93-2,.8.8,0,0,0-1.1,1.14,2.17,2.17,0,0,0,2,.87l.3.3,0,0,0,0,.3-.3a2.14,2.14,0,0,0,2-.87A.8.8,0,0,0,1220.23,862.75Z" transform="translate(0.5 -256.57)"/><path class="cls-42" d="M1219.71,852.74c0,.82-.31,1.49-.69,1.49s-.69-.67-.69-1.49.31-.73.69-.73S1219.71,851.93,1219.71,852.74Z" transform="translate(0.5 -256.57)"/><path class="cls-42" d="M1220.9,853.81c-.58.58-1.27.83-1.54.56s0-1,.56-1.54.74-.3,1,0S1221.48,853.23,1220.9,853.81Z" transform="translate(0.5 -256.57)"/><path class="cls-42" d="M1221,855.4c-.82,0-1.48-.31-1.48-.69s.66-.69,1.48-.69.73.31.73.69S1221.8,855.4,1221,855.4Z" transform="translate(0.5 -256.57)"/><path class="cls-42" d="M1219.92,856.58c-.58-.57-.83-1.26-.56-1.53s1,0,1.54.56.3.73,0,1S1220.5,857.17,1219.92,856.58Z" transform="translate(0.5 -256.57)"/><path class="cls-42" d="M1218.32,856.67c0-.82.32-1.48.7-1.48s.69.66.69,1.48-.31.73-.69.73S1218.32,857.49,1218.32,856.67Z" transform="translate(0.5 -256.57)"/><path class="cls-42" d="M1217.14,855.61c.58-.58,1.27-.83,1.54-.56s0,1-.56,1.53-.74.31-1,0S1216.56,856.18,1217.14,855.61Z" transform="translate(0.5 -256.57)"/><path class="cls-42" d="M1217.05,854c.82,0,1.49.32,1.49.7s-.67.69-1.49.69-.73-.31-.73-.69S1216.23,854,1217.05,854Z" transform="translate(0.5 -256.57)"/><path class="cls-42" d="M1218.12,852.83c.58.58.83,1.26.56,1.54s-1,0-1.54-.56-.3-.74,0-1S1217.54,852.25,1218.12,852.83Z" transform="translate(0.5 -256.57)"/><circle class="cls-43" cx="1219.52" cy="598.14" r="0.82"/><rect class="cls-15" x="1210.19" y="589.9" width="0.43" height="19.01"/><path class="cls-15" d="M1211.54,849.83a2.89,2.89,0,0,0-1.25,2.64l-.38.37-.38-.37a2.92,2.92,0,0,0-1.26-2.64,1.09,1.09,0,0,0-1.5,1.54,3,3,0,0,0,2.68,1.19l.41.39.05-.05,0,.05.41-.39a2.94,2.94,0,0,0,2.67-1.19A1.09,1.09,0,0,0,1211.54,849.83Z" transform="translate(0.5 -256.57)"/><path class="cls-15" d="M1211.54,853.34a2.89,2.89,0,0,0-1.25,2.64l-.38.37-.38-.37a2.92,2.92,0,0,0-1.26-2.64,1.09,1.09,0,0,0-1.5,1.54,2.92,2.92,0,0,0,2.68,1.18l.41.4.05-.05,0,.05.41-.4a2.9,2.9,0,0,0,2.67-1.18A1.09,1.09,0,0,0,1211.54,853.34Z" transform="translate(0.5 -256.57)"/><path class="cls-15" d="M1211.54,856.59a2.89,2.89,0,0,0-1.25,2.64l-.38.37-.38-.37a2.93,2.93,0,0,0-1.26-2.64,1.09,1.09,0,0,0-1.5,1.54,2.93,2.93,0,0,0,2.68,1.19l.41.4.05-.05,0,.05.41-.4a2.91,2.91,0,0,0,2.67-1.19A1.09,1.09,0,0,0,1211.54,856.59Z" transform="translate(0.5 -256.57)"/><path class="cls-42" d="M1210.85,843c0,1.11-.43,2-.94,2s-.94-.9-.94-2,.42-1,.94-1S1210.85,841.93,1210.85,843Z" transform="translate(0.5 -256.57)"/><path class="cls-42" d="M1212.45,844.48c-.78.78-1.71,1.12-2.08.75s0-1.3.76-2.08,1-.41,1.36,0S1213.24,843.69,1212.45,844.48Z" transform="translate(0.5 -256.57)"/><path class="cls-42" d="M1212.57,846.64c-1.11,0-2-.43-2-.94s.9-.94,2-.94,1,.42,1,.94S1213.68,846.64,1212.57,846.64Z" transform="translate(0.5 -256.57)"/><path class="cls-42" d="M1211.13,848.24c-.79-.78-1.13-1.72-.76-2.08s1.3,0,2.08.75.41,1,0,1.37S1211.91,849,1211.13,848.24Z" transform="translate(0.5 -256.57)"/><path class="cls-42" d="M1209,848.36c0-1.11.42-2,.93-2s.94.9.94,2-.42,1-.94,1S1209,849.47,1209,848.36Z" transform="translate(0.5 -256.57)"/><path class="cls-42" d="M1207.36,846.91c.79-.78,1.72-1.12,2.09-.75s0,1.3-.76,2.08-1,.41-1.37,0S1206.57,847.7,1207.36,846.91Z" transform="translate(0.5 -256.57)"/><path class="cls-42" d="M1207.25,844.76c1.1,0,2,.42,2,.93s-.91.94-2,.94-1-.42-1-.94S1206.14,844.76,1207.25,844.76Z" transform="translate(0.5 -256.57)"/><path class="cls-42" d="M1208.69,843.15c.78.78,1.12,1.72.76,2.08s-1.3,0-2.09-.75-.4-1,0-1.37S1207.9,842.37,1208.69,843.15Z" transform="translate(0.5 -256.57)"/><circle class="cls-43" cx="1210.41" cy="589.13" r="1.11"/><rect class="cls-15" x="901.82" y="478.07" width="0.79" height="34.9"/><path class="cls-15" d="M904.72,740.82a5.33,5.33,0,0,0-2.3,4.84l-.7.69-.7-.69a5.33,5.33,0,0,0-2.3-4.84,2,2,0,0,0-2.75,2.82,5.33,5.33,0,0,0,4.9,2.18l.76.73.09-.09.09.09.76-.73a5.3,5.3,0,0,0,4.9-2.18A2,2,0,0,0,904.72,740.82Z" transform="translate(0.5 -256.57)"/><path class="cls-15" d="M904.72,747.26a5.35,5.35,0,0,0-2.3,4.85l-.7.68-.7-.68a5.34,5.34,0,0,0-2.3-4.85,2,2,0,0,0-2.75,2.83,5.38,5.38,0,0,0,4.9,2.18l.76.73.09-.09.09.09.76-.73a5.35,5.35,0,0,0,4.9-2.18A2,2,0,0,0,904.72,747.26Z" transform="translate(0.5 -256.57)"/><path class="cls-15" d="M904.72,753.23a5.35,5.35,0,0,0-2.3,4.85l-.7.68-.7-.68a5.34,5.34,0,0,0-2.3-4.85,2,2,0,0,0-2.75,2.83,5.38,5.38,0,0,0,4.9,2.18l.76.73.09-.09.09.09.76-.73a5.35,5.35,0,0,0,4.9-2.18A2,2,0,0,0,904.72,753.23Z" transform="translate(0.5 -256.57)"/><path class="cls-42" d="M903.44,728.35c0,2-.77,3.69-1.72,3.69s-1.72-1.66-1.72-3.69.77-1.83,1.72-1.83S903.44,726.31,903.44,728.35Z" transform="translate(0.5 -256.57)"/><path class="cls-42" d="M906.39,731c-1.44,1.44-3.15,2.06-3.82,1.39s-.05-2.39,1.39-3.83,1.83-.74,2.51-.07S907.83,729.55,906.39,731Z" transform="translate(0.5 -256.57)"/><path class="cls-42" d="M906.6,735c-2,0-3.69-.78-3.69-1.73s1.65-1.72,3.69-1.72,1.82.78,1.82,1.72S908.64,735,906.6,735Z" transform="translate(0.5 -256.57)"/><path class="cls-42" d="M904,737.9c-1.44-1.44-2.07-3.15-1.39-3.83s2.38-.05,3.82,1.39.75,1.84.08,2.51S905.39,739.35,904,737.9Z" transform="translate(0.5 -256.57)"/><path class="cls-42" d="M900,738.12c0-2,.77-3.7,1.72-3.7s1.72,1.66,1.72,3.7-.77,1.82-1.72,1.82S900,740.15,900,738.12Z" transform="translate(0.5 -256.57)"/><path class="cls-42" d="M897.05,735.46c1.43-1.44,3.15-2.06,3.82-1.39s0,2.39-1.39,3.83-1.84.75-2.51.07S895.6,736.9,897.05,735.46Z" transform="translate(0.5 -256.57)"/><path class="cls-42" d="M896.83,731.51c2,0,3.69.77,3.69,1.72s-1.65,1.72-3.69,1.72-1.82-.78-1.82-1.72S894.79,731.51,896.83,731.51Z" transform="translate(0.5 -256.57)"/><path class="cls-42" d="M899.48,728.55c1.44,1.44,2.06,3.15,1.39,3.83s-2.39,0-3.82-1.39-.75-1.84-.08-2.51S898,727.12,899.48,728.55Z" transform="translate(0.5 -256.57)"/><circle class="cls-43" cx="902.22" cy="476.66" r="2.04"/><rect class="cls-15" x="764.13" y="540.41" width="0.45" height="19.84"/><path class="cls-15" d="M765.57,800.49a3,3,0,0,0-1.31,2.75l-.4.39-.4-.39a3,3,0,0,0-1.31-2.75,1.14,1.14,0,0,0-1.56,1.6,3,3,0,0,0,2.79,1.24l.43.42.05,0,0,0,.43-.42a3,3,0,0,0,2.79-1.24A1.14,1.14,0,0,0,765.57,800.49Z" transform="translate(0.5 -256.57)"/><path class="cls-15" d="M765.57,804.15a3,3,0,0,0-1.31,2.76l-.4.38-.4-.38a3,3,0,0,0-1.31-2.76,1.14,1.14,0,0,0-1.56,1.61,3.06,3.06,0,0,0,2.79,1.24l.43.41.05,0,0,0,.43-.41a3.06,3.06,0,0,0,2.79-1.24A1.14,1.14,0,0,0,765.57,804.15Z" transform="translate(0.5 -256.57)"/><path class="cls-15" d="M765.57,807.55a3,3,0,0,0-1.31,2.75l-.4.39-.4-.39a3,3,0,0,0-1.31-2.75,1.14,1.14,0,0,0-1.56,1.6,3,3,0,0,0,2.79,1.24l.43.42.05,0,0,0,.43-.42a3,3,0,0,0,2.79-1.24A1.14,1.14,0,0,0,765.57,807.55Z" transform="translate(0.5 -256.57)"/><path class="cls-42" d="M764.84,793.39c0,1.16-.44,2.1-1,2.1s-1-.94-1-2.1.44-1,1-1S764.84,792.24,764.84,793.39Z" transform="translate(0.5 -256.57)"/><path class="cls-42" d="M766.52,794.9c-.82.82-1.8,1.17-2.18.79s0-1.36.79-2.18,1-.42,1.43,0S767.33,794.08,766.52,794.9Z" transform="translate(0.5 -256.57)"/><path class="cls-42" d="M766.63,797.15c-1.15,0-2.1-.44-2.1-1s1-1,2.1-1,1,.44,1,1S767.79,797.15,766.63,797.15Z" transform="translate(0.5 -256.57)"/><path class="cls-42" d="M765.13,798.83c-.82-.82-1.17-1.8-.79-2.18s1.36,0,2.18.79.42,1,0,1.43S766,799.65,765.13,798.83Z" transform="translate(0.5 -256.57)"/><path class="cls-42" d="M762.87,799c0-1.16.44-2.1,1-2.1s1,.94,1,2.1-.44,1-1,1S762.87,800.11,762.87,799Z" transform="translate(0.5 -256.57)"/><path class="cls-42" d="M761.2,797.44c.82-.82,1.79-1.17,2.18-.79s0,1.36-.79,2.18-1.05.42-1.43,0S760.38,798.26,761.2,797.44Z" transform="translate(0.5 -256.57)"/><path class="cls-42" d="M761.08,795.19c1.16,0,2.1.44,2.1,1s-.94,1-2.1,1-1-.44-1-1S759.92,795.19,761.08,795.19Z" transform="translate(0.5 -256.57)"/><path class="cls-42" d="M762.59,793.51c.81.82,1.17,1.79.79,2.18s-1.36,0-2.18-.79-.42-1,0-1.43S761.76,792.69,762.59,793.51Z" transform="translate(0.5 -256.57)"/><circle class="cls-43" cx="764.36" cy="539.6" r="1.16"/><rect class="cls-15" x="1055.83" y="543.86" width="0.51" height="16"/><path class="cls-15" d="M1051,803.66c.4,4.23,3.5,4.11,4.06,4.05l.49.48.1-.1-.49-.48C1055.18,807,1055.23,804,1051,803.66Z" transform="translate(0.5 -256.57)"/><path class="cls-15" d="M1060.21,803.66c-.41,4.23-3.5,4.11-4.06,4.05l-.5.48-.09-.1.49-.48C1056,807,1056,804,1060.21,803.66Z" transform="translate(0.5 -256.57)"/><path class="cls-15" d="M1051,807.86c.4,4.23,3.5,4.1,4.06,4l.49.48.1-.1-.49-.48C1055.18,811.24,1055.23,808.15,1051,807.86Z" transform="translate(0.5 -256.57)"/><path class="cls-15" d="M1060.21,807.86c-.41,4.23-3.5,4.1-4.06,4l-.5.48-.09-.1.49-.48C1056,811.24,1056,808.15,1060.21,807.86Z" transform="translate(0.5 -256.57)"/><ellipse class="cls-43" cx="1056.09" cy="540.14" rx="1.12" ry="1.99"/><ellipse class="cls-43" cx="1057.55" cy="797.52" rx="1.99" ry="1.12" transform="translate(-253.68 724.82) rotate(-45)"/><ellipse class="cls-43" cx="1058.86" cy="542.91" rx="1.99" ry="1.12"/><ellipse class="cls-43" cx="1057.56" cy="801.44" rx="1.12" ry="1.99" transform="translate(-256.45 725.97) rotate(-45)"/><ellipse class="cls-43" cx="1056.09" cy="545.69" rx="1.12" ry="1.99"/><ellipse class="cls-43" cx="1053.63" cy="801.44" rx="1.99" ry="1.12" transform="translate(-257.6 723.2) rotate(-45)"/><ellipse class="cls-43" cx="1053.32" cy="542.91" rx="1.99" ry="1.12"/><ellipse class="cls-43" cx="1053.63" cy="797.52" rx="1.12" ry="1.99" transform="translate(-254.83 722.05) rotate(-45)"/><circle class="cls-42" cx="1056.09" cy="542.91" r="1.33"/><rect class="cls-15" x="791.05" y="583.97" width="0.51" height="16"/><path class="cls-15" d="M786.19,843.77c.4,4.23,3.5,4.11,4.06,4.05l.5.48.09-.1-.49-.47C790.39,847.16,790.44,844.06,786.19,843.77Z" transform="translate(0.5 -256.57)"/><path class="cls-15" d="M795.42,843.77c-.4,4.23-3.5,4.11-4.06,4.05l-.49.48-.1-.1.49-.47C791.21,847.16,791.17,844.06,795.42,843.77Z" transform="translate(0.5 -256.57)"/><path class="cls-15" d="M786.19,848c.4,4.23,3.5,4.11,4.06,4l.5.48.09-.1-.49-.47C790.39,851.36,790.44,848.26,786.19,848Z" transform="translate(0.5 -256.57)"/><path class="cls-15" d="M795.42,848c-.4,4.23-3.5,4.11-4.06,4l-.49.48-.1-.1.49-.47C791.21,851.36,791.17,848.26,795.42,848Z" transform="translate(0.5 -256.57)"/><ellipse class="cls-43" cx="791.31" cy="580.25" rx="1.12" ry="1.99"/><ellipse class="cls-43" cx="792.76" cy="837.63" rx="1.99" ry="1.12" transform="translate(-359.6 549.34) rotate(-45)"/><ellipse class="cls-43" cx="794.07" cy="583.02" rx="1.99" ry="1.12"/><ellipse class="cls-43" cx="792.77" cy="841.55" rx="1.12" ry="1.99" transform="translate(-362.37 550.49) rotate(-45)"/><ellipse class="cls-43" cx="791.31" cy="585.8" rx="1.12" ry="1.99"/><ellipse class="cls-43" cx="788.84" cy="841.55" rx="1.99" ry="1.12" transform="translate(-363.52 547.71) rotate(-45)"/><ellipse class="cls-43" cx="788.53" cy="583.02" rx="1.99" ry="1.12"/><ellipse class="cls-43" cx="788.84" cy="837.63" rx="1.12" ry="1.99" transform="translate(-360.75 546.56) rotate(-45)"/><circle class="cls-42" cx="791.31" cy="583.02" r="1.33"/><rect class="cls-15" x="781.28" y="544.11" width="0.51" height="16"/><path class="cls-15" d="M776.43,803.9c.4,4.24,3.49,4.11,4.06,4.06l.49.48.1-.1-.5-.48C780.63,807.29,780.67,804.2,776.43,803.9Z" transform="translate(0.5 -256.57)"/><path class="cls-15" d="M785.65,803.9c-.4,4.24-3.5,4.11-4.06,4.06l-.49.48-.1-.1.49-.48C781.44,807.29,781.4,804.2,785.65,803.9Z" transform="translate(0.5 -256.57)"/><path class="cls-15" d="M776.43,808.1c.4,4.24,3.49,4.11,4.06,4.06l.49.47.1-.09-.5-.48C780.63,811.49,780.67,808.4,776.43,808.1Z" transform="translate(0.5 -256.57)"/><path class="cls-15" d="M785.65,808.1c-.4,4.24-3.5,4.11-4.06,4.06l-.49.47-.1-.09.49-.48C781.44,811.49,781.4,808.4,785.65,808.1Z" transform="translate(0.5 -256.57)"/><ellipse class="cls-43" cx="781.54" cy="540.38" rx="1.12" ry="1.99"/><ellipse class="cls-43" cx="783" cy="797.76" rx="1.99" ry="1.12" transform="translate(-334.27 530.75) rotate(-45)"/><ellipse class="cls-43" cx="784.31" cy="543.16" rx="1.99" ry="1.12"/><ellipse class="cls-43" cx="783" cy="801.69" rx="1.12" ry="1.99" transform="translate(-337.04 531.91) rotate(-45)"/><ellipse class="cls-43" cx="781.54" cy="545.93" rx="1.12" ry="1.99"/><ellipse class="cls-43" cx="779.07" cy="801.69" rx="1.99" ry="1.12" transform="translate(-338.2 529.13) rotate(-45)"/><ellipse class="cls-43" cx="778.76" cy="543.16" rx="1.99" ry="1.12"/><ellipse class="cls-43" cx="779.07" cy="797.76" rx="1.12" ry="1.99" transform="translate(-335.42 527.98) rotate(-45)"/><circle class="cls-42" cx="781.54" cy="543.16" r="1.33"/><rect class="cls-15" x="774.79" y="570.67" width="0.8" height="24.97"/><path class="cls-15" d="M767.5,832.28c.62,6.6,5.45,6.41,6.33,6.32l.77.75.15-.15-.77-.75C774.05,837.56,774.12,832.74,767.5,832.28Z" transform="translate(0.5 -256.57)"/><path class="cls-15" d="M781.89,832.28c-.63,6.6-5.45,6.41-6.33,6.32l-.77.75-.16-.15.77-.75C775.33,837.56,775.26,832.74,781.89,832.28Z" transform="translate(0.5 -256.57)"/><path class="cls-15" d="M767.5,838.83c.62,6.61,5.45,6.41,6.33,6.33l.77.74.15-.15L774,845C774.05,844.12,774.12,839.29,767.5,838.83Z" transform="translate(0.5 -256.57)"/><path class="cls-15" d="M781.89,838.83c-.63,6.61-5.45,6.41-6.33,6.33l-.77.74-.16-.15.77-.75C775.33,844.12,775.26,839.29,781.89,838.83Z" transform="translate(0.5 -256.57)"/><ellipse class="cls-43" cx="775.19" cy="564.86" rx="1.75" ry="3.11"/><ellipse class="cls-43" cx="777.75" cy="822.7" rx="3.11" ry="1.75" transform="translate(-353.44 534.35) rotate(-45)"/><ellipse class="cls-43" cx="779.51" cy="569.19" rx="3.11" ry="1.75"/><ellipse class="cls-43" cx="777.76" cy="828.82" rx="1.75" ry="3.11" transform="translate(-357.77 536.14) rotate(-45)"/><ellipse class="cls-43" cx="775.19" cy="573.52" rx="1.75" ry="3.11"/><ellipse class="cls-43" cx="771.63" cy="828.82" rx="3.11" ry="1.75" transform="translate(-359.56 531.81) rotate(-45)"/><ellipse class="cls-43" cx="770.86" cy="569.19" rx="3.11" ry="1.75"/><ellipse class="cls-43" cx="771.63" cy="822.7" rx="1.75" ry="3.11" transform="translate(-355.23 530.02) rotate(-45)"/><circle class="cls-42" cx="775.19" cy="569.19" r="2.07"/><rect class="cls-15" x="1135.07" y="496.26" width="0.51" height="16"/><path class="cls-15" d="M1130.22,756.05c.4,4.24,3.5,4.11,4.06,4.06l.49.47.1-.09-.49-.48C1134.42,759.44,1134.46,756.35,1130.22,756.05Z" transform="translate(0.5 -256.57)"/><path class="cls-15" d="M1139.45,756.05c-.41,4.24-3.5,4.11-4.06,4.06l-.5.47-.09-.09.49-.48C1135.24,759.44,1135.2,756.35,1139.45,756.05Z" transform="translate(0.5 -256.57)"/><path class="cls-15" d="M1130.22,760.25c.4,4.24,3.5,4.11,4.06,4.06l.49.47.1-.09-.49-.48C1134.42,763.64,1134.46,760.55,1130.22,760.25Z" transform="translate(0.5 -256.57)"/><path class="cls-15" d="M1139.45,760.25c-.41,4.24-3.5,4.11-4.06,4.06l-.5.47-.09-.09.49-.48C1135.24,763.64,1135.2,760.55,1139.45,760.25Z" transform="translate(0.5 -256.57)"/><ellipse class="cls-43" cx="1135.33" cy="492.53" rx="1.12" ry="1.99"/><ellipse class="cls-43" cx="1136.79" cy="749.91" rx="1.99" ry="1.12" transform="translate(-196.81 766.91) rotate(-45)"/><ellipse class="cls-43" cx="1138.1" cy="495.31" rx="1.99" ry="1.12"/><ellipse class="cls-43" cx="1136.8" cy="753.84" rx="1.12" ry="1.99" transform="translate(-199.58 768.06) rotate(-45)"/><ellipse class="cls-43" cx="1135.33" cy="498.08" rx="1.12" ry="1.99"/><ellipse class="cls-43" cx="1132.87" cy="753.84" rx="1.99" ry="1.12" transform="translate(-200.74 765.29) rotate(-45)"/><ellipse class="cls-43" cx="1132.56" cy="495.31" rx="1.99" ry="1.12"/><ellipse class="cls-43" cx="1132.87" cy="749.91" rx="1.12" ry="1.99" transform="translate(-197.96 764.14) rotate(-45)"/><circle class="cls-42" cx="1135.33" cy="495.31" r="1.33"/><rect class="cls-15" x="694.15" y="519.61" width="0.78" height="24.24"/><path class="cls-15" d="M687.06,781.07c.61,6.41,5.29,6.23,6.15,6.14l.74.73.15-.15-.74-.72C693.42,786.2,693.49,781.52,687.06,781.07Z" transform="translate(0.5 -256.57)"/><path class="cls-15" d="M701,781.07c-.61,6.41-5.29,6.23-6.15,6.14l-.74.73-.15-.15.74-.72C694.66,786.2,694.59,781.52,701,781.07Z" transform="translate(0.5 -256.57)"/><path class="cls-15" d="M687.06,787.43c.61,6.42,5.29,6.23,6.15,6.15l.74.72.15-.15-.74-.72C693.42,792.57,693.49,787.88,687.06,787.43Z" transform="translate(0.5 -256.57)"/><path class="cls-15" d="M701,787.43c-.61,6.42-5.29,6.23-6.15,6.15l-.74.72-.15-.15.74-.72C694.66,792.57,694.59,787.88,701,787.43Z" transform="translate(0.5 -256.57)"/><ellipse class="cls-43" cx="694.54" cy="513.97" rx="1.7" ry="3.02"/><ellipse class="cls-43" cx="697.01" cy="771.77" rx="3.02" ry="1.7" transform="translate(-341.07 462.34) rotate(-45)"/><ellipse class="cls-43" cx="698.74" cy="518.18" rx="3.02" ry="1.7"/><ellipse class="cls-43" cx="697.02" cy="777.72" rx="1.7" ry="3.02" transform="translate(-345.28 464.09) rotate(-45)"/><ellipse class="cls-43" cx="694.54" cy="522.38" rx="1.7" ry="3.02"/><ellipse class="cls-43" cx="691.07" cy="777.72" rx="3.02" ry="1.7" transform="translate(-347.02 459.88) rotate(-45)"/><ellipse class="cls-43" cx="690.34" cy="518.18" rx="3.02" ry="1.7"/><ellipse class="cls-43" cx="691.07" cy="771.77" rx="1.7" ry="3.02" transform="translate(-342.81 458.14) rotate(-45)"/><circle class="cls-42" cx="694.54" cy="518.18" r="2.01"/><rect class="cls-15" x="1219.64" y="569.79" width="0.7" height="21.9"/><path class="cls-15" d="M1213.18,830.77c.55,5.8,4.79,5.63,5.56,5.55l.67.66.14-.14-.68-.65C1218.93,835.41,1219,831.17,1213.18,830.77Z" transform="translate(0.5 -256.57)"/><path class="cls-15" d="M1225.81,830.77c-.55,5.8-4.79,5.63-5.56,5.55l-.67.66-.14-.14.68-.65C1220.05,835.41,1220,831.17,1225.81,830.77Z" transform="translate(0.5 -256.57)"/><path class="cls-15" d="M1213.18,836.52c.55,5.8,4.79,5.63,5.56,5.55l.67.65.14-.13-.68-.65C1218.93,841.16,1219,836.92,1213.18,836.52Z" transform="translate(0.5 -256.57)"/><path class="cls-15" d="M1225.81,836.52c-.55,5.8-4.79,5.63-5.56,5.55l-.67.65-.14-.13.68-.65C1220.05,841.16,1220,836.92,1225.81,836.52Z" transform="translate(0.5 -256.57)"/><ellipse class="cls-43" cx="1219.99" cy="564.69" rx="1.54" ry="2.73"/><ellipse class="cls-43" cx="1222.18" cy="822.37" rx="2.73" ry="1.54" transform="translate(-223.04 848.51) rotate(-45)"/><ellipse class="cls-43" cx="1223.78" cy="568.49" rx="2.73" ry="1.54"/><ellipse class="cls-43" cx="1222.18" cy="827.74" rx="1.54" ry="2.73" transform="translate(-226.83 850.08) rotate(-45)"/><ellipse class="cls-43" cx="1219.99" cy="572.29" rx="1.54" ry="2.73"/><ellipse class="cls-43" cx="1216.8" cy="827.74" rx="2.73" ry="1.54" transform="translate(-228.41 846.28) rotate(-45)"/><ellipse class="cls-43" cx="1216.2" cy="568.49" rx="2.73" ry="1.54"/><ellipse class="cls-43" cx="1216.81" cy="822.37" rx="1.54" ry="2.73" transform="translate(-224.61 844.71) rotate(-45)"/><circle class="cls-42" cx="1219.99" cy="568.49" r="1.82"/><rect class="cls-15" x="1223.39" y="606" width="0.43" height="13.45"/><path class="cls-15" d="M1219.23,865.28c.34,3.56,2.94,3.46,3.41,3.41l.42.4.08-.08-.42-.4C1222.76,868.13,1222.8,865.53,1219.23,865.28Z" transform="translate(0.5 -256.57)"/><path class="cls-15" d="M1227,865.28c-.34,3.56-2.94,3.46-3.41,3.41l-.41.4-.09-.08.42-.4C1223.45,868.13,1223.41,865.53,1227,865.28Z" transform="translate(0.5 -256.57)"/><path class="cls-15" d="M1219.23,868.81c.34,3.56,2.94,3.45,3.41,3.41l.42.4.08-.08-.42-.4C1222.76,871.66,1222.8,869.06,1219.23,868.81Z" transform="translate(0.5 -256.57)"/><path class="cls-15" d="M1227,868.81c-.34,3.56-2.94,3.45-3.41,3.41l-.41.4-.09-.08.42-.4C1223.45,871.66,1223.41,869.06,1227,868.81Z" transform="translate(0.5 -256.57)"/><ellipse class="cls-43" cx="1223.61" cy="602.87" rx="0.94" ry="1.68"/><ellipse class="cls-43" cx="1224.75" cy="860.12" rx="1.68" ry="0.94" transform="translate(-248.98 861.39) rotate(-45)"/><ellipse class="cls-43" cx="1225.93" cy="605.2" rx="1.68" ry="0.94"/><ellipse class="cls-43" cx="1224.75" cy="863.42" rx="0.94" ry="1.68" transform="translate(-251.31 862.36) rotate(-45)"/><ellipse class="cls-43" cx="1223.61" cy="607.54" rx="0.94" ry="1.68"/><ellipse class="cls-43" cx="1221.45" cy="863.42" rx="1.68" ry="0.94" transform="translate(-252.28 860.02) rotate(-45)"/><ellipse class="cls-43" cx="1221.27" cy="605.2" rx="1.68" ry="0.94"/><ellipse class="cls-43" cx="1221.46" cy="860.12" rx="0.94" ry="1.68" transform="translate(-249.94 859.06) rotate(-45)"/><circle class="cls-42" cx="1223.61" cy="605.2" r="1.12"/><rect class="cls-15" x="206.47" y="543.86" width="0.51" height="22.31"/><path class="cls-15" d="M208.14,804.38a3.4,3.4,0,0,0-1.47,3.1l-.45.44-.45-.44a3.38,3.38,0,0,0-1.47-3.1,1.28,1.28,0,0,0-1.76,1.81,3.42,3.42,0,0,0,3.14,1.39l.48.47.06-.06.06.06.48-.47a3.42,3.42,0,0,0,3.14-1.39A1.28,1.28,0,0,0,208.14,804.38Z" transform="translate(0.5 -256.57)"/><path class="cls-15" d="M208.14,808.5a3.4,3.4,0,0,0-1.47,3.1l-.45.44-.45-.44a3.38,3.38,0,0,0-1.47-3.1,1.28,1.28,0,0,0-1.76,1.81,3.42,3.42,0,0,0,3.14,1.39l.48.47.06-.06.06.06.48-.47a3.42,3.42,0,0,0,3.14-1.39A1.28,1.28,0,0,0,208.14,808.5Z" transform="translate(0.5 -256.57)"/><path class="cls-15" d="M208.14,812.32a3.4,3.4,0,0,0-1.47,3.1l-.45.43-.45-.43a3.37,3.37,0,0,0-1.47-3.1,1.28,1.28,0,0,0-1.76,1.81,3.42,3.42,0,0,0,3.14,1.39l.48.47.06-.06.06.06.48-.47a3.42,3.42,0,0,0,3.14-1.39A1.28,1.28,0,0,0,208.14,812.32Z" transform="translate(0.5 -256.57)"/><path class="cls-42" d="M207.32,796.41c0,1.3-.49,2.36-1.1,2.36s-1.1-1.06-1.1-2.36.49-1.17,1.1-1.17S207.32,795.1,207.32,796.41Z" transform="translate(0.5 -256.57)"/><path class="cls-42" d="M209.21,798.1c-.92.92-2,1.31-2.45.88s0-1.52.89-2.44,1.18-.48,1.61,0S210.13,797.18,209.21,798.1Z" transform="translate(0.5 -256.57)"/><path class="cls-42" d="M209.34,800.63c-1.3,0-2.36-.49-2.36-1.1s1.06-1.1,2.36-1.1,1.17.5,1.17,1.1S210.64,800.63,209.34,800.63Z" transform="translate(0.5 -256.57)"/><path class="cls-42" d="M207.65,802.51c-.92-.92-1.32-2-.89-2.44s1.53,0,2.45.89.48,1.17,0,1.6S208.57,803.44,207.65,802.51Z" transform="translate(0.5 -256.57)"/><path class="cls-42" d="M205.11,802.65c0-1.3.5-2.36,1.11-2.36s1.1,1.06,1.1,2.36-.5,1.17-1.1,1.17S205.11,804,205.11,802.65Z" transform="translate(0.5 -256.57)"/><path class="cls-42" d="M203.23,801c.92-.92,2-1.32,2.45-.89s0,1.52-.89,2.44-1.17.48-1.61,0S202.31,801.88,203.23,801Z" transform="translate(0.5 -256.57)"/><path class="cls-42" d="M203.09,798.43c1.31,0,2.36.49,2.36,1.1s-1,1.1-2.36,1.1-1.16-.5-1.16-1.1S201.79,798.43,203.09,798.43Z" transform="translate(0.5 -256.57)"/><path class="cls-42" d="M204.79,796.54c.92.92,1.32,2,.89,2.44s-1.53,0-2.45-.88-.48-1.18,0-1.61S203.87,795.62,204.79,796.54Z" transform="translate(0.5 -256.57)"/><circle class="cls-43" cx="206.72" cy="542.96" r="1.3"/><rect class="cls-15" x="309.11" y="606.42" width="0.51" height="22.31"/><path class="cls-15" d="M310.78,866.94a3.43,3.43,0,0,0-1.47,3.1l-.45.44-.44-.44a3.43,3.43,0,0,0-1.47-3.1,1.28,1.28,0,0,0-1.76,1.81,3.4,3.4,0,0,0,3.13,1.39l.49.47.05-.06.06.06.49-.47a3.37,3.37,0,0,0,3.13-1.39A1.28,1.28,0,0,0,310.78,866.94Z" transform="translate(0.5 -256.57)"/><path class="cls-15" d="M310.78,871.06a3.43,3.43,0,0,0-1.47,3.1l-.45.44-.44-.44a3.43,3.43,0,0,0-1.47-3.1,1.28,1.28,0,0,0-1.76,1.81,3.4,3.4,0,0,0,3.13,1.39l.49.47.05-.06.06.06.49-.47a3.37,3.37,0,0,0,3.13-1.39A1.28,1.28,0,0,0,310.78,871.06Z" transform="translate(0.5 -256.57)"/><path class="cls-15" d="M310.78,874.88a3.43,3.43,0,0,0-1.47,3.1l-.45.44-.44-.44a3.43,3.43,0,0,0-1.47-3.1,1.28,1.28,0,0,0-1.76,1.81,3.4,3.4,0,0,0,3.13,1.39l.49.47.05-.06.06.06.49-.47a3.4,3.4,0,0,0,3.13-1.39A1.28,1.28,0,0,0,310.78,874.88Z" transform="translate(0.5 -256.57)"/><path class="cls-42" d="M310,859c0,1.3-.49,2.36-1.1,2.36s-1.1-1.06-1.1-2.36.5-1.17,1.1-1.17S310,857.66,310,859Z" transform="translate(0.5 -256.57)"/><path class="cls-42" d="M311.85,860.66c-.92.92-2,1.32-2.44.89s0-1.53.88-2.45,1.18-.48,1.61-.05S312.77,859.74,311.85,860.66Z" transform="translate(0.5 -256.57)"/><path class="cls-42" d="M312,863.19c-1.31,0-2.37-.49-2.37-1.1s1.06-1.1,2.37-1.1,1.16.5,1.16,1.1S313.29,863.19,312,863.19Z" transform="translate(0.5 -256.57)"/><path class="cls-42" d="M310.29,865.08c-.92-.92-1.31-2-.88-2.45s1.52,0,2.44.89.48,1.17,0,1.6S311.21,866,310.29,865.08Z" transform="translate(0.5 -256.57)"/><path class="cls-42" d="M307.76,865.21c0-1.3.49-2.36,1.1-2.36s1.1,1.06,1.1,2.36-.49,1.17-1.1,1.17S307.76,866.52,307.76,865.21Z" transform="translate(0.5 -256.57)"/><path class="cls-42" d="M305.88,863.52c.92-.92,2-1.32,2.44-.89s0,1.53-.89,2.45-1.17.47-1.6,0S305,864.44,305.88,863.52Z" transform="translate(0.5 -256.57)"/><path class="cls-42" d="M305.74,861c1.3,0,2.36.49,2.36,1.1s-1.06,1.1-2.36,1.1-1.17-.5-1.17-1.1S304.44,861,305.74,861Z" transform="translate(0.5 -256.57)"/><path class="cls-42" d="M307.43,859.1c.92.92,1.32,2,.89,2.45s-1.52,0-2.44-.89-.48-1.18-.05-1.61S306.51,858.18,307.43,859.1Z" transform="translate(0.5 -256.57)"/><circle class="cls-43" cx="309.36" cy="605.52" r="1.3"/><rect class="cls-15" x="577.2" y="586.04" width="0.63" height="27.77"/><path class="cls-15" d="M579.4,847.52a4.25,4.25,0,0,0-1.83,3.86l-.55.54-.56-.54a4.25,4.25,0,0,0-1.83-3.86,1.6,1.6,0,0,0-2.19,2.25,4.24,4.24,0,0,0,3.9,1.73l.6.59L577,852l.07.08.6-.59a4.21,4.21,0,0,0,3.9-1.73A1.6,1.6,0,0,0,579.4,847.52Z" transform="translate(0.5 -256.57)"/><path class="cls-15" d="M579.4,852.65a4.25,4.25,0,0,0-1.83,3.86l-.55.54-.56-.54a4.24,4.24,0,0,0-1.83-3.86,1.6,1.6,0,0,0-2.19,2.25,4.24,4.24,0,0,0,3.9,1.73l.6.58.08-.07.07.07.6-.58a4.23,4.23,0,0,0,3.9-1.73A1.6,1.6,0,0,0,579.4,852.65Z" transform="translate(0.5 -256.57)"/><path class="cls-15" d="M579.4,857.4a4.25,4.25,0,0,0-1.83,3.86l-.55.54-.56-.54a4.24,4.24,0,0,0-1.83-3.86,1.6,1.6,0,0,0-2.19,2.25,4.24,4.24,0,0,0,3.9,1.73l.6.58.08-.07.07.07.6-.58a4.21,4.21,0,0,0,3.9-1.73A1.6,1.6,0,0,0,579.4,857.4Z" transform="translate(0.5 -256.57)"/><path class="cls-42" d="M578.39,837.6c0,1.62-.62,2.93-1.37,2.93s-1.37-1.31-1.37-2.93.61-1.45,1.37-1.45S578.39,836,578.39,837.6Z" transform="translate(0.5 -256.57)"/><path class="cls-42" d="M580.73,839.7c-1.14,1.15-2.5,1.64-3,1.11s0-1.9,1.11-3,1.46-.59,2-.06S581.88,838.56,580.73,839.7Z" transform="translate(0.5 -256.57)"/><path class="cls-42" d="M580.9,842.86c-1.62,0-2.94-.62-2.94-1.37s1.32-1.37,2.94-1.37,1.45.61,1.45,1.37S582.52,842.86,580.9,842.86Z" transform="translate(0.5 -256.57)"/><path class="cls-42" d="M578.8,845.2c-1.15-1.15-1.64-2.51-1.11-3s1.9,0,3,1.1.6,1.46.06,2S579.94,846.35,578.8,845.2Z" transform="translate(0.5 -256.57)"/><path class="cls-42" d="M575.64,845.37c0-1.62.62-2.94,1.37-2.94s1.37,1.32,1.37,2.94-.62,1.45-1.37,1.45S575.64,847,575.64,845.37Z" transform="translate(0.5 -256.57)"/><path class="cls-42" d="M573.3,843.26c1.14-1.14,2.51-1.64,3-1.1s0,1.89-1.1,3-1.47.59-2,.06S572.15,844.41,573.3,843.26Z" transform="translate(0.5 -256.57)"/><path class="cls-42" d="M573.13,840.11c1.62,0,2.93.62,2.93,1.37s-1.31,1.37-2.93,1.37-1.45-.61-1.45-1.37S571.51,840.11,573.13,840.11Z" transform="translate(0.5 -256.57)"/><path class="cls-42" d="M575.24,837.76c1.14,1.15,1.64,2.51,1.1,3s-1.9,0-3-1.11-.6-1.46-.06-2S574.09,836.62,575.24,837.76Z" transform="translate(0.5 -256.57)"/><circle class="cls-43" cx="577.52" cy="584.91" r="1.62"/><rect class="cls-15" x="134.47" y="579.33" width="0.31" height="13.86"/><path class="cls-15" d="M135.33,838.36a2.1,2.1,0,0,0-.92,1.92l-.28.27-.27-.27a2.1,2.1,0,0,0-.92-1.92.79.79,0,0,0-1.09,1.12,2.1,2.1,0,0,0,2,.86l.3.29,0,0,0,0,.3-.29a2.1,2.1,0,0,0,1.95-.86A.79.79,0,0,0,135.33,838.36Z" transform="translate(0.5 -256.57)"/><path class="cls-15" d="M135.33,840.91a2.12,2.12,0,0,0-.92,1.93l-.28.27-.27-.27a2.12,2.12,0,0,0-.92-1.93.8.8,0,0,0-1.09,1.13,2.12,2.12,0,0,0,2,.86l.3.29,0,0,0,0,.3-.29a2.12,2.12,0,0,0,1.95-.86A.8.8,0,0,0,135.33,840.91Z" transform="translate(0.5 -256.57)"/><path class="cls-15" d="M135.33,843.29a2.1,2.1,0,0,0-.92,1.92l-.28.27-.27-.27a2.1,2.1,0,0,0-.92-1.92.79.79,0,0,0-1.09,1.12,2.1,2.1,0,0,0,2,.86l.3.29,0,0,0,0,.3-.29a2.1,2.1,0,0,0,1.95-.86A.79.79,0,0,0,135.33,843.29Z" transform="translate(0.5 -256.57)"/><path class="cls-42" d="M134.82,833.4c0,.81-.31,1.47-.69,1.47s-.68-.66-.68-1.47.31-.72.68-.72S134.82,832.59,134.82,833.4Z" transform="translate(0.5 -256.57)"/><path class="cls-42" d="M136,834.45c-.57.57-1.25.82-1.52.55s0-.94.55-1.52.73-.29,1,0S136.56,833.88,136,834.45Z" transform="translate(0.5 -256.57)"/><path class="cls-42" d="M136.07,836c-.81,0-1.46-.31-1.46-.69s.65-.68,1.46-.68.72.31.72.68S136.88,836,136.07,836Z" transform="translate(0.5 -256.57)"/><path class="cls-42" d="M135,837.2c-.57-.58-.82-1.26-.55-1.52s.95,0,1.52.55.3.73,0,1S135.59,837.77,135,837.2Z" transform="translate(0.5 -256.57)"/><path class="cls-42" d="M133.45,837.28c0-.81.3-1.46.68-1.46s.68.65.68,1.46-.3.72-.68.72S133.45,838.09,133.45,837.28Z" transform="translate(0.5 -256.57)"/><path class="cls-42" d="M132.28,836.23c.57-.57,1.25-.82,1.52-.55s0,.94-.56,1.52-.72.29-1,0S131.7,836.8,132.28,836.23Z" transform="translate(0.5 -256.57)"/><path class="cls-42" d="M132.19,834.66c.81,0,1.47.3,1.47.68s-.66.68-1.47.68-.72-.3-.72-.68S131.38,834.66,132.19,834.66Z" transform="translate(0.5 -256.57)"/><path class="cls-42" d="M133.24,833.48c.58.58.82,1.26.56,1.52s-1,0-1.52-.55-.3-.73,0-1S132.67,832.91,133.24,833.48Z" transform="translate(0.5 -256.57)"/><circle class="cls-43" cx="134.63" cy="578.77" r="0.81"/><rect class="cls-15" x="139.21" y="551.84" width="0.31" height="13.86"/><path class="cls-15" d="M140.06,810.86a2.11,2.11,0,0,0-.92,1.92l-.28.27-.27-.27a2.11,2.11,0,0,0-.92-1.92.79.79,0,0,0-1.09,1.12,2.14,2.14,0,0,0,1.95.87l.3.29,0,0,0,0,.3-.29a2.14,2.14,0,0,0,2-.87A.79.79,0,0,0,140.06,810.86Z" transform="translate(0.5 -256.57)"/><path class="cls-15" d="M140.06,813.42a2.1,2.1,0,0,0-.92,1.92l-.28.27-.27-.27a2.1,2.1,0,0,0-.92-1.92.79.79,0,0,0-1.09,1.12,2.1,2.1,0,0,0,1.95.86l.3.3,0,0,0,0,.3-.3a2.1,2.1,0,0,0,2-.86A.79.79,0,0,0,140.06,813.42Z" transform="translate(0.5 -256.57)"/><path class="cls-15" d="M140.06,815.79a2.11,2.11,0,0,0-.92,1.92l-.28.27-.27-.27a2.11,2.11,0,0,0-.92-1.92.79.79,0,0,0-1.09,1.12,2.14,2.14,0,0,0,1.95.87l.3.29,0,0,0,0,.3-.29a2.14,2.14,0,0,0,2-.87A.79.79,0,0,0,140.06,815.79Z" transform="translate(0.5 -256.57)"/><path class="cls-42" d="M139.55,805.9c0,.81-.31,1.47-.69,1.47s-.68-.66-.68-1.47.31-.72.68-.72S139.55,805.1,139.55,805.9Z" transform="translate(0.5 -256.57)"/><path class="cls-42" d="M140.72,807c-.57.58-1.25.82-1.52.56s0-1,.55-1.52.73-.3,1,0S141.29,806.38,140.72,807Z" transform="translate(0.5 -256.57)"/><path class="cls-42" d="M140.8,808.53c-.81,0-1.46-.31-1.46-.68s.65-.69,1.46-.69.73.31.73.69S141.61,808.53,140.8,808.53Z" transform="translate(0.5 -256.57)"/><path class="cls-42" d="M139.75,809.7c-.57-.57-.82-1.25-.55-1.52s1,0,1.52.55.3.73,0,1S140.32,810.27,139.75,809.7Z" transform="translate(0.5 -256.57)"/><path class="cls-42" d="M138.18,809.78c0-.8.3-1.46.68-1.46s.68.66.68,1.46-.3.73-.68.73S138.18,810.59,138.18,809.78Z" transform="translate(0.5 -256.57)"/><path class="cls-42" d="M137,808.73c.57-.57,1.25-.82,1.52-.55s0,1-.55,1.52-.73.3-1,0S136.43,809.3,137,808.73Z" transform="translate(0.5 -256.57)"/><path class="cls-42" d="M136.92,807.16c.81,0,1.47.31,1.47.68s-.66.69-1.47.69-.72-.31-.72-.69S136.11,807.16,136.92,807.16Z" transform="translate(0.5 -256.57)"/><path class="cls-42" d="M138,806c.57.57.81,1.25.55,1.52s-.95,0-1.52-.56-.3-.73,0-1S137.4,805.42,138,806Z" transform="translate(0.5 -256.57)"/><circle class="cls-43" cx="139.36" cy="551.28" r="0.81"/><rect class="cls-15" x="143.53" y="571.56" width="0.51" height="16"/><path class="cls-15" d="M138.68,831.35c.4,4.23,3.49,4.11,4.06,4.06l.49.47.1-.1-.5-.47C142.88,834.74,142.92,831.64,138.68,831.35Z" transform="translate(0.5 -256.57)"/><path class="cls-15" d="M147.9,831.35c-.4,4.23-3.49,4.11-4.06,4.06l-.49.47-.1-.1.49-.47C143.7,834.74,143.65,831.64,147.9,831.35Z" transform="translate(0.5 -256.57)"/><path class="cls-15" d="M138.68,835.55c.4,4.23,3.49,4.11,4.06,4.06l.49.47.1-.1-.5-.47C142.88,838.94,142.92,835.84,138.68,835.55Z" transform="translate(0.5 -256.57)"/><path class="cls-15" d="M147.9,835.55c-.4,4.23-3.49,4.11-4.06,4.06l-.49.47-.1-.1.49-.47C143.7,838.94,143.65,835.84,147.9,835.55Z" transform="translate(0.5 -256.57)"/><ellipse class="cls-43" cx="143.79" cy="567.83" rx="1.12" ry="1.99"/><ellipse class="cls-43" cx="145.25" cy="825.21" rx="1.99" ry="1.12" transform="translate(-540.47 87.84) rotate(-45)"/><ellipse class="cls-43" cx="146.56" cy="570.61" rx="1.99" ry="1.12"/><ellipse class="cls-43" cx="145.25" cy="829.14" rx="1.12" ry="1.99" transform="translate(-543.24 88.99) rotate(-45)"/><ellipse class="cls-43" cx="143.79" cy="573.38" rx="1.12" ry="1.99"/><ellipse class="cls-43" cx="141.32" cy="829.14" rx="1.99" ry="1.12" transform="translate(-544.4 86.21) rotate(-45)"/><ellipse class="cls-43" cx="141.02" cy="570.61" rx="1.99" ry="1.12"/><ellipse class="cls-43" cx="141.33" cy="825.21" rx="1.12" ry="1.99" transform="translate(-541.62 85.06) rotate(-45)"/><circle class="cls-42" cx="143.79" cy="570.61" r="1.33"/><rect class="cls-15" x="280.72" y="509.76" width="0.51" height="16"/><path class="cls-15" d="M275.87,769.56c.4,4.23,3.49,4.1,4.06,4.05l.49.48.1-.1-.5-.48C280.07,772.94,280.11,769.85,275.87,769.56Z" transform="translate(0.5 -256.57)"/><path class="cls-15" d="M285.09,769.56c-.4,4.23-3.49,4.1-4.06,4.05l-.49.48-.1-.1.5-.48C280.89,772.94,280.84,769.85,285.09,769.56Z" transform="translate(0.5 -256.57)"/><path class="cls-15" d="M275.87,773.76c.4,4.23,3.49,4.1,4.06,4l.49.48.1-.1-.5-.48C280.07,777.14,280.11,774.05,275.87,773.76Z" transform="translate(0.5 -256.57)"/><path class="cls-15" d="M285.09,773.76c-.4,4.23-3.49,4.1-4.06,4l-.49.48-.1-.1.5-.48C280.89,777.14,280.84,774.05,285.09,773.76Z" transform="translate(0.5 -256.57)"/><ellipse class="cls-43" cx="280.98" cy="506.04" rx="1.12" ry="1.99"/><ellipse class="cls-43" cx="282.44" cy="763.42" rx="1.99" ry="1.12" transform="translate(-456.59 166.75) rotate(-45)"/><ellipse class="cls-43" cx="283.75" cy="508.81" rx="1.99" ry="1.12"/><ellipse class="cls-43" cx="282.44" cy="767.34" rx="1.12" ry="1.99" transform="translate(-459.37 167.9) rotate(-45)"/><ellipse class="cls-43" cx="280.98" cy="511.59" rx="1.12" ry="1.99"/><ellipse class="cls-43" cx="278.51" cy="767.34" rx="1.99" ry="1.12" transform="translate(-460.52 165.12) rotate(-45)"/><ellipse class="cls-43" cx="278.21" cy="508.81" rx="1.99" ry="1.12"/><ellipse class="cls-43" cx="278.52" cy="763.42" rx="1.12" ry="1.99" transform="translate(-457.74 163.97) rotate(-45)"/><circle class="cls-42" cx="280.98" cy="508.81" r="1.33"/><rect class="cls-15" x="320.9" y="600.12" width="0.63" height="19.49"/><path class="cls-15" d="M315.1,860.62c.49,5.15,4.26,5,4.95,4.94l.6.58.12-.12-.6-.58C320.22,864.75,320.27,861,315.1,860.62Z" transform="translate(0.5 -256.57)"/><path class="cls-15" d="M326.33,860.62c-.48,5.15-4.25,5-4.94,4.94l-.6.58-.12-.12.6-.58C321.21,864.75,321.16,861,326.33,860.62Z" transform="translate(0.5 -256.57)"/><path class="cls-15" d="M315.1,865.73c.49,5.16,4.26,5,4.95,4.94l.6.58.12-.12-.6-.58C320.22,869.86,320.27,866.09,315.1,865.73Z" transform="translate(0.5 -256.57)"/><path class="cls-15" d="M326.33,865.73c-.48,5.16-4.25,5-4.94,4.94l-.6.58-.12-.12.6-.58C321.21,869.86,321.16,866.09,326.33,865.73Z" transform="translate(0.5 -256.57)"/><ellipse class="cls-43" cx="321.22" cy="595.59" rx="1.37" ry="2.43"/><ellipse class="cls-43" cx="323.1" cy="853.14" rx="2.43" ry="1.37" transform="translate(-508.13 221.78) rotate(-45)"/><ellipse class="cls-43" cx="324.59" cy="598.97" rx="2.43" ry="1.37"/><ellipse class="cls-43" cx="323.11" cy="857.92" rx="1.37" ry="2.43" transform="translate(-511.51 223.18) rotate(-45)"/><ellipse class="cls-43" cx="321.22" cy="602.34" rx="1.37" ry="2.43"/><ellipse class="cls-43" cx="318.33" cy="857.92" rx="2.43" ry="1.37" transform="translate(-512.91 219.8) rotate(-45)"/><ellipse class="cls-43" cx="317.84" cy="598.97" rx="2.43" ry="1.37"/><ellipse class="cls-43" cx="318.33" cy="853.14" rx="1.37" ry="2.43" transform="translate(-509.53 218.4) rotate(-45)"/><circle class="cls-42" cx="321.22" cy="598.97" r="1.62"/><rect class="cls-15" x="348.32" y="616" width="0.41" height="12.72"/><path class="cls-15" d="M344.36,875.14c.32,3.36,2.78,3.27,3.22,3.22l.4.38.07-.08-.39-.38C347.7,877.83,347.73,875.37,344.36,875.14Z" transform="translate(0.5 -256.57)"/><path class="cls-15" d="M351.69,875.14c-.32,3.36-2.78,3.27-3.23,3.22l-.39.38-.08-.08.4-.38C348.35,877.83,348.31,875.37,351.69,875.14Z" transform="translate(0.5 -256.57)"/><path class="cls-15" d="M344.36,878.48c.32,3.36,2.78,3.26,3.22,3.22l.4.38.07-.08-.39-.38C347.7,881.17,347.73,878.71,344.36,878.48Z" transform="translate(0.5 -256.57)"/><path class="cls-15" d="M351.69,878.48c-.32,3.36-2.78,3.26-3.23,3.22l-.39.38L348,882l.4-.38C348.35,881.17,348.31,878.71,351.69,878.48Z" transform="translate(0.5 -256.57)"/><ellipse class="cls-43" cx="348.52" cy="613.05" rx="0.89" ry="1.59"/><ellipse class="cls-43" cx="349.58" cy="870.26" rx="1.59" ry="0.89" transform="translate(-512.48 245.52) rotate(-45)"/><ellipse class="cls-43" cx="350.73" cy="615.25" rx="1.59" ry="0.89"/><ellipse class="cls-43" cx="349.58" cy="873.38" rx="0.89" ry="1.59" transform="translate(-514.68 246.43) rotate(-45)"/><ellipse class="cls-43" cx="348.52" cy="617.46" rx="0.89" ry="1.59"/><ellipse class="cls-43" cx="346.46" cy="873.38" rx="1.59" ry="0.89" transform="translate(-515.6 244.22) rotate(-45)"/><ellipse class="cls-43" cx="346.32" cy="615.25" rx="1.59" ry="0.89"/><ellipse class="cls-43" cx="346.46" cy="870.26" rx="0.89" ry="1.59" transform="translate(-513.39 243.31) rotate(-45)"/><circle class="cls-42" cx="348.52" cy="615.25" r="1.06"/><rect class="cls-15" x="300" y="610.69" width="0.33" height="10.28"/><path class="cls-15" d="M296.7,869.33c.26,2.72,2.25,2.64,2.61,2.6l.32.31.06-.06-.32-.31C299.4,871.5,299.43,869.52,296.7,869.33Z" transform="translate(0.5 -256.57)"/><path class="cls-15" d="M302.63,869.33c-.26,2.72-2.25,2.64-2.61,2.6l-.32.31-.06-.06.32-.31C299.93,871.5,299.9,869.52,302.63,869.33Z" transform="translate(0.5 -256.57)"/><path class="cls-15" d="M296.7,872c.26,2.71,2.25,2.63,2.61,2.6l.32.31.06-.07-.32-.3C299.4,874.2,299.43,872.21,296.7,872Z" transform="translate(0.5 -256.57)"/><path class="cls-15" d="M302.63,872c-.26,2.71-2.25,2.63-2.61,2.6l-.32.31-.06-.07.32-.3C299.93,874.2,299.9,872.21,302.63,872Z" transform="translate(0.5 -256.57)"/><ellipse class="cls-43" cx="300.16" cy="608.29" rx="0.72" ry="1.28"/><ellipse class="cls-43" cx="300.92" cy="865.38" rx="1.28" ry="0.72" transform="translate(-523.28 209.68) rotate(-45)"/><ellipse class="cls-43" cx="301.94" cy="610.08" rx="1.28" ry="0.72"/><ellipse class="cls-43" cx="300.93" cy="867.9" rx="0.72" ry="1.28" transform="translate(-525.06 210.42) rotate(-45)"/><ellipse class="cls-43" cx="300.16" cy="611.86" rx="0.72" ry="1.28"/><ellipse class="cls-43" cx="298.4" cy="867.9" rx="1.28" ry="0.72" transform="translate(-525.8 208.64) rotate(-45)"/><ellipse class="cls-43" cx="298.38" cy="610.08" rx="1.28" ry="0.72"/><ellipse class="cls-43" cx="298.4" cy="865.38" rx="0.72" ry="1.28" transform="translate(-524.02 207.9) rotate(-45)"/><circle class="cls-42" cx="300.16" cy="610.08" r="0.85"/><circle class="cls-15" cx="681.91" cy="424.69" r="24.89"/><circle class="cls-16" cx="711.46" cy="444.4" r="19.71"/><circle class="cls-16" cx="650.56" cy="460.63" r="19.71"/><path class="cls-17" d="M710.54,702.57h0a2.58,2.58,0,0,0-3.67,0l-22.08,22.07V686.18a3.39,3.39,0,0,0-3.38-3.38h0a3.38,3.38,0,0,0-3.37,3.38V740.7l-22.35-22.34A2.6,2.6,0,1,0,652,722l26,26v44.69h6.72V732l25.75-25.74A2.57,2.57,0,0,0,710.54,702.57Z" transform="translate(0.5 -256.57)"/><rect class="cls-15" x="1471.26" y="610.2" width="0.43" height="19.01"/><path class="cls-15" d="M1472.61,870.13a2.93,2.93,0,0,0-1.26,2.64l-.38.37-.38-.37a2.88,2.88,0,0,0-1.25-2.64,1.09,1.09,0,0,0-1.5,1.54,2.9,2.9,0,0,0,2.67,1.18l.41.4,0,0,0,0,.41-.4a2.91,2.91,0,0,0,2.68-1.18A1.09,1.09,0,0,0,1472.61,870.13Z" transform="translate(0.5 -256.57)"/><path class="cls-15" d="M1472.61,873.64a2.93,2.93,0,0,0-1.26,2.64l-.38.37-.38-.37a2.88,2.88,0,0,0-1.25-2.64,1.09,1.09,0,0,0-1.5,1.54,2.9,2.9,0,0,0,2.67,1.18l.41.4,0,0,0,0,.41-.4a2.91,2.91,0,0,0,2.68-1.18A1.09,1.09,0,0,0,1472.61,873.64Z" transform="translate(0.5 -256.57)"/><path class="cls-15" d="M1472.61,876.89a2.93,2.93,0,0,0-1.26,2.64l-.38.37-.38-.37a2.88,2.88,0,0,0-1.25-2.64,1.09,1.09,0,0,0-1.5,1.54,2.92,2.92,0,0,0,2.67,1.19l.41.39,0,0,0,0,.41-.39a2.93,2.93,0,0,0,2.68-1.19A1.09,1.09,0,0,0,1472.61,876.89Z" transform="translate(0.5 -256.57)"/><path class="cls-42" d="M1471.91,863.34c0,1.1-.42,2-.94,2s-.93-.91-.93-2,.42-1,.93-1S1471.91,862.23,1471.91,863.34Z" transform="translate(0.5 -256.57)"/><path class="cls-42" d="M1473.52,864.78c-.79.78-1.72,1.12-2.09.75s0-1.3.76-2.08,1-.41,1.37,0S1474.3,864,1473.52,864.78Z" transform="translate(0.5 -256.57)"/><path class="cls-42" d="M1473.63,866.94c-1.11,0-2-.43-2-.94s.9-.94,2-.94,1,.42,1,.94S1474.74,866.94,1473.63,866.94Z" transform="translate(0.5 -256.57)"/><path class="cls-42" d="M1472.19,868.54c-.78-.78-1.12-1.72-.76-2.08s1.3,0,2.09.75.41,1,0,1.37S1473,869.33,1472.19,868.54Z" transform="translate(0.5 -256.57)"/><path class="cls-42" d="M1470,868.66c0-1.11.42-2,.94-2s.94.9.94,2-.43,1-.94,1S1470,869.77,1470,868.66Z" transform="translate(0.5 -256.57)"/><path class="cls-42" d="M1468.43,867.21c.78-.78,1.71-1.12,2.08-.75s0,1.3-.76,2.08-1,.41-1.36,0S1467.64,868,1468.43,867.21Z" transform="translate(0.5 -256.57)"/><path class="cls-42" d="M1468.31,865.06c1.11,0,2,.42,2,.93s-.9.94-2,.94-1-.42-1-.94S1467.2,865.06,1468.31,865.06Z" transform="translate(0.5 -256.57)"/><path class="cls-42" d="M1469.75,863.45c.79.78,1.13,1.71.76,2.08s-1.3,0-2.08-.75-.41-1,0-1.37S1469,862.66,1469.75,863.45Z" transform="translate(0.5 -256.57)"/><circle class="cls-43" cx="1471.47" cy="609.43" r="1.11"/><rect class="cls-15" x="1447.6" y="595.44" width="0.57" height="25.25"/><path class="cls-15" d="M1449.56,856.48a3.85,3.85,0,0,0-1.67,3.51l-.5.49-.51-.49a3.85,3.85,0,0,0-1.67-3.51,1.45,1.45,0,0,0-2,2,3.89,3.89,0,0,0,3.55,1.58l.55.53.07-.07.06.07.55-.53a3.86,3.86,0,0,0,3.55-1.58A1.45,1.45,0,0,0,1449.56,856.48Z" transform="translate(0.5 -256.57)"/><path class="cls-15" d="M1449.56,861.14a3.86,3.86,0,0,0-1.67,3.51l-.5.49-.51-.49a3.86,3.86,0,0,0-1.67-3.51,1.45,1.45,0,0,0-2,2.05,3.9,3.9,0,0,0,3.55,1.57l.55.53.07-.06.06.06.55-.53a3.87,3.87,0,0,0,3.55-1.57A1.45,1.45,0,0,0,1449.56,861.14Z" transform="translate(0.5 -256.57)"/><path class="cls-15" d="M1449.56,865.46a3.86,3.86,0,0,0-1.67,3.51l-.5.49-.51-.49a3.86,3.86,0,0,0-1.67-3.51,1.45,1.45,0,0,0-2,2,3.9,3.9,0,0,0,3.55,1.57l.55.53.07-.06.06.06.55-.53a3.87,3.87,0,0,0,3.55-1.57A1.45,1.45,0,0,0,1449.56,865.46Z" transform="translate(0.5 -256.57)"/><path class="cls-42" d="M1448.63,847.45c0,1.48-.56,2.68-1.24,2.68s-1.25-1.2-1.25-2.68.56-1.31,1.25-1.31S1448.63,846,1448.63,847.45Z" transform="translate(0.5 -256.57)"/><path class="cls-42" d="M1450.77,849.37c-1,1-2.28,1.49-2.77,1s0-1.72,1-2.77,1.33-.54,1.82-.05S1451.81,848.33,1450.77,849.37Z" transform="translate(0.5 -256.57)"/><path class="cls-42" d="M1450.92,852.24c-1.48,0-2.67-.56-2.67-1.25s1.19-1.24,2.67-1.24,1.31.56,1.31,1.24S1452.39,852.24,1450.92,852.24Z" transform="translate(0.5 -256.57)"/><path class="cls-42" d="M1449,854.37c-1-1-1.49-2.28-1-2.77s1.73,0,2.77,1,.54,1.33,0,1.82S1450,855.41,1449,854.37Z" transform="translate(0.5 -256.57)"/><path class="cls-42" d="M1446.13,854.52c0-1.47.56-2.67,1.25-2.67s1.24,1.2,1.24,2.67-.56,1.32-1.24,1.32S1446.13,856,1446.13,854.52Z" transform="translate(0.5 -256.57)"/><path class="cls-42" d="M1444,852.6c1-1,2.28-1.49,2.77-1s0,1.73-1,2.77-1.33.54-1.82,0S1443,853.64,1444,852.6Z" transform="translate(0.5 -256.57)"/><path class="cls-42" d="M1443.85,849.74c1.47,0,2.67.56,2.67,1.25s-1.2,1.24-2.67,1.24-1.32-.56-1.32-1.24S1442.37,849.74,1443.85,849.74Z" transform="translate(0.5 -256.57)"/><path class="cls-42" d="M1445.77,847.6c1,1,1.49,2.28,1,2.77s-1.73,0-2.77-1-.54-1.33,0-1.82S1444.72,846.56,1445.77,847.6Z" transform="translate(0.5 -256.57)"/><circle class="cls-43" cx="1447.89" cy="594.42" r="1.47"/><rect class="cls-15" x="1480.7" y="590.09" width="0.7" height="21.9"/><path class="cls-15" d="M1474.25,851.07c.55,5.8,4.78,5.63,5.55,5.55l.68.65.13-.13-.67-.65C1480,855.71,1480.05,851.47,1474.25,851.07Z" transform="translate(0.5 -256.57)"/><path class="cls-15" d="M1486.87,851.07c-.55,5.8-4.78,5.63-5.55,5.55l-.68.65-.13-.13.67-.65C1481.12,855.71,1481.06,851.47,1486.87,851.07Z" transform="translate(0.5 -256.57)"/><path class="cls-15" d="M1474.25,856.82c.55,5.8,4.78,5.62,5.55,5.55l.68.65.13-.13-.67-.65C1480,861.46,1480.05,857.22,1474.25,856.82Z" transform="translate(0.5 -256.57)"/><path class="cls-15" d="M1486.87,856.82c-.55,5.8-4.78,5.62-5.55,5.55l-.68.65-.13-.13.67-.65C1481.12,861.46,1481.06,857.22,1486.87,856.82Z" transform="translate(0.5 -256.57)"/><ellipse class="cls-43" cx="1481.06" cy="584.99" rx="1.54" ry="2.73"/><ellipse class="cls-43" cx="1483.24" cy="842.67" rx="2.73" ry="1.54" transform="translate(-160.93 1039.05) rotate(-45)"/><ellipse class="cls-43" cx="1484.85" cy="588.79" rx="2.73" ry="1.54"/><ellipse class="cls-43" cx="1483.24" cy="848.04" rx="1.54" ry="2.73" transform="translate(-164.72 1040.63) rotate(-45)"/><ellipse class="cls-43" cx="1481.06" cy="592.59" rx="1.54" ry="2.73"/><ellipse class="cls-43" cx="1477.87" cy="848.04" rx="2.73" ry="1.54" transform="translate(-166.3 1036.83) rotate(-45)"/><ellipse class="cls-43" cx="1477.26" cy="588.79" rx="2.73" ry="1.54"/><ellipse class="cls-43" cx="1477.87" cy="842.67" rx="1.54" ry="2.73" transform="translate(-162.5 1035.26) rotate(-45)"/><circle class="cls-42" cx="1481.06" cy="588.79" r="1.82"/><rect class="cls-15" x="1458.53" y="624.09" width="0.7" height="21.9"/><path class="cls-15" d="M1452.07,885.08c.55,5.79,4.79,5.62,5.56,5.54l.67.66.14-.14-.68-.65C1457.82,889.71,1457.88,885.48,1452.07,885.08Z" transform="translate(0.5 -256.57)"/><path class="cls-15" d="M1464.7,885.08c-.55,5.79-4.79,5.62-5.56,5.54l-.67.66-.14-.14.68-.65C1458.94,889.71,1458.88,885.48,1464.7,885.08Z" transform="translate(0.5 -256.57)"/><path class="cls-15" d="M1452.07,890.82c.55,5.8,4.79,5.63,5.56,5.55l.67.66.14-.14-.68-.65C1457.82,895.46,1457.88,891.22,1452.07,890.82Z" transform="translate(0.5 -256.57)"/><path class="cls-15" d="M1464.7,890.82c-.55,5.8-4.79,5.63-5.56,5.55l-.67.66-.14-.14.68-.65C1458.94,895.46,1458.88,891.22,1464.7,890.82Z" transform="translate(0.5 -256.57)"/><ellipse class="cls-43" cx="1458.88" cy="618.99" rx="1.54" ry="2.73"/><ellipse class="cls-43" cx="1461.06" cy="876.67" rx="2.73" ry="1.54" transform="translate(-191.46 1033.33) rotate(-45)"/><ellipse class="cls-43" cx="1462.67" cy="622.79" rx="2.73" ry="1.54"/><ellipse class="cls-43" cx="1461.07" cy="882.04" rx="1.54" ry="2.73" transform="translate(-195.26 1034.91) rotate(-45)"/><ellipse class="cls-43" cx="1458.88" cy="626.59" rx="1.54" ry="2.73"/><ellipse class="cls-43" cx="1455.69" cy="882.04" rx="2.73" ry="1.54" transform="translate(-196.84 1031.11) rotate(-45)"/><ellipse class="cls-43" cx="1455.09" cy="622.79" rx="2.73" ry="1.54"/><ellipse class="cls-43" cx="1455.7" cy="876.67" rx="1.54" ry="2.73" transform="translate(-193.04 1029.54) rotate(-45)"/><circle class="cls-42" cx="1458.88" cy="622.79" r="1.82"/><rect class="cls-15" x="1484.45" y="626.3" width="0.43" height="13.45"/><path class="cls-15" d="M1480.29,885.58c.34,3.56,2.94,3.45,3.42,3.41l.41.4.08-.08-.41-.4C1483.82,888.43,1483.86,885.83,1480.29,885.58Z" transform="translate(0.5 -256.57)"/><path class="cls-15" d="M1488.05,885.58c-.34,3.56-2.94,3.45-3.42,3.41l-.41.4-.08-.08.41-.4C1484.51,888.43,1484.48,885.83,1488.05,885.58Z" transform="translate(0.5 -256.57)"/><path class="cls-15" d="M1480.29,889.11c.34,3.56,2.94,3.45,3.42,3.41l.41.4.08-.08-.41-.4C1483.82,892,1483.86,889.36,1480.29,889.11Z" transform="translate(0.5 -256.57)"/><path class="cls-15" d="M1488.05,889.11c-.34,3.56-2.94,3.45-3.42,3.41l-.41.4-.08-.08.41-.4C1484.51,892,1484.48,889.36,1488.05,889.11Z" transform="translate(0.5 -256.57)"/><ellipse class="cls-43" cx="1484.67" cy="623.17" rx="0.94" ry="1.68"/><ellipse class="cls-43" cx="1485.82" cy="880.42" rx="1.68" ry="0.94" transform="translate(-186.87 1051.93) rotate(-45)"/><ellipse class="cls-43" cx="1487" cy="625.5" rx="1.68" ry="0.94"/><ellipse class="cls-43" cx="1485.82" cy="883.72" rx="0.94" ry="1.68" transform="translate(-189.2 1052.9) rotate(-45)"/><ellipse class="cls-43" cx="1484.67" cy="627.84" rx="0.94" ry="1.68"/><ellipse class="cls-43" cx="1482.52" cy="883.72" rx="1.68" ry="0.94" transform="translate(-190.17 1050.57) rotate(-45)"/><ellipse class="cls-43" cx="1482.34" cy="625.5" rx="1.68" ry="0.94"/><ellipse class="cls-43" cx="1482.52" cy="880.42" rx="0.94" ry="1.68" transform="translate(-187.83 1049.6) rotate(-45)"/><circle class="cls-42" cx="1484.67" cy="625.5" r="1.12"/><rect class="cls-15" x="1462.87" y="596.44" width="0.43" height="13.45"/><path class="cls-15" d="M1458.71,855.72c.34,3.56,2.94,3.45,3.41,3.41l.42.4.08-.08-.42-.41C1462.24,858.57,1462.28,856,1458.71,855.72Z" transform="translate(0.5 -256.57)"/><path class="cls-15" d="M1466.46,855.72c-.33,3.56-2.94,3.45-3.41,3.41l-.41.4-.09-.08.42-.41C1462.93,858.57,1462.89,856,1466.46,855.72Z" transform="translate(0.5 -256.57)"/><path class="cls-15" d="M1458.71,859.25c.34,3.56,2.94,3.45,3.41,3.41l.42.4.08-.09-.42-.4C1462.24,862.1,1462.28,859.5,1458.71,859.25Z" transform="translate(0.5 -256.57)"/><path class="cls-15" d="M1466.46,859.25c-.33,3.56-2.94,3.45-3.41,3.41l-.41.4-.09-.09.42-.4C1462.93,862.1,1462.89,859.5,1466.46,859.25Z" transform="translate(0.5 -256.57)"/><ellipse class="cls-43" cx="1463.09" cy="593.31" rx="0.94" ry="1.68"/><ellipse class="cls-43" cx="1464.23" cy="850.56" rx="1.68" ry="0.94" transform="translate(-172.07 1027.92) rotate(-45)"/><ellipse class="cls-43" cx="1465.41" cy="595.64" rx="1.68" ry="0.94"/><ellipse class="cls-43" cx="1464.24" cy="853.86" rx="0.94" ry="1.68" transform="translate(-174.4 1028.89) rotate(-45)"/><ellipse class="cls-43" cx="1463.09" cy="597.97" rx="0.94" ry="1.68"/><ellipse class="cls-43" cx="1460.93" cy="853.86" rx="1.68" ry="0.94" transform="translate(-175.37 1026.56) rotate(-45)"/><ellipse class="cls-43" cx="1460.75" cy="595.64" rx="1.68" ry="0.94"/><ellipse class="cls-43" cx="1460.94" cy="850.56" rx="0.94" ry="1.68" transform="translate(-173.04 1025.59) rotate(-45)"/><circle class="cls-42" cx="1463.09" cy="595.64" r="1.12"/><path class="cls-13" d="M1481.94,1057.89l9.14.76L1477.49,1080h50.57l-13.59-21.35,9.14-.76a.54.54,0,0,0,.41-.83l-12.26-19.25,4.74-.4a.54.54,0,0,0,.41-.83l-7.75-12.18,2.61-.28a.54.54,0,0,0,.4-.82l-9.17-14.92v-.17l-9.6,15.09a.53.53,0,0,0,.39.82l2.6.28-7.75,12.19a.53.53,0,0,0,.41.82l4.74.4-12.26,19.26A.53.53,0,0,0,1481.94,1057.89Z" transform="translate(0.5 -256.57)"/><path class="cls-13" d="M1697.66,1078.14,1720,1080h47.25l22.36-1.86a.8.8,0,0,0,.6-1.22l-27-42.41,15.49-1.29a.8.8,0,0,0,.61-1.22l-20.64-32.42,8.12-.67a.8.8,0,0,0,.6-1.22l-13.09-20.57,4.56-.48a.8.8,0,0,0,.59-1.21L1744,950.28V950l-16.17,25.41a.8.8,0,0,0,.59,1.23l4.51.48-13.07,20.55a.81.81,0,0,0,.61,1.24l8.09.67L1707.94,1032a.8.8,0,0,0,.61,1.23l15.48,1.29-27,42.4A.8.8,0,0,0,1697.66,1078.14Z" transform="translate(0.5 -256.57)"/><path class="cls-13" d="M1812.73,1052.78l13.56,1.13-16.6,26.09h68l-16.6-26.09,13.57-1.13a.8.8,0,0,0,.61-1.23L1857,1023l7-.59a.8.8,0,0,0,.61-1.22l-11.52-18.1,3.88-.41a.8.8,0,0,0,.6-1.22L1844,979.25V979l-14.26,22.4a.81.81,0,0,0,.6,1.23l3.85.41-11.51,18.09a.8.8,0,0,0,.61,1.23l7,.59-18.2,28.6A.8.8,0,0,0,1812.73,1052.78Z" transform="translate(0.5 -256.57)"/></g></svg>