<?xml version="1.0" encoding="utf-8"?>
<!-- Generator: Adobe Illustrator 23.0.1, SVG Export Plug-In . SVG Version: 6.00 Build 0)  -->
<svg version="1.1" id="Calque_1" xmlns="http://www.w3.org/2000/svg" xmlns:xlink="http://www.w3.org/1999/xlink" x="0px" y="0px"
	 viewBox="0 0 1920.5 823.9" style="enable-background:new 0 0 1920.5 823.9;" xml:space="preserve">
<style type="text/css">
	.st0{clip-path:url(#SVGID_2_);}
	.st1{fill:#9C7449;}
	.st2{clip-path:url(#SVGID_4_);}
	.st3{fill:none;stroke:#404041;stroke-width:0.57;stroke-linecap:round;stroke-linejoin:round;}
	.st4{fill:#B88858;}
	.st5{clip-path:url(#SVGID_6_);}
	.st6{fill:#B18350;}
	.st7{clip-path:url(#SVGID_8_);}
	.st8{clip-path:url(#SVGID_10_);}
	.st9{clip-path:url(#SVGID_12_);}
	.st10{fill:#9FB95D;}
	.st11{fill:#3D6725;}
	.st12{fill:#98B739;}
	.st13{fill:#4FBE97;}
	.st14{fill:#8ECC96;}
	.st15{fill:#F79560;}
	.st16{fill:#80931E;}
	.st17{fill:#8FA41A;}
	.st18{fill:#B8C634;}
	.st19{fill:#7FA31C;}
	.st20{fill:#C9D152;}
	.st21{fill:#BDC442;}
	.st22{fill:#F2D6A7;}
	.st23{fill:#CC403D;}
	.st24{fill:#BC2526;}
	.st25{fill:#966743;}
	.st26{fill:#32352E;stroke:#966743;stroke-width:1.4;stroke-miterlimit:10;}
	.st27{fill:none;stroke:#966743;stroke-width:0.7;stroke-miterlimit:10;}
	.st28{fill:#7C4E2F;}
	.st29{fill:#32352E;}
	.st30{fill:#EF4A3D;}
	.st31{fill:#140D11;}
	.st32{fill:#FBD0C8;}
	.st33{fill:#EF6F63;}
	.st34{fill:#130D10;}
	.st35{fill:#504052;}
	.st36{fill:#2A7E54;}
	.st37{fill:#0D3953;}
	.st38{fill:#00465A;}
	.st39{fill:#F7941E;}
	.st40{fill:#FFFCD5;}
</style>
<title>base2</title>
<g id="Motagnes_1er_plan">
	<g id="Montagne">
		<g>
			<defs>
				<path id="SVGID_1_" d="M1326.9,133.5L987.6,624.3h701.8l-339.3-490.8c-4.4-6.4-13.2-8-19.6-3.6
					C1329.1,130.9,1327.9,132.1,1326.9,133.5z"/>
			</defs>
			<clipPath id="SVGID_2_">
				<use xlink:href="#SVGID_1_"  style="overflow:visible;"/>
			</clipPath>
			<g class="st0">
				<path class="st1" d="M1326.9,133.5L987.6,624.3h701.8l-339.3-490.8c-4.4-6.4-13.2-8-19.6-3.6
					C1329.1,130.9,1327.9,132.1,1326.9,133.5z"/>
				<g>
					<defs>
						<path id="SVGID_3_" d="M1094.5,606.1c92.3-297.9,219-551.5,254.6-620.3c3.1-5.9,10.3-8.1,16.2-5.1c1.9,1,3.5,2.5,4.6,4.3
							c39.8,64.4,176.4,300.6,253.1,621.1H1094.5z"/>
					</defs>
					<clipPath id="SVGID_4_">
						<use xlink:href="#SVGID_3_"  style="overflow:visible;"/>
					</clipPath>
					<g class="st2">
						<path class="st3" d="M1369.2,495c-39.6,45.4-29-100.5-2.9-173.1s43.5,52.2,56.1-49.3s56.1-130.5,56.1-130.5l-21.3-19.3
							c0,0-90.9,119.9-94.8,90.9s-20.3,1-20.3,1s-61.9,224.3-87,196.3s-96.7,193.4-96.7,193.4l292,18.4
							C1450.4,622.6,1408.8,449.5,1369.2,495z M1670.4,502.6c-22.2-72.5-87-34.8-111.2-9.7c-13.5-72.5-33.8-75.4-62.8-109.2
							s30.9-29,22.2-109.3s30.9-88,3.9-118.9c-48.3,44.5-27.1,175-57,180.8s-29,89.9,8.7,92.8s29,147,29,147l16.4,33.8
							c0,0,137.3-5.8,146-6.8S1692.6,575.1,1670.4,502.6z M1241.6,354.8c41.6,33.8,8.7-195.3,8.7-195.3l-28,23.2
							c0,0,35.8,143.1,2.9,132.5s-79.3,55.1-79.3,55.1l-28,125.7C1117.9,496,1200,321,1241.6,354.8z"/>
					</g>
				</g>
				<path class="st4" d="M1226.2,239.8c8.4,8.4,17.8-13.1,28.1-7.5s-8.4,27.1,0.9,31.8s16.8-20.6,30.9-16.8s0,40.2,16.8,42.1
					s16.8-26.2,35.6-26.2h0.9c18.7,0,18.7,28.1,35.6,26.2s2.8-38.4,16.8-42.1s21.5,21.5,30.9,16.8s-9.4-26.2,0.9-31.8
					s19.7,15.9,28.1,7.5l-98.2-123.5h-30L1226.2,239.8z"/>
			</g>
		</g>
	</g>
	<g id="Montagne-2">
		<g>
			<defs>
				<path id="SVGID_5_" d="M892.1,47.8L529.5,572.4h750L916.9,47.8c-4.7-6.8-14-8.6-20.9-3.9C894.5,45,893.2,46.3,892.1,47.8z"/>
			</defs>
			<clipPath id="SVGID_6_">
				<use xlink:href="#SVGID_5_"  style="overflow:visible;"/>
			</clipPath>
			<g class="st5">
				<path class="st6" d="M892.1,47.8L529.5,572.4h750L916.9,47.8c-4.7-6.8-14-8.6-20.9-3.9C894.5,45,893.2,46.3,892.1,47.8z"/>
				<g>
					<defs>
						<path id="SVGID_7_" d="M613.2,653.4C715.3,250.8,855.5-91.9,895-184.8c4.7-11.2,17.6-11.8,23-1.1
							c44,87,195.3,406.2,280.1,839.3H613.2z"/>
					</defs>
					<clipPath id="SVGID_8_">
						<use xlink:href="#SVGID_7_"  style="overflow:visible;"/>
					</clipPath>
					<g class="st7">
						<path class="st3" d="M917.2,503.3c-43.9,61.4-32.1-135.8-3.2-233.8s48.2,70.5,62.1-66.6s62.1-176.4,62.1-176.4l-23.5-26.1
							c0,0-100.6,162-104.9,122.8s-22.5,1.3-22.5,1.3s-68.5,303.1-96.3,265.2s-107,261.3-107,261.3l323.2,24.8
							C1007.1,675.8,961.1,441.9,917.2,503.3z M1226.5,572.5c-24.6-98-96.3-47-123.1-13.1c-15-98-37.5-101.9-69.6-147.6
							s34.2-39.2,24.6-147.6s34.2-118.9,4.3-160.7c-53.5,60.1-30,236.5-63.1,244.3s-32.1,121.5,9.6,125.4s32.1,198.6,32.1,198.6
							l18.2,45.7c0,0,152-7.8,161.6-9.2S1251.1,670.5,1226.5,572.5z M775.9,313.8c46,45.7,9.6-263.9,9.6-263.9l-31,31.4
							c0,0,39.6,193.4,3.2,179S670,334.7,670,334.7l-31,169.8C639,504.6,729.9,268.1,775.9,313.8z"/>
					</g>
				</g>
				<path class="st1" d="M784.5,161.4c9,9,19-14,30-8s-9,29,1,34s18-22,33-18s0,43,18,45s18-28,38-28h1c20,0,20,30,38,28s3-41,18-45
					s23,23,33,18s-10-28,1-34s21,17,30,8l-105-132h-32L784.5,161.4z"/>
			</g>
		</g>
	</g>
	<g id="Montagne-3">
		<g>
			<defs>
				<path id="SVGID_9_" d="M536.5,193.2L266.8,583.3h557.7L554.9,193.2c-3.5-5.1-10.5-6.4-15.5-2.9
					C538.2,191.2,537.3,192.1,536.5,193.2z"/>
			</defs>
			<clipPath id="SVGID_10_">
				<use xlink:href="#SVGID_9_"  style="overflow:visible;"/>
			</clipPath>
			<g class="st8">
				<path class="st1" d="M536.5,193.2L266.8,583.3h557.7L554.9,193.2c-3.5-5.1-10.5-6.4-15.5-2.9
					C538.2,191.2,537.3,192.1,536.5,193.2z"/>
				<rect x="545.7" y="128.3" class="st1" width="414.2" height="548"/>
				<g>
					<defs>
						<path id="SVGID_11_" d="M301.6,616.4c81.9-272.8,194.5-505.1,226.1-568.1c2.5-5.2,8.8-7.4,14-4.9c1.9,0.9,3.5,2.4,4.5,4.2
							c35.3,59,156.7,275.3,224.8,568.8H301.6z"/>
					</defs>
					<clipPath id="SVGID_12_">
						<use xlink:href="#SVGID_11_"  style="overflow:visible;"/>
					</clipPath>
					<g class="st9">
						<path class="st3" d="M545.6,514.7c-35.2,41.6-25.8-92.1-2.6-158.5s38.6,47.8,49.8-45.2s49.8-119.5,49.8-119.5l-18.9-17.7
							c0,0-80.7,109.8-84.1,83.2s-18,0.9-18,0.9s-55,205.4-77.3,179.7s-85.9,177.1-85.9,177.1l259.3,16.8
							C617.7,631.5,580.8,473.1,545.6,514.7z M793.7,561.6c-19.8-66.4-77.3-31.9-98.8-8.8c-12-66.4-30-69.1-55.8-100
							s27.5-26.6,19.8-100s27.5-80.6,3.4-108.9c-42.9,40.7-24,160.2-50.7,165.6s-25.8,82.3,7.7,85s25.8,134.6,25.8,134.6l14.6,31
							c0,0,121.9-5.3,129.7-6.2S813.5,628,793.7,561.6z M432.2,386.3c36.9,31,7.7-178.8,7.7-178.8l-24.9,21.2
							c0,0,31.8,131,2.6,121.3s-70.4,50.4-70.4,50.4l-24.9,115.1C322.3,515.5,395.3,355.3,432.2,386.3z"/>
					</g>
				</g>
				<path class="st4" d="M456.5,277.7c6.7,6.7,14.1-10.4,22.3-6s-6.7,21.6,0.8,25.3s13.4-16.4,24.5-13.4s0,32,13.4,33.5
					c13.4,1.5,13.4-20.8,28.3-20.8h0.7c14.9,0,14.9,22.3,28.3,20.8s2.2-30.5,13.4-33.5s17.1,17.1,24.5,13.4s-7.4-20.8,0.7-25.3
					s15.6,12.7,22.3,6l-78.1-98.2h-23.8L456.5,277.7z"/>
			</g>
		</g>
	</g>
	<g id="Sapin">
		<path class="st10" d="M170.6,607.9v-87.1l-10.7,16.8c-0.2,0.2-0.1,0.6,0.2,0.7c0.1,0,0.1,0.1,0.2,0.1l3,0.3l-8.6,13.6
			c-0.2,0.2-0.1,0.6,0.2,0.7c0.1,0,0.2,0.1,0.2,0.1l5.3,0.5l-13.6,21.4c-0.2,0.2-0.1,0.6,0.2,0.7c0.1,0,0.2,0.1,0.2,0.1l10.2,0.8
			l-17.8,28c-0.2,0.2-0.1,0.6,0.2,0.7c0.1,0,0.2,0.1,0.2,0.1L170.6,607.9z"/>
		<path class="st11" d="M170.6,521v86.9l30.1-2.5c0.3,0,0.5-0.3,0.5-0.6c0-0.1,0-0.2-0.1-0.2l-17.8-28l10.2-0.8
			c0.3,0,0.5-0.3,0.5-0.6c0-0.1,0-0.2-0.1-0.2l-13.6-21.4l5.4-0.5c0.3,0,0.5-0.3,0.5-0.6c0-0.1,0-0.2-0.1-0.2l-8.6-13.6l3-0.3
			c0.3,0,0.5-0.3,0.5-0.6c0-0.1,0-0.2-0.1-0.2L170.6,521z"/>
	</g>
	<g id="Sapin-2">
		<path class="st10" d="M197.1,581.2v-63.8l-7.7,12.1c-0.2,0.2-0.1,0.6,0.2,0.7c0.1,0,0.2,0.1,0.2,0.1l1.9,0.2l-6.2,9.7
			c-0.2,0.2-0.1,0.6,0.1,0.7c0.1,0.1,0.2,0.1,0.3,0.1l3.7,0.3l-9.8,15.5c-0.2,0.2-0.1,0.6,0.2,0.7c0.1,0,0.2,0.1,0.2,0.1l7.2,0.6
			l-12.9,20.3c-0.2,0.2-0.1,0.6,0.2,0.7c0.1,0,0.2,0.1,0.2,0.1L197.1,581.2z"/>
		<path class="st11" d="M197.1,517.6v63.6l21.8-1.8c0.3,0,0.5-0.3,0.5-0.6c0-0.1,0-0.2-0.1-0.2l-12.9-20.3l7.2-0.6
			c0.3,0,0.5-0.3,0.5-0.6c0-0.1,0-0.2-0.1-0.3l-9.8-15.5l3.7-0.3c0.3,0,0.5-0.3,0.5-0.6c0-0.1,0-0.2-0.1-0.2l-6.2-9.7l2-0.2
			c0.3,0,0.5-0.3,0.5-0.6c0-0.1,0-0.2-0.1-0.2L197.1,517.6z"/>
	</g>
	<g id="Sapin-3">
		<path class="st12" d="M138.2,622.7v-77.2l-9.4,14.8c-0.2,0.2-0.1,0.6,0.2,0.7c0.1,0,0.1,0.1,0.2,0.1l2.5,0.3l-7.6,11.9
			c-0.2,0.2-0.1,0.6,0.1,0.7c0.1,0.1,0.2,0.1,0.3,0.1l4.6,0.4l-12,18.9c-0.2,0.2-0.1,0.6,0.2,0.7c0.1,0,0.2,0.1,0.2,0.1l9,0.8
			l-15.7,24.7c-0.2,0.2-0.1,0.6,0.1,0.7c0.1,0.1,0.2,0.1,0.3,0.1L138.2,622.7z"/>
		<path class="st11" d="M138.2,545.6v77l26.6-2.2c0.3,0,0.5-0.3,0.5-0.6c0-0.1,0-0.2-0.1-0.2l-15.7-24.7l8.9-0.8
			c0.3,0,0.5-0.3,0.5-0.6c0-0.1,0-0.2-0.1-0.2l-12-18.9l4.6-0.4c0.3,0,0.5-0.3,0.5-0.6c0-0.1,0-0.2-0.1-0.3l-7.6-11.9l2.6-0.3
			c0.3,0,0.5-0.3,0.5-0.6c0-0.1,0-0.1-0.1-0.2L138.2,545.6z"/>
	</g>
	<g id="Sapin-4">
		<path class="st10" d="M112.4,643.1v-56.8l-6.9,10.9c-0.1,0.2-0.1,0.4,0.1,0.5c0.1,0,0.1,0.1,0.2,0.1l1.9,0.2l-5.6,8.8
			c-0.1,0.2-0.1,0.4,0.1,0.5c0.1,0,0.1,0.1,0.2,0.1l3.4,0.3l-8.8,13.9c-0.1,0.2-0.1,0.4,0.1,0.5c0.1,0,0.1,0.1,0.2,0.1l6.6,0.5
			l-11.6,18.2c-0.1,0.2-0.1,0.4,0.1,0.5c0.1,0,0.1,0.1,0.2,0.1L112.4,643.1z"/>
		<path class="st11" d="M112.4,586.4v56.7l19.6-1.6c0.2,0,0.4-0.2,0.4-0.4c0-0.1,0-0.1-0.1-0.2l-11.6-18.2l6.6-0.5
			c0.2,0,0.4-0.2,0.4-0.4c0-0.1,0-0.1-0.1-0.2l-8.8-13.9l3.4-0.3c0.2,0,0.4-0.2,0.4-0.4c0-0.1,0-0.1-0.1-0.2l-5.6-8.8l1.9-0.2
			c0.2,0,0.4-0.2,0.3-0.4c0-0.1,0-0.1-0.1-0.2L112.4,586.4z"/>
	</g>
	<g id="Sapin-5">
		<path class="st10" d="M92.5,665.5v-77.2l-9.4,14.8c-0.2,0.2-0.1,0.6,0.2,0.7c0.1,0,0.1,0.1,0.2,0.1l2.6,0.3l-7.6,11.9
			c-0.2,0.2-0.1,0.6,0.2,0.7c0.1,0,0.2,0.1,0.2,0.1l4.7,0.4l-12,18.9c-0.2,0.2-0.1,0.6,0.2,0.7c0.1,0,0.2,0.1,0.2,0.1l8.9,0.8
			l-15.7,24.7c-0.2,0.2-0.1,0.6,0.2,0.7c0.1,0,0.2,0.1,0.2,0.1L92.5,665.5z"/>
		<path class="st11" d="M92.5,588.5v77l26.6-2.2c0.3,0,0.5-0.3,0.5-0.6c0-0.1,0-0.2-0.1-0.3l-15.7-24.7l8.9-0.8
			c0.3,0,0.5-0.3,0.5-0.6c0-0.1,0-0.2-0.1-0.2l-12-18.9l4.6-0.4c0.3,0,0.5-0.3,0.5-0.6c0-0.1,0-0.2-0.1-0.2l-7.6-11.9l2.6-0.3
			c0.3,0,0.5-0.3,0.5-0.6c0-0.1,0-0.2-0.1-0.2L92.5,588.5z"/>
	</g>
	<g id="Sapin-6">
		<path class="st12" d="M592.3,611.6V506.3l-12.9,20.3c-0.2,0.3-0.1,0.7,0.2,0.9c0.1,0.1,0.2,0.1,0.3,0.1l3.6,0.4L573,544.3
			c-0.2,0.3-0.1,0.7,0.2,0.9c0.1,0.1,0.2,0.1,0.3,0.1l6.5,0.5l-16.5,25.8c-0.2,0.3-0.1,0.7,0.2,0.9c0.1,0.1,0.2,0.1,0.3,0.1l12.3,1
			l-21.5,33.8c-0.2,0.3-0.1,0.7,0.2,0.9c0.1,0.1,0.2,0.1,0.3,0.1L592.3,611.6z"/>
		<path class="st11" d="M592.3,506.5v105l36.4-3c0.3,0,0.6-0.3,0.6-0.7c0-0.1,0-0.2-0.1-0.3l-21.5-33.8l12.3-1
			c0.4,0,0.6-0.3,0.6-0.7c0-0.1,0-0.2-0.1-0.3L604,545.9l6.5-0.5c0.3,0,0.6-0.3,0.6-0.7c0-0.1,0-0.2-0.1-0.3L600.5,528l3.6-0.4
			c0.4,0,0.6-0.3,0.6-0.7c0-0.1,0-0.2-0.1-0.3L592.3,506.5z"/>
	</g>
	<g id="Sapin-7">
		<path class="st10" d="M640.6,566.9v-77.1l-9.3,14.6c-0.2,0.3-0.1,0.7,0.2,0.9c0.1,0.1,0.2,0.1,0.3,0.1l2.3,0.2l-7.5,11.8
			c-0.2,0.3-0.1,0.7,0.2,0.9c0.1,0.1,0.2,0.1,0.3,0.1l4.4,0.4l-11.9,18.7c-0.2,0.3-0.1,0.7,0.2,0.9c0.1,0.1,0.2,0.1,0.3,0.1l8.8,0.7
			l-15.6,24.5c-0.2,0.3-0.1,0.7,0.2,0.9c0.1,0.1,0.2,0.1,0.3,0.1L640.6,566.9z"/>
		<path class="st11" d="M640.6,490v76.9l26.3-2.2c0.4,0,0.6-0.3,0.6-0.7c0-0.1,0-0.2-0.1-0.3l-15.6-24.5l8.8-0.7
			c0.4,0,0.6-0.3,0.6-0.7c0-0.1,0-0.2-0.1-0.3l-11.9-18.7l4.5-0.4c0.4,0,0.6-0.3,0.6-0.7c0-0.1,0-0.2-0.1-0.3l-7.5-11.8l2.4-0.3
			c0.4,0,0.6-0.3,0.6-0.7c0-0.1,0-0.2-0.1-0.3L640.6,490z"/>
	</g>
	<circle class="st13" cx="500.4" cy="586.2" r="20.2"/>
	
		<ellipse transform="matrix(0.9239 -0.3827 0.3827 0.9239 -190.529 246.5456)" class="st14" cx="524.5" cy="602.2" rx="16" ry="16"/>
	<circle class="st14" cx="474.9" cy="615.4" r="16"/>
	<path class="st15" d="M524.1,603.5L524.1,603.5c-0.8-0.8-2.2-0.8-3,0c0,0,0,0,0,0l-18,18v-31.3c0-1.5-1.2-2.7-2.7-2.8l0,0
		c-1.5,0-2.8,1.2-2.8,2.8l0,0v44.3l-18.1-18.2c-0.8-0.8-2.2-0.8-3,0s-0.8,2.2,0,3l21.2,21.2v36.3h5.5v-49.4l20.9-20.9
		C524.9,605.7,525,604.4,524.1,603.5C524.1,603.5,524.1,603.5,524.1,603.5z"/>
	<g id="Sapin-8">
		<path class="st10" d="M1105.5,490.4v-45.9l-5.6,8.8c-0.1,0.1-0.1,0.3,0.1,0.4c0,0,0.1,0,0.2,0.1l1.5,0.2l-4.5,7.1
			c-0.1,0.1-0.1,0.3,0.1,0.4c0,0,0.1,0,0.1,0.1l2.8,0.2L1093,473c-0.1,0.1-0.1,0.3,0.1,0.4c0,0,0.1,0,0.2,0.1l5.3,0.4l-9.3,14.7
			c-0.1,0.2,0,0.3,0.1,0.4c0,0,0.1,0,0.1,0L1105.5,490.4z"/>
		<path class="st11" d="M1105.5,444.7v45.8l15.8-1.3c0.2,0,0.3-0.2,0.3-0.4c0,0,0-0.1,0-0.1l-9.3-14.7l5.3-0.5
			c0.2,0,0.3-0.2,0.3-0.3c0-0.1,0-0.1-0.1-0.2l-7.1-11.2l2.8-0.2c0.2,0,0.3-0.2,0.3-0.3c0-0.1,0-0.1-0.1-0.1l-4.5-7.1l1.5-0.2
			c0.2,0,0.3-0.2,0.3-0.4c0,0,0-0.1,0-0.1L1105.5,444.7z"/>
	</g>
	<path class="st16" d="M594.5,823.4v-205c-70-14-148-37-252-14s-172,78-200,132c-17,32.8-25.9,66-30.3,87H594.5z"/>
	<path class="st17" d="M896.6,653.7c-88.3-90.1-237.4-149.2-406.5-149.2c-261,0-474.4,141-490.1,319h896.6V653.7z"/>
	<path class="st18" d="M379.5,823.9C486.9,578.2,705.2,465.4,944,465.4c269.8,0,488.5,156.5,488.5,349.5c0,3-0.1,6-0.2,9H379.5z"/>
	<path class="st19" d="M1303.5,823.9v-97.5c-57.3-72.5-158.1-104.3-256-111c-107.8-7.4-244.2,23.3-316,129
		c-16.6,24.3-29.1,51.1-36.9,79.5H1303.5z"/>
	<path class="st20" d="M1021.6,823.9c85.1-173.2,258.2-252.8,447.5-252.8c213.9,0,387.2,110.3,387.2,246.4c0,2.1,0,4.2-0.1,6.3
		H1021.6z"/>
	<path class="st21" d="M1391.3,823.9c-0.1-1.2-0.1-2.3-0.1-3.5c0-75,109.9-135.7,245.4-135.7c120,0,229.7,43.8,283.6,139.2H1391.3z"
		/>
</g>
<g id="Calque_21">
	<rect x="913.3" y="414.7" class="st22" width="92.7" height="106.3"/>
	<rect x="907.7" y="402.1" class="st23" width="105.7" height="45.1"/>
	<rect x="907.7" y="392.2" class="st24" width="105.7" height="9.9"/>
	<path class="st25" d="M971.1,521.2h-21.1V483c0-5.8,4.7-10.5,10.6-10.5l0,0c5.8,0,10.6,4.7,10.6,10.6V521.2z"/>
	<path class="st23" d="M923.8,447.2c0,4.5-3.6,8.1-8.1,8.1c-4.5,0-8.1-3.6-8.1-8.1c0-4.5,3.6-8.1,8.1-8.1c0,0,0,0,0,0
		C920.2,439.1,923.8,442.7,923.8,447.2C923.8,447.2,923.8,447.2,923.8,447.2z"/>
	<path class="st23" d="M936.6,447.2c0,4.5-3.6,8.1-8.1,8.1c-4.5,0-8.1-3.6-8.1-8.1c0-4.5,3.6-8.1,8.1-8.1c0,0,0,0,0,0
		C933,439.1,936.6,442.7,936.6,447.2C936.6,447.2,936.6,447.2,936.6,447.2z"/>
	<path class="st23" d="M949.4,447.2c0,4.5-3.6,8.1-8.1,8.1c-4.5,0-8.1-3.6-8.1-8.1c0-4.5,3.6-8.1,8.1-8.1c0,0,0,0,0,0
		C945.8,439.1,949.4,442.7,949.4,447.2C949.4,447.2,949.4,447.2,949.4,447.2z"/>
	<circle class="st23" cx="954.1" cy="447.2" r="8.1"/>
	<circle class="st23" cx="966.9" cy="447.2" r="8.1"/>
	<circle class="st23" cx="979.7" cy="447.2" r="8.1"/>
	<circle class="st23" cx="992.5" cy="447.2" r="8.1"/>
	<circle class="st23" cx="1005.3" cy="447.2" r="8.1"/>
	<rect x="907.7" y="418.2" class="st24" width="105.7" height="14.3"/>
	<path class="st24" d="M923.8,432.5c0,4.5-3.6,8.1-8.1,8.1c-4.5,0-8.1-3.6-8.1-8.1c0-4.5,3.6-8.1,8.1-8.1c0,0,0,0,0,0
		C920.2,424.4,923.8,428,923.8,432.5C923.8,432.5,923.8,432.5,923.8,432.5z"/>
	<path class="st24" d="M936.6,432.5c0,4.5-3.6,8.1-8.1,8.1c-4.5,0-8.1-3.6-8.1-8.1c0-4.5,3.6-8.1,8-8.1
		C933,424.4,936.6,428,936.6,432.5C936.6,432.5,936.6,432.5,936.6,432.5z"/>
	<path class="st24" d="M949.4,432.5c0,4.5-3.6,8.1-8.1,8.1c-4.5,0-8.1-3.6-8.1-8.1c0-4.5,3.6-8.1,8.1-8.1c0,0,0,0,0,0
		C945.8,424.4,949.4,428,949.4,432.5C949.4,432.5,949.4,432.5,949.4,432.5z"/>
	<path class="st24" d="M962.2,432.5c0,4.5-3.6,8.1-8.1,8.1c-4.5,0-8.1-3.6-8.1-8.1c0-4.5,3.6-8.1,8.1-8.1c0,0,0,0,0,0
		C958.6,424.4,962.2,428,962.2,432.5z"/>
	<path class="st24" d="M975,432.5c0,4.5-3.6,8.1-8.1,8.1s-8.1-3.6-8.1-8.1c0-4.5,3.6-8.1,8.1-8.1S975,428,975,432.5L975,432.5z"/>
	<path class="st24" d="M987.8,432.5c0,4.5-3.6,8.1-8.1,8.1s-8.1-3.6-8.1-8.1c0-4.5,3.6-8.1,8.1-8.1S987.8,428,987.8,432.5
		L987.8,432.5z"/>
	<path class="st24" d="M1000.5,432.5c0,4.5-3.6,8.1-8.1,8.1c-4.5,0-8.1-3.6-8.1-8.1c0-4.5,3.6-8.1,8.1-8.1c0,0,0.1,0,0.1,0
		C996.9,424.5,1000.5,428.1,1000.5,432.5z"/>
	<path class="st24" d="M1013.3,432.5c0,4.5-3.6,8.1-8.1,8.1s-8.1-3.6-8.1-8.1c0-4.5,3.6-8.1,8.1-8.1S1013.3,428,1013.3,432.5
		L1013.3,432.5z"/>
	<rect x="907.7" y="402.1" class="st23" width="105.7" height="14.3"/>
	<path class="st23" d="M923.8,416.4c0,4.5-3.6,8.1-8.1,8.1c-4.5,0-8.1-3.6-8.1-8.1c0-4.5,3.6-8.1,8.1-8.1c0,0,0,0,0,0
		C920.2,408.4,923.8,412,923.8,416.4z"/>
	<path class="st23" d="M936.6,416.4c0,4.5-3.6,8.1-8.1,8c-4.5,0-8.1-3.6-8-8.1c0-4.4,3.6-8,8-8C933,408.3,936.6,411.9,936.6,416.4
		C936.6,416.4,936.6,416.4,936.6,416.4z"/>
	<path class="st23" d="M949.4,416.4c0,4.5-3.6,8.1-8.1,8.1c-4.5,0-8.1-3.6-8.1-8.1c0-4.5,3.6-8.1,8.1-8.1c0,0,0,0,0,0
		C945.8,408.4,949.4,412,949.4,416.4z"/>
	<path class="st23" d="M962.2,416.4c0,4.5-3.6,8.1-8.1,8.1s-8.1-3.6-8.1-8.1c0-4.5,3.6-8.1,8.1-8.1S962.2,412,962.2,416.4
		L962.2,416.4z"/>
	<path class="st23" d="M975,416.4c0,4.5-3.6,8.1-8.1,8.1s-8.1-3.6-8.1-8.1c0-4.5,3.6-8.1,8.1-8.1S975,412,975,416.4L975,416.4z"/>
	<path class="st23" d="M987.8,416.4c0,4.5-3.6,8.1-8.1,8.1s-8.1-3.6-8.1-8.1c0-4.5,3.6-8.1,8.1-8.1S987.8,412,987.8,416.4
		L987.8,416.4z"/>
	<path class="st23" d="M1000.5,416.4c0,4.5-3.6,8.1-8.1,8s-8.1-3.6-8-8.1s3.6-8.1,8.1-8c0,0,0,0,0,0
		C996.9,408.4,1000.5,412,1000.5,416.4z"/>
	<path class="st23" d="M1013.3,416.4c0,4.5-3.6,8.1-8.1,8.1s-8.1-3.6-8.1-8.1c0-4.5,3.6-8.1,8.1-8.1S1013.3,412,1013.3,416.4
		L1013.3,416.4z"/>
	<rect x="923.8" y="475.6" class="st26" width="15.3" height="15.3"/>
	<line class="st27" x1="931.5" y1="475.6" x2="931.5" y2="490.9"/>
	<line class="st27" x1="923.8" y1="483.3" x2="939.1" y2="483.3"/>
	<rect x="981.9" y="475.6" class="st26" width="15.3" height="15.3"/>
	<line class="st27" x1="989.5" y1="475.6" x2="989.5" y2="490.9"/>
	<line class="st27" x1="981.9" y1="483.3" x2="997.2" y2="483.3"/>
	<path class="st25" d="M910.4,521h98.5c1.5,0,2.7,1.2,2.7,2.7v0c0,1.5-1.2,2.7-2.7,2.7h-98.5c-1.5,0-2.7-1.2-2.7-2.7v0
		C907.7,522.2,908.9,521,910.4,521z"/>
	<path class="st28" d="M912.2,518.2h94.8c0.8,0,1.4,0.6,1.4,1.4l0,0c0,0.8-0.6,1.4-1.4,1.4h-94.8c-0.8,0-1.4-0.6-1.4-1.4l0,0
		C910.9,518.8,911.5,518.2,912.2,518.2z"/>
	<path class="st29" d="M967.5,483c0-3.9-3.1-7-7-7s-7,3.1-7,7v25.5h14V483z"/>
	<line class="st27" x1="960.5" y1="474" x2="960.5" y2="513.9"/>
	<line class="st27" x1="952" y1="484.5" x2="970.4" y2="484.5"/>
	<line class="st27" x1="952" y1="490.6" x2="970.4" y2="490.6"/>
	<line class="st27" x1="952" y1="496.8" x2="970.4" y2="496.8"/>
	<line class="st27" x1="952" y1="503" x2="970.4" y2="503"/>
</g>
<g id="Arbres">
	<g id="Sapin-9">
		<path class="st10" d="M1741.2,670V565.8l-12.7,20c-0.2,0.3-0.1,0.8,0.2,1c0.1,0.1,0.2,0.1,0.3,0.1l3.4,0.4l-10.3,16.1
			c-0.2,0.3-0.1,0.8,0.2,1c0.1,0.1,0.2,0.1,0.3,0.1l6.3,0.5l-16.2,25.5c-0.2,0.3-0.1,0.8,0.2,1c0.1,0.1,0.2,0.1,0.3,0.1l12.1,1
			l-21.2,33.4c-0.2,0.3-0.1,0.8,0.2,1c0.1,0.1,0.2,0.1,0.3,0.1L1741.2,670z"/>
		<path class="st11" d="M1741.2,566v104l35.9-3c0.4,0,0.7-0.4,0.6-0.8c0-0.1,0-0.2-0.1-0.3l-21.2-33.4l12.1-1c0.4,0,0.7-0.4,0.6-0.8
			c0-0.1,0-0.2-0.1-0.3l-16.2-25.5l6.3-0.5c0.4,0,0.7-0.4,0.6-0.8c0-0.1,0-0.2-0.1-0.3l-10.3-16.1l3.5-0.4c0.4,0,0.7-0.4,0.6-0.8
			c0-0.1,0-0.2-0.1-0.3L1741.2,566z"/>
	</g>
	<g id="Sapin-10">
		<path class="st12" d="M1776.2,676V564.7l-13.6,21.3c-0.2,0.4-0.1,0.8,0.2,1.1c0.1,0.1,0.2,0.1,0.3,0.1l3.7,0.4l-11,17.2
			c-0.2,0.4-0.1,0.8,0.3,1.1c0.1,0.1,0.2,0.1,0.3,0.1l6.7,0.5l-17.3,27.2c-0.2,0.4-0.1,0.8,0.2,1.1c0.1,0.1,0.2,0.1,0.4,0.1
			l12.9,1.1l-22.7,35.6c-0.2,0.4-0.1,0.8,0.2,1.1c0.1,0.1,0.2,0.1,0.4,0.1L1776.2,676z"/>
		<path class="st11" d="M1776.2,564.9V676l38.3-3.2c0.4,0,0.7-0.4,0.7-0.8c0-0.1-0.1-0.3-0.1-0.4l-22.7-35.7l12.9-1.1
			c0.4,0,0.7-0.4,0.7-0.8c0-0.1-0.1-0.2-0.1-0.4l-17.3-27.2l6.7-0.6c0.4,0,0.7-0.4,0.7-0.8c0-0.1-0.1-0.3-0.1-0.4l-11-17.2l3.7-0.4
			c0.4,0,0.7-0.4,0.7-0.8c0-0.1-0.1-0.2-0.1-0.3L1776.2,564.9z"/>
	</g>
	<g id="Sapin-11">
		<path class="st10" d="M1795.9,714.7v-77.3l-9.4,14.8c-0.2,0.2-0.1,0.6,0.2,0.7c0.1,0,0.1,0.1,0.2,0.1l2.6,0.3l-7.6,12
			c-0.2,0.2-0.1,0.6,0.2,0.7c0.1,0,0.2,0.1,0.2,0.1l4.6,0.4l-12,18.9c-0.2,0.2-0.1,0.6,0.2,0.7c0.1,0,0.2,0.1,0.2,0.1l9,0.7
			l-15.7,24.7c-0.2,0.2-0.1,0.6,0.2,0.7c0.1,0,0.2,0.1,0.2,0.1L1795.9,714.7z"/>
		<path class="st11" d="M1795.9,637.6v77.1l26.6-2.2c0.3,0,0.5-0.3,0.5-0.6c0-0.1,0-0.2-0.1-0.2l-15.7-24.7l9-0.7
			c0.3,0,0.5-0.3,0.5-0.6c0-0.1,0-0.2-0.1-0.2l-12-18.9l4.6-0.4c0.3,0,0.5-0.3,0.5-0.6c0-0.1,0-0.2-0.1-0.3l-7.6-12l2.6-0.3
			c0.3,0,0.5-0.3,0.5-0.6c0-0.1,0-0.2-0.1-0.2L1795.9,637.6z"/>
	</g>
	<path class="st30" d="M228.9,513.3c1.3-3.3-0.3-7-3.5-8.3c-3.3-1.3-7,0.3-8.3,3.5c-0.6,1.5-0.6,3.2,0,4.7c0.4,0.9,0.1,1.9-0.6,2.6
		c-4,3.6-4.3,9.7-0.7,13.7c3.6,4,9.7,4.3,13.7,0.7s4.3-9.7,0.7-13.7c-0.2-0.2-0.4-0.5-0.7-0.7C228.8,515.2,228.5,514.2,228.9,513.3z
		"/>
	<path class="st31" d="M222.8,510.8L222.8,510.8c0.3,0,0.5,0.2,0.5,0.5v29.1c0,0.3-0.2,0.5-0.5,0.5h0c-0.3,0-0.5-0.2-0.5-0.5v-29.1
		C222.3,511,222.5,510.8,222.8,510.8z"/>
	<path class="st31" d="M227.7,520.8l-4.9,4.4c-0.1,0.1-0.1,0.2-0.1,0.3l0,0c0,0.3,0.2,0.5,0.5,0.5c0.1,0,0.2,0,0.3-0.1l4.9-4.4
		c0.1-0.1,0.2-0.2,0.2-0.3l0,0c0-0.3-0.2-0.5-0.5-0.5C227.9,520.7,227.8,520.7,227.7,520.8z"/>
	<path class="st31" d="M223.2,515.4L223.2,515.4c0,0.3-0.2,0.5-0.4,0.5c-0.1,0-0.2,0-0.3-0.1l-0.2-0.1l-2.8-2.5
		c-0.1-0.1-0.1-0.2-0.1-0.3l0,0c0-0.3,0.2-0.5,0.4-0.5c0.1,0,0.2,0,0.3,0.1l2.1,1.9l0.8,0.7C223.2,515.2,223.3,515.3,223.2,515.4z"
		/>
	<circle class="st32" cx="226.8" cy="517.2" r="0.8"/>
	<circle class="st32" cx="220.4" cy="508.1" r="0.8"/>
	<circle class="st32" cx="226.6" cy="528.8" r="0.8"/>
	<path class="st33" d="M574.5,447.3c-6.1-15.5,1.5-33,17-39.1c15.5-6.1,33,1.5,39.1,17c2.8,7.1,2.8,15,0,22.2
		c-1.7,4.2-0.6,9.1,2.7,12.2c18.8,17,20.3,46.1,3.4,64.9c-17,18.8-46.1,20.3-64.9,3.4c-18.8-17-20.3-46.1-3.4-64.9
		c1-1.1,2.1-2.2,3.2-3.2C575.1,456.6,576.2,451.6,574.5,447.3z"/>
	<path class="st31" d="M603.4,435.7L603.4,435.7c1.2,0,2.2,1,2.2,2.2v136.9c0,1.2-1,2.2-2.2,2.2l0,0c-1.2,0-2.2-1-2.2-2.2V437.9
		C601.2,436.7,602.2,435.7,603.4,435.7z"/>
	<path class="st31" d="M579.9,482.9l23.3,20.7c0.5,0.4,0.7,1,0.7,1.7l0,0c0,1.2-1,2.2-2.2,2.2c-0.5,0-1.1-0.2-1.5-0.6L577,486.2
		c-0.5-0.4-0.7-1-0.7-1.7l0,0c0-1.2,1-2.2,2.2-2.2C579,482.4,579.5,482.6,579.9,482.9z"/>
	<path class="st31" d="M601.2,457.5L601.2,457.5c0,1.2,1,2.2,2.2,2.2c0.5,0,1.1-0.2,1.5-0.6l0.7-0.7l13.1-11.7
		c0.5-0.4,0.7-1,0.7-1.7l0,0c0-1.2-1-2.2-2.2-2.2c-0.5,0-1,0.2-1.5,0.6l-10.2,9.1l-3.7,3.3C601.5,456.3,601.2,456.9,601.2,457.5z"/>
	<circle class="st32" cx="584.1" cy="466.2" r="3.7"/>
	<circle class="st32" cx="614.5" cy="422.8" r="3.7"/>
	<circle class="st32" cx="585.5" cy="521.2" r="3.7"/>
	<path class="st33" d="M523,496.7c-5.3-13.3,1.2-28.3,14.5-33.6c13.3-5.3,28.3,1.2,33.6,14.5c1.2,3.1,1.8,6.3,1.8,9.6
		c0,3.3-0.6,6.5-1.8,9.5c-1.5,3.7-0.5,7.8,2.4,10.5c16.2,14.6,17.4,39.5,2.8,55.7c-14.6,16.2-39.5,17.4-55.7,2.8
		c-16.2-14.6-17.4-39.5-2.8-55.7c0.9-0.9,1.8-1.9,2.7-2.7C523.5,504.6,524.5,500.4,523,496.7z"/>
	<path class="st31" d="M547.8,486.7L547.8,486.7c1,0,1.9,0.8,1.9,1.9v117.5c0,1-0.8,1.9-1.9,1.9l0,0c-1,0-1.9-0.8-1.9-1.9V488.6
		C545.9,487.6,546.7,486.7,547.8,486.7z"/>
	<path class="st31" d="M527.6,527.2l20,17.8c0.4,0.4,0.6,0.9,0.6,1.4l0,0c0,1-0.8,1.9-1.9,1.9c-0.5,0-0.9-0.2-1.3-0.5l-20-17.8
		c-0.4-0.4-0.6-0.9-0.6-1.4l0,0c0-1,0.8-1.9,1.9-1.9C526.8,526.8,527.3,526.9,527.6,527.2z"/>
	<path class="st31" d="M545.9,505.4L545.9,505.4c0,1,0.8,1.9,1.9,1.9c0.5,0,0.9-0.2,1.3-0.5l0.6-0.6l11.2-10
		c0.4-0.4,0.6-0.9,0.6-1.4l0,0c0-1-0.8-1.9-1.9-1.9c-0.5,0-0.9,0.2-1.3,0.5l-8.7,7.8l-3.2,2.8C546.1,504.4,545.9,504.9,545.9,505.4z
		"/>
	<circle class="st32" cx="531.2" cy="512.9" r="3.2"/>
	<circle class="st32" cx="557.3" cy="475.6" r="3.2"/>
	<circle class="st32" cx="532.4" cy="560.1" r="3.2"/>
	<path class="st33" d="M325.5,576.9c-2.4-6,0.5-12.7,6.5-15.1c6-2.4,12.7,0.5,15.1,6.5c0.6,1.4,0.8,2.8,0.8,4.3
		c0,1.5-0.3,2.9-0.8,4.3c-0.7,1.6-0.3,3.5,1,4.7c7.2,6.6,7.8,17.8,1.2,25c-6.6,7.2-17.8,7.8-25,1.2c-7.2-6.6-7.8-17.8-1.2-25
		c0.4-0.4,0.8-0.8,1.2-1.2C325.7,580.5,326.1,578.6,325.5,576.9z"/>
	<path class="st31" d="M336.6,572.5L336.6,572.5c0.5,0,0.9,0.4,0.9,0.8v52.8c0,0.5-0.4,0.8-0.9,0.8l0,0c-0.5,0-0.9-0.4-0.9-0.8
		v-52.8C335.8,572.9,336.2,572.5,336.6,572.5z"/>
	<path class="st31" d="M327.6,590.7l9,8c0.2,0.2,0.3,0.4,0.3,0.6l0,0c0,0.5-0.4,0.9-0.8,0.9c-0.2,0-0.4-0.1-0.6-0.2l-9-8
		c-0.2-0.2-0.3-0.4-0.3-0.6l0,0c0-0.5,0.3-0.9,0.8-0.9C327.2,590.4,327.4,590.5,327.6,590.7z"/>
	<path class="st31" d="M335.8,580.9L335.8,580.9c0,0.5,0.4,0.8,0.9,0.8c0.2,0,0.4-0.1,0.6-0.2l0.3-0.3l5-4.5
		c0.2-0.2,0.3-0.4,0.3-0.6l0,0c0-0.5-0.4-0.8-0.9-0.8c-0.2,0-0.4,0.1-0.6,0.2l-3.8,3.5l-1.4,1.3
		C335.9,580.4,335.8,580.6,335.8,580.9z"/>
	<circle class="st32" cx="329.2" cy="584.2" r="1.4"/>
	<circle class="st32" cx="340.9" cy="567.5" r="1.4"/>
	<circle class="st32" cx="329.7" cy="605.4" r="1.4"/>
	<path class="st30" d="M1355.1,561.8c0.9-2.2,1.3-4.5,1.3-6.8c0-10.1-8.2-18.4-18.3-18.4c-10.1,0-18.4,8.2-18.4,18.3
		c0,2.3,0.4,4.6,1.3,6.8c1.1,2.6,0.4,5.5-1.7,7.4c-6.1,5.5-9.5,13.4-9.2,21.7c0.5,15.4,13.4,27.5,28.9,27
		c15.4-0.5,27.5-13.4,27-28.9c-0.2-7.5-3.5-14.7-9.1-19.7C1354.8,567.4,1354.1,564.4,1355.1,561.8z"/>
	<path class="st34" d="M1353.7,582.3c-0.8-0.4-1.8-0.2-2.5,0.4l-11.3,10V556c0-1.3-1-2.3-2.3-2.3c-1.3,0-2.3,1-2.3,2.3v6.7l-4.5-4
		c-1-0.9-2.4-0.8-3.3,0.2c-0.9,1-0.8,2.4,0.2,3.3l7.7,6.8v71c0,1.3,1,2.3,2.3,2.3c1.3,0,2.3-1,2.3-2.3V599l0.2-0.2l14.2-12.6
		c0.5-0.4,0.8-1.1,0.8-1.7C1355.1,583.5,1354.5,582.7,1353.7,582.3z"/>
	<circle class="st32" cx="1349.3" cy="573.2" r="2.2"/>
	<circle class="st32" cx="1330.8" cy="546.8" r="2.2"/>
	<circle class="st32" cx="1348.5" cy="606.7" r="2.2"/>
	<path class="st33" d="M1298.6,594.2c-3.1-7.7,0.7-16.5,8.5-19.5c7.7-3.1,16.5,0.7,19.5,8.5c1.4,3.5,1.4,7.5,0,11
		c-0.9,2.1-0.3,4.6,1.4,6.1c9.4,8.5,10.2,23,1.7,32.4c-8.5,9.4-23,10.2-32.4,1.7s-10.2-23-1.7-32.4c0.5-0.6,1-1.1,1.6-1.6
		C1298.8,598.9,1299.4,596.4,1298.6,594.2z"/>
	<path class="st31" d="M1313,588.5L1313,588.5c0.6,0,1.1,0.5,1.1,1.1v68.3c0,0.6-0.5,1.1-1.1,1.1l0,0c-0.6,0-1.1-0.5-1.1-1.1v-68.3
		C1311.9,588.9,1312.4,588.5,1313,588.5z"/>
	<path class="st31" d="M1301.3,612l11.6,10.3c0.2,0.2,0.4,0.5,0.4,0.8l0,0c0,0.6-0.5,1.1-1.1,1.1c-0.3,0-0.5-0.1-0.7-0.3l-11.6-10.3
		c-0.2-0.2-0.4-0.5-0.4-0.8l0,0c0-0.6,0.5-1.1,1.1-1.1C1300.8,611.7,1301.1,611.8,1301.3,612z"/>
	<path class="st31" d="M1311.9,599.3L1311.9,599.3c0,0.6,0.5,1.1,1.1,1.1c0.3,0,0.5-0.1,0.7-0.3l0.4-0.3l6.6-5.8
		c0.2-0.2,0.4-0.5,0.4-0.8l0,0c0-0.6-0.5-1.1-1.1-1.1c-0.3,0-0.5,0.1-0.7,0.3l-5.1,4.5l-1.8,1.6C1312,598.7,1311.9,599,1311.9,599.3
		z"/>
	<circle class="st32" cx="1303.3" cy="603.7" r="1.8"/>
	<circle class="st32" cx="1318.5" cy="582" r="1.8"/>
	<circle class="st32" cx="1304" cy="631.2" r="1.8"/>
	<path class="st33" d="M1593.6,569.2c-3.1-7.7,0.7-16.5,8.5-19.5c7.7-3.1,16.5,0.7,19.5,8.5c1.4,3.5,1.4,7.5,0,11
		c-0.9,2.1-0.3,4.6,1.4,6.1c9.4,8.5,10.2,23,1.7,32.4c-8.5,9.4-23,10.2-32.4,1.7s-10.2-23-1.7-32.4c0.5-0.6,1-1.1,1.6-1.6
		C1593.8,573.9,1594.4,571.4,1593.6,569.2z"/>
	<path class="st31" d="M1608,563.5L1608,563.5c0.6,0,1.1,0.5,1.1,1.1v68.3c0,0.6-0.5,1.1-1.1,1.1l0,0c-0.6,0-1.1-0.5-1.1-1.1v-68.3
		C1606.9,563.9,1607.4,563.5,1608,563.5z"/>
	<path class="st31" d="M1596.3,587l11.6,10.3c0.2,0.2,0.4,0.5,0.4,0.8l0,0c0,0.6-0.5,1.1-1.1,1.1c-0.3,0-0.5-0.1-0.7-0.3l-11.6-10.3
		c-0.2-0.2-0.4-0.5-0.4-0.8l0,0c0-0.6,0.5-1.1,1.1-1.1C1595.8,586.7,1596.1,586.8,1596.3,587z"/>
	<path class="st31" d="M1606.9,574.3L1606.9,574.3c0,0.6,0.5,1.1,1.1,1.1c0.3,0,0.5-0.1,0.7-0.3l0.4-0.3l6.6-5.8
		c0.2-0.2,0.4-0.5,0.4-0.8l0,0c0-0.6-0.5-1.1-1.1-1.1c-0.3,0-0.5,0.1-0.7,0.3l-5.1,4.5l-1.8,1.6C1607,573.7,1606.9,574,1606.9,574.3
		z"/>
	<circle class="st32" cx="1598.3" cy="578.7" r="1.8"/>
	<circle class="st32" cx="1613.5" cy="557" r="1.8"/>
	<circle class="st32" cx="1599" cy="606.2" r="1.8"/>
	<path class="st30" d="M659.1,494.8c0.9-2.2,1.3-4.5,1.3-6.8c0-10.1-8.2-18.4-18.3-18.4c-10.1,0-18.4,8.2-18.4,18.3
		c0,2.3,0.4,4.6,1.3,6.8c1.1,2.6,0.4,5.5-1.7,7.4c-6.1,5.5-9.5,13.4-9.2,21.7c0.5,15.4,13.4,27.5,28.9,27
		c15.4-0.5,27.5-13.4,27-28.9c-0.2-7.5-3.5-14.7-9.1-19.7C658.8,500.4,658.1,497.4,659.1,494.8z"/>
	<path class="st34" d="M657.7,515.3c-0.8-0.4-1.8-0.2-2.5,0.4l-11.3,10V489c0-1.3-1-2.3-2.3-2.3s-2.3,1-2.3,2.3c0,0,0,0,0,0v6.7
		l-4.5-4c-1-0.9-2.4-0.8-3.3,0.2s-0.8,2.4,0.2,3.3l0,0l7.7,6.8v71c0,1.3,1.1,2.3,2.3,2.3c1.3,0,2.3-1,2.3-2.3V532l0.2-0.2l14.2-12.6
		c0.5-0.4,0.8-1.1,0.8-1.7C659.1,516.5,658.5,515.7,657.7,515.3z"/>
	<circle class="st32" cx="653.3" cy="506.2" r="2.2"/>
	<circle class="st32" cx="634.8" cy="479.8" r="2.2"/>
	<circle class="st32" cx="652.5" cy="539.7" r="2.2"/>
	<path class="st35" d="M248.8,501.8c0,0-7.3,19.7-6.1,25.6s6.1,5.4,6.1,5.4s4.9,0.4,6.1-5.4C256.1,521.5,248.8,501.8,248.8,501.8z"
		/>
	<path class="st15" d="M248.8,511.1L248.8,511.1c-0.4,0-0.7,0.3-0.7,0.7V535h1.4v-23.2C249.5,511.4,249.2,511.1,248.8,511.1z"/>
	<path class="st30" d="M858.1,503.8c0.9-2.2,1.3-4.5,1.3-6.8c0-10.1-8.2-18.4-18.3-18.4c-10.1,0-18.4,8.2-18.4,18.3
		c0,2.3,0.4,4.6,1.3,6.8c1.1,2.6,0.4,5.5-1.7,7.4c-6.1,5.5-9.5,13.4-9.2,21.7c0.5,15.4,13.4,27.5,28.9,27
		c15.4-0.5,27.5-13.4,27-28.9c-0.2-7.5-3.5-14.7-9.1-19.7C857.8,509.4,857.1,506.4,858.1,503.8z"/>
	<path class="st34" d="M856.7,524.3c-0.8-0.4-1.8-0.2-2.5,0.4l-11.3,10V498c0-1.3-1-2.3-2.3-2.3s-2.3,1-2.3,2.3c0,0,0,0,0,0v6.7
		l-4.5-4c-1-0.9-2.4-0.8-3.3,0.2s-0.8,2.4,0.2,3.3l7.7,6.8v71c0,1.3,1.1,2.3,2.3,2.3c1.3,0,2.3-1,2.3-2.3V541l0.2-0.2l14.2-12.6
		c0.5-0.4,0.8-1.1,0.8-1.7C858.1,525.5,857.5,524.7,856.7,524.3z"/>
	<circle class="st32" cx="852.3" cy="515.2" r="2.2"/>
	<circle class="st32" cx="833.8" cy="488.8" r="2.2"/>
	<circle class="st32" cx="851.5" cy="548.7" r="2.2"/>
	<path class="st30" d="M1133.3,428.6c1-2.6,1.6-5.3,1.6-8.1c0-12.2-9.9-22-22-22c-12.2,0-22,9.9-22,22c0,2.7,0.5,5.5,1.6,8
		c1.3,3.1,0.5,6.6-2,8.8c-7.3,6.5-11.4,15.9-11.1,25.7c0.6,17.6,15.2,31.8,33,32c18.4,0.4,33.7-14.2,34.1-32.7c0-0.2,0-0.3,0-0.5
		c0-9.3-4-18.2-10.9-24.4C1133,435.2,1132.1,431.7,1133.3,428.6z"/>
	<path class="st34" d="M1131.6,452.9c-1-0.5-2.2-0.3-3,0.5l-13.5,11.9v-43.5c-0.1-1.6-1.4-2.7-3-2.6c-1.4,0.1-2.6,1.2-2.6,2.6v8
		l-5.4-4.8c-0.8-0.7-2-0.9-3-0.5c-1.4,0.6-2,2.2-1.4,3.6c0.2,0.4,0.4,0.7,0.7,1l9.2,8.1v84.3c0.1,1.6,1.4,2.7,3,2.6
		c1.4-0.1,2.6-1.2,2.6-2.6v-48.8c0.1-0.1,0.2-0.1,0.3-0.2l17-15c0.6-0.5,0.9-1.3,0.9-2.1C1133.3,454.3,1132.6,453.3,1131.6,452.9z"
		/>
	<ellipse class="st32" cx="1126.3" cy="442.2" rx="2.7" ry="2.6"/>
	<ellipse class="st32" cx="1104.1" cy="410.8" rx="2.7" ry="2.6"/>
	<ellipse class="st32" cx="1125.3" cy="481.9" rx="2.7" ry="2.6"/>
	<path class="st30" d="M226,552.8c1.3-3.3-0.3-7-3.5-8.3c-3.3-1.3-7,0.3-8.3,3.5c-0.6,1.5-0.6,3.2,0,4.7c0.4,0.9,0.1,1.9-0.6,2.6
		c-4,3.6-4.3,9.7-0.7,13.7c3.6,4,9.7,4.3,13.7,0.7s4.3-9.7,0.7-13.7c-0.2-0.2-0.4-0.5-0.7-0.7C225.9,554.8,225.6,553.7,226,552.8z"
		/>
	<path class="st31" d="M219.9,550.4L219.9,550.4c0.3,0,0.5,0.2,0.5,0.5V580c0,0.3-0.2,0.5-0.5,0.5h0c-0.3,0-0.5-0.2-0.5-0.5v-29.1
		C219.4,550.6,219.6,550.4,219.9,550.4z"/>
	<path class="st31" d="M224.8,560.3l-4.9,4.4c-0.1,0.1-0.2,0.2-0.1,0.3l0,0c0,0.3,0.2,0.5,0.4,0.5c0.1,0,0.2,0,0.3-0.1l4.9-4.4
		c0.1-0.1,0.2-0.2,0.1-0.3l0,0c0-0.3-0.2-0.5-0.4-0.5C225,560.2,224.9,560.2,224.8,560.3z"/>
	<path class="st31" d="M220.4,555L220.4,555c0,0.3-0.2,0.5-0.4,0.5c-0.1,0-0.2,0-0.3-0.1l-0.2-0.1l-2.8-2.5
		c-0.1-0.1-0.2-0.2-0.1-0.3l0,0c0-0.3,0.2-0.5,0.4-0.5c0.1,0,0.2,0,0.3,0.1l2.1,1.9l0.8,0.7C220.3,554.7,220.4,554.8,220.4,555z"/>
	<circle class="st32" cx="224" cy="556.8" r="0.8"/>
	<circle class="st32" cx="217.6" cy="547.6" r="0.8"/>
	<circle class="st32" cx="223.7" cy="568.4" r="0.8"/>
	<path class="st30" d="M269.3,520.3c1.7-4.3-0.4-9.1-4.6-10.8c-4.3-1.7-9.1,0.4-10.8,4.6c-0.4,1-0.6,2.1-0.6,3.1
		c0,1.1,0.2,2.1,0.6,3.1c0.5,1.2,0.2,2.5-0.8,3.4c-5.2,4.7-5.6,12.7-0.9,17.9c4.7,5.2,12.7,5.6,17.9,0.9c5.2-4.7,5.6-12.7,0.9-17.9
		c-0.3-0.3-0.6-0.6-0.9-0.9C269.1,522.8,268.8,521.4,269.3,520.3z"/>
	<path class="st31" d="M261.3,517.1L261.3,517.1c0.3,0,0.6,0.3,0.6,0.6v38.2c0,0.3-0.3,0.6-0.6,0.6h0c-0.3,0-0.6-0.3-0.6-0.6v-38.2
		C260.7,517.3,261,517.1,261.3,517.1z"/>
	<path class="st31" d="M267.8,530.1l-6.4,5.7c-0.1,0.1-0.2,0.3-0.2,0.5l0,0c0,0.3,0.3,0.6,0.6,0.6c0.1,0,0.3-0.1,0.4-0.1l6.4-5.7
		c0.1-0.1,0.2-0.3,0.2-0.5l0,0c0-0.3-0.3-0.6-0.6-0.6C268,530,267.9,530,267.8,530.1z"/>
	<path class="st31" d="M261.9,523.1L261.9,523.1c0,0.3-0.3,0.6-0.6,0.6c-0.1,0-0.3-0.1-0.4-0.1l-0.2-0.2l-3.6-3.2
		c-0.1-0.1-0.2-0.3-0.2-0.5l0,0c0-0.3,0.3-0.6,0.6-0.6c0.1,0,0.3,0.1,0.4,0.1l2.8,2.5l1,0.9C261.8,522.8,261.9,522.9,261.9,523.1z"
		/>
	<circle class="st32" cx="266.6" cy="525.5" r="1"/>
	<circle class="st32" cx="258.2" cy="513.5" r="1"/>
	<circle class="st32" cx="266.3" cy="540.7" r="1"/>
	<path class="st30" d="M318.8,582.1c0.4-1,0.6-2,0.6-3.1c-0.2-4.6-4-8.2-8.6-8c-4.4,0.2-7.9,3.7-8,8c0,1.1,0.2,2.1,0.6,3.1
		c0.5,1.2,0.2,2.5-0.8,3.4c-2.8,2.5-4.3,6.1-4.2,9.8c0.2,7,6.1,12.5,13.1,12.2c7-0.2,12.5-6.1,12.2-13.1c-0.1-3.4-1.6-6.6-4.1-8.9
		C318.7,584.6,318.3,583.2,318.8,582.1z"/>
	<path class="st31" d="M310.8,578.9L310.8,578.9c0.3,0,0.6,0.3,0.6,0.6v38.2c0,0.3-0.3,0.6-0.6,0.6h0c-0.3,0-0.6-0.3-0.6-0.6v-38.2
		C310.2,579.1,310.5,578.9,310.8,578.9z"/>
	<path class="st31" d="M317.3,591.9l-6.4,5.7c-0.1,0.1-0.2,0.3-0.2,0.5l0,0c0,0.3,0.3,0.6,0.6,0.6c0.1,0,0.3-0.1,0.4-0.1l6.4-5.7
		c0.1-0.1,0.2-0.3,0.2-0.5l0,0c0-0.3-0.3-0.6-0.6-0.6C317.6,591.8,317.4,591.8,317.3,591.9z"/>
	<path class="st31" d="M311.5,584.9L311.5,584.9c0,0.3-0.3,0.6-0.6,0.6c-0.1,0-0.3-0.1-0.4-0.1l-0.2-0.2l-3.6-3.2
		c-0.1-0.1-0.2-0.3-0.2-0.5l0,0c0-0.3,0.3-0.6,0.6-0.6c0.1,0,0.3,0.1,0.4,0.1l2.8,2.5l1,0.9C311.4,584.5,311.5,584.7,311.5,584.9z"
		/>
	<circle class="st32" cx="316.2" cy="587.3" r="1"/>
	<circle class="st32" cx="307.8" cy="575.3" r="1"/>
	<circle class="st32" cx="315.8" cy="602.5" r="1"/>
	<path class="st30" d="M169.5,580.9c0.3-0.7,0.4-1.5,0.4-2.3c0-3.5-2.8-6.4-6.3-6.4s-6.4,2.8-6.4,6.3c0,0,0,0,0,0
		c0,0.8,0.1,1.6,0.4,2.3c0.4,0.9,0.1,1.9-0.6,2.6c-2.1,1.9-3.3,4.7-3.2,7.5c0.2,5.3,4.7,9.5,10,9.4s9.5-4.7,9.4-10
		c-0.1-2.6-1.2-5.1-3.2-6.8C169.4,582.9,169.1,581.8,169.5,580.9z"/>
	<path class="st31" d="M163.4,578.5L163.4,578.5c0.3,0,0.5,0.2,0.5,0.5V608c0,0.3-0.2,0.5-0.5,0.5h0c-0.3,0-0.5-0.2-0.5-0.5v-29.1
		C163,578.7,163.2,578.5,163.4,578.5z"/>
	<path class="st31" d="M168.4,588.4l-4.9,4.4c-0.1,0.1-0.2,0.2-0.2,0.3l0,0c0,0.3,0.2,0.5,0.5,0.5c0.1,0,0.2,0,0.3-0.1l4.9-4.4
		c0.1-0.1,0.1-0.2,0.1-0.3l0,0c0-0.3-0.2-0.5-0.4-0.5C168.6,588.3,168.5,588.3,168.4,588.4z"/>
	<path class="st31" d="M163.9,583.1L163.9,583.1c0,0.3-0.2,0.5-0.5,0.5c-0.1,0-0.2,0-0.3-0.1l-0.1-0.1l-2.8-2.5
		c-0.1-0.1-0.2-0.2-0.2-0.3l0,0c0-0.3,0.2-0.5,0.5-0.5c0.1,0,0.2,0,0.3,0.1l2.2,1.9l0.8,0.7C163.8,582.8,163.9,582.9,163.9,583.1z"
		/>
	<circle class="st32" cx="167.5" cy="584.9" r="0.8"/>
	<circle class="st32" cx="161.1" cy="575.7" r="0.8"/>
	<circle class="st32" cx="167.2" cy="596.5" r="0.8"/>
	<circle class="st13" cx="238.4" cy="472.2" r="20.2"/>
	<circle class="st14" cx="262.5" cy="488.2" r="16"/>
	<circle class="st14" cx="212.9" cy="501.4" r="16"/>
	<path class="st15" d="M262.1,489.5L262.1,489.5c-0.8-0.8-2.2-0.8-3,0c0,0,0,0,0,0l-18,18v-31.3c0-1.5-1.2-2.7-2.7-2.8l0,0
		c-1.5,0-2.8,1.2-2.8,2.8v44.3l-18.1-18.2c-0.8-0.8-2.2-0.8-3,0s-0.8,2.2,0,3l21.2,21.2v36.3h5.5v-49.4l20.9-20.9
		C262.9,491.7,263,490.4,262.1,489.5C262.1,489.5,262.1,489.5,262.1,489.5z"/>
	<path class="st36" d="M1393.2,495.9c0,0-24.8,67-20.8,86.8s20.8,18.4,20.8,18.4s16.8,1.4,20.8-18.4S1393.2,495.9,1393.2,495.9z"/>
	<path class="st15" d="M1393.2,527.4c-1.4,0-2.5,1.1-2.5,2.5c0,0,0,0,0,0v78.7h5v-78.7C1395.7,528.5,1394.5,527.4,1393.2,527.4z"/>
	<path class="st35" d="M1377.2,570.6c0,0-16.3,44.2-13.7,57.2s13.7,12.1,13.7,12.1s11.1,0.9,13.7-12.1S1377.2,570.6,1377.2,570.6z"
		/>
	<path class="st15" d="M1377.2,591.4L1377.2,591.4c-0.9,0-1.6,0.7-1.7,1.6V645h3.3v-52C1378.8,592.1,1378.1,591.4,1377.2,591.4z"/>
	<path class="st36" d="M649.8,502.2c0,0-20.9,56.4-17.5,73.1s17.5,15.5,17.5,15.5s14.1,1.2,17.5-15.5S649.8,502.2,649.8,502.2z"/>
	<path class="st15" d="M649.8,528.8c-1.2,0-2.1,0.9-2.1,2.1c0,0,0,0,0,0v66.3h4.2v-66.3C651.9,529.8,651,528.8,649.8,528.8z"/>
	<path class="st36" d="M1360.6,566.7c0,0-20.9,56.4-17.5,73.1s17.5,15.5,17.5,15.5s14.1,1.2,17.5-15.5S1360.6,566.7,1360.6,566.7z"
		/>
	<path class="st15" d="M1360.6,593.3c-1.2,0-2.1,0.9-2.1,2.1c0,0,0,0,0,0v66.4h4.2v-66.3C1362.7,594.3,1361.8,593.3,1360.6,593.3
		C1360.6,593.3,1360.6,593.3,1360.6,593.3z"/>
	<path class="st36" d="M1503.6,549.4c0,0-14.7,39.6-12.3,51.3s12.3,10.9,12.3,10.9s9.9,0.8,12.3-10.9S1503.6,549.4,1503.6,549.4z"/>
	<path class="st15" d="M1503.6,568.1c-0.8,0-1.5,0.6-1.5,1.5c0,0,0,0,0,0v46.6h3v-46.6C1505.1,568.8,1504.4,568.1,1503.6,568.1
		C1503.6,568.1,1503.6,568.1,1503.6,568.1z"/>
	
		<ellipse transform="matrix(0.3827 -0.9239 0.9239 0.3827 202.9692 1221.7849)" class="st37" cx="1015.8" cy="459" rx="17.2" ry="17.2"/>
	<circle class="st38" cx="1037.9" cy="483.3" r="13.6"/>
	<circle class="st38" cx="995.4" cy="472.6" r="13.6"/>
	<path class="st15" d="M995.7,473.7L995.7,473.7c0.7-0.7,1.8-0.7,2.5,0c0,0,0,0,0,0l15.2,15.2v-26.5c0-1.3,1-2.3,2.3-2.3
		c0,0,0,0,0,0l0,0c1.3,0,2.3,1,2.3,2.3c0,0,0,0,0,0V500l15.4-15.4c0.7-0.7,1.8-0.8,2.5-0.1c0.7,0.7,0.8,1.8,0.1,2.5
		c0,0-0.1,0.1-0.1,0.1l-17.9,17.9v30.8h-4.7V494l-17.8-17.8C995,475.5,995,474.4,995.7,473.7C995.7,473.7,995.7,473.7,995.7,473.7z"
		/>
	<circle class="st37" cx="1523.1" cy="518.5" r="17.2"/>
	<circle class="st38" cx="1545.2" cy="542.8" r="13.6"/>
	<circle class="st38" cx="1502.7" cy="532.1" r="13.6"/>
	<path class="st15" d="M1503,533.2L1503,533.2c0.7-0.7,1.8-0.7,2.5,0c0,0,0,0,0,0l15.2,15.2v-26.5c0-1.3,1-2.3,2.3-2.3c0,0,0,0,0,0
		l0,0c1.3,0,2.3,1,2.3,2.3v37.6l15.4-15.4c0.7-0.7,1.8-0.7,2.5,0c0.7,0.7,0.7,1.8,0,2.5l0,0l-17.9,17.9v30.8h-4.7v-41.9l-17.8-17.8
		C1502.3,535,1502.3,533.9,1503,533.2C1503,533.2,1503,533.2,1503,533.2z"/>
	<circle class="st37" cx="1150.7" cy="461.4" r="11.2"/>
	<circle class="st38" cx="1165.2" cy="477.2" r="8.9"/>
	<circle class="st38" cx="1137.3" cy="470.2" r="8.9"/>
	<path class="st15" d="M1137.5,471L1137.5,471c0.4-0.5,1.2-0.5,1.6,0c0,0,0,0,0,0l10,10v-17.4c0-0.8,0.7-1.5,1.5-1.5c0,0,0,0,0,0
		l0,0c0.8,0,1.5,0.7,1.5,1.5c0,0,0,0,0,0v24.6l10.1-10.1c0.5-0.5,1.2-0.5,1.7,0c0.5,0.5,0.5,1.2,0,1.7l0,0l-11.7,11.7v20.2h-3v-27.4
		l-11.7-11.6C1137,472.1,1137,471.4,1137.5,471C1137.5,471,1137.5,471,1137.5,471z"/>
	<circle class="st37" cx="150.8" cy="558.3" r="11.5"/>
	
		<ellipse transform="matrix(3.327788e-02 -0.9994 0.9994 3.327788e-02 -414.1538 721.0576)" class="st38" cx="165.7" cy="574.6" rx="9.1" ry="9.1"/>
	<circle class="st38" cx="137.2" cy="567.4" r="9.1"/>
	<path class="st15" d="M137.4,568.2L137.4,568.2c0.5-0.5,1.2-0.5,1.7,0c0,0,0,0,0,0l10.2,10.2v-17.8c0-0.9,0.7-1.5,1.5-1.6
		c0,0,0,0,0,0l0,0c0.9,0,1.6,0.7,1.6,1.5c0,0,0,0,0,0v25.2l10.3-10.3c0.5-0.5,1.2-0.5,1.7,0c0.5,0.5,0.5,1.2,0,1.7l-12,12v20.6h-3.1
		v-28.1l-11.9-11.9C136.9,569.4,136.9,568.7,137.4,568.2C137.3,568.2,137.3,568.2,137.4,568.2z"/>
	<path class="st35" d="M211.8,573.8c0,0-7.3,19.7-6.1,25.6s6.1,5.4,6.1,5.4s4.9,0.4,6.1-5.4S211.8,573.8,211.8,573.8z"/>
	<path class="st15" d="M211.8,583.1L211.8,583.1c-0.4,0-0.7,0.3-0.7,0.7V607h1.5v-23.2C212.6,583.4,212.2,583.1,211.8,583.1
		C211.8,583.1,211.8,583.1,211.8,583.1z"/>
	<path class="st35" d="M183.2,559.2c0,0-7.3,19.7-6.1,25.5s6.1,5.4,6.1,5.4s5,0.4,6.1-5.4S183.2,559.2,183.2,559.2z"/>
	<path class="st15" d="M183.2,568.5L183.2,568.5c-0.4,0-0.7,0.3-0.7,0.7v23.2h1.5v-23.2C183.9,568.8,183.6,568.5,183.2,568.5
		C183.2,568.5,183.2,568.5,183.2,568.5z"/>
	<path class="st33" d="M182.9,548.1c-1.9-4.8,0.5-10.3,5.3-12.2c4.8-1.9,10.3,0.5,12.2,5.3c0.4,1.1,0.7,2.3,0.7,3.4
		c0,1.2-0.2,2.4-0.6,3.5c-0.5,1.3-0.2,2.8,0.9,3.8c5.9,5.3,6.3,14.4,1,20.2s-14.4,6.3-20.2,1c-5.9-5.3-6.3-14.4-1-20.2
		c0.3-0.3,0.6-0.7,1-1C183.1,550.9,183.4,549.4,182.9,548.1z"/>
	<path class="st31" d="M191.9,544.5L191.9,544.5c0.4,0,0.7,0.3,0.7,0.7v42.6c0,0.4-0.3,0.7-0.7,0.7l0,0c-0.4,0-0.7-0.3-0.7-0.7
		v-42.6C191.2,544.8,191.5,544.5,191.9,544.5z"/>
	<path class="st31" d="M184.6,559.2l7.3,6.5c0.1,0.1,0.2,0.3,0.2,0.5l0,0c0,0.4-0.3,0.7-0.7,0.7c-0.2,0-0.3-0.1-0.5-0.2l-7.3-6.5
		c-0.1-0.1-0.2-0.3-0.2-0.5l0,0c0-0.4,0.3-0.7,0.7-0.7C184.3,559,184.5,559.1,184.6,559.2z"/>
	<path class="st31" d="M191.2,551.3L191.2,551.3c0,0.4,0.3,0.7,0.7,0.7c0.2,0,0.3-0.1,0.4-0.2l0.2-0.2l4.1-3.6
		c0.1-0.1,0.2-0.3,0.2-0.5l0,0c0-0.4-0.3-0.7-0.7-0.7c-0.2,0-0.3,0.1-0.4,0.2l-3.2,2.8l-1.1,1C191.3,550.9,191.2,551.1,191.2,551.3z
		"/>
	<circle class="st32" cx="185.9" cy="554" r="1.1"/>
	<circle class="st32" cx="195.3" cy="540.4" r="1.1"/>
	<circle class="st32" cx="186.3" cy="571.1" r="1.1"/>
	<rect x="608.5" y="551" class="st13" width="0.6" height="27.8"/>
	<path class="st13" d="M611.2,555.9c-1.3,0.9-2,2.3-1.8,3.9l-0.6,0.5l-0.5-0.5c0.1-1.5-0.6-3-1.8-3.9c-0.7-0.5-1.7-0.3-2.2,0.5
		c-0.4,0.5-0.3,1.2,0,1.8c0.9,1.2,2.4,1.9,3.9,1.7l0.6,0.6l0.1-0.1l0.1,0.1l0.6-0.6c1.5,0.2,3-0.5,3.9-1.7c0.5-0.7,0.3-1.7-0.4-2.2
		C612.5,555.5,611.8,555.5,611.2,555.9z"/>
	<path class="st13" d="M611.2,561c-1.3,0.9-2,2.3-1.8,3.9l-0.6,0.5l-0.5-0.5c0.1-1.5-0.6-3-1.8-3.9c-0.7-0.5-1.7-0.3-2.2,0.5
		c-0.4,0.5-0.3,1.2,0,1.8c0.9,1.2,2.4,1.9,3.9,1.7l0.6,0.6l0.1-0.1l0.1,0.1l0.6-0.6c1.5,0.2,3-0.5,3.9-1.7c0.5-0.7,0.3-1.7-0.4-2.2
		C612.5,560.6,611.8,560.6,611.2,561z"/>
	<path class="st13" d="M611.2,565.7c-1.3,0.9-2,2.3-1.8,3.9l-0.6,0.5l-0.5-0.5c0.1-1.5-0.6-3-1.8-3.9c-0.7-0.5-1.7-0.3-2.2,0.5
		c-0.4,0.5-0.3,1.2,0,1.8c0.9,1.2,2.4,1.9,3.9,1.7l0.6,0.6l0.1-0.1l0.1,0.1l0.6-0.6c1.5,0.2,3-0.5,3.9-1.7c0.5-0.7,0.3-1.7-0.4-2.2
		C612.5,565.4,611.8,565.4,611.2,565.7z"/>
	<path class="st39" d="M610.2,545.9c0,1.6-0.6,2.9-1.4,2.9s-1.4-1.3-1.4-2.9s0.6-1.5,1.4-1.5S610.2,544.3,610.2,545.9z"/>
	<path class="st39" d="M612.6,548c-1.1,1.2-2.5,1.6-3,1.1s0-1.9,1.1-3s1.5-0.6,2-0.1S613.7,546.9,612.6,548z"/>
	<path class="st39" d="M612.7,551.2c-1.6,0-2.9-0.6-2.9-1.4s1.3-1.4,2.9-1.4s1.5,0.6,1.5,1.4S614.4,551.2,612.7,551.2z"/>
	<path class="st39" d="M610.6,553.5c-1.1-1.1-1.6-2.5-1.1-3s1.9,0,3,1.1s0.6,1.5,0.1,2S611.8,554.7,610.6,553.5z"/>
	<path class="st39" d="M607.5,553.7c0-1.6,0.6-2.9,1.4-2.9s1.4,1.3,1.4,2.9s-0.6,1.5-1.4,1.5S607.5,555.3,607.5,553.7z"/>
	<path class="st39" d="M605.1,551.6c1.1-1.1,2.5-1.6,3-1.1s0,1.9-1.1,3s-1.5,0.6-2,0.1S604,552.8,605.1,551.6z"/>
	<path class="st39" d="M605,548.4c1.6,0,2.9,0.6,2.9,1.4s-1.3,1.4-2.9,1.4s-1.4-0.6-1.4-1.4S603.3,548.4,605,548.4z"/>
	<path class="st39" d="M607.1,546.1c1.2,1.1,1.7,2.5,1.1,3s-1.9,0-3-1.1s-0.6-1.5-0.1-2S605.9,545,607.1,546.1z"/>
	<circle class="st40" cx="608.8" cy="549.8" r="1.6"/>
	<path class="st30" d="M1042.4,512.4c1.8-4.5-0.4-9.7-5-11.5c-4.5-1.8-9.7,0.4-11.5,5c-0.8,2.1-0.8,4.4,0,6.5
		c0.5,1.2,0.2,2.7-0.8,3.6c-5.5,5-5.9,13.5-0.9,19c5,5.5,13.5,5.9,19,0.9s5.9-13.5,0.9-19c-0.3-0.3-0.6-0.6-0.9-0.9
		C1042.2,515.1,1041.9,513.7,1042.4,512.4z"/>
	<path class="st34" d="M1041.7,522.3c-0.4-0.2-0.9-0.1-1.2,0.2l-5.4,4.8v-17.7c0-0.6-0.5-1.1-1.1-1.1s-1.1,0.5-1.1,1.1v3.2l-2.2-2
		c-0.3-0.3-0.8-0.4-1.2-0.2c-0.6,0.2-0.8,0.9-0.6,1.5c0.1,0.2,0.2,0.3,0.3,0.4l3.7,3.3v34.3c0,0.6,0.5,1.1,1.1,1.1s1.1-0.5,1.1-1.1
		l0,0v-19.8l0.1-0.1l6.8-6.1c0.5-0.4,0.5-1.1,0.1-1.6C1042,522.5,1041.8,522.4,1041.7,522.3L1041.7,522.3z"/>
	<circle class="st32" cx="1039.6" cy="518" r="1.1"/>
	<circle class="st32" cx="1030.7" cy="505.2" r="1.1"/>
	<circle class="st32" cx="1039.2" cy="534.1" r="1.1"/>
	<path class="st35" d="M201.5,557.7c0,0-7.3,19.7-6.1,25.6s6.1,5.4,6.1,5.4s4.9,0.4,6.1-5.4S201.5,557.7,201.5,557.7z"/>
	<path class="st15" d="M201.5,567L201.5,567c-0.4,0-0.7,0.3-0.7,0.7v23.2h1.5v-23.2C202.2,567.3,201.9,567,201.5,567z"/>
	<path class="st35" d="M229.5,556.7c0,0-7.3,19.7-6.1,25.6s6.1,5.4,6.1,5.4s4.9,0.4,6.1-5.4S229.5,556.7,229.5,556.7z"/>
	<path class="st15" d="M229.5,566L229.5,566c-0.4,0-0.7,0.3-0.7,0.7v23.2h1.5v-23.2C230.2,566.3,229.9,566,229.5,566z"/>
	<path class="st35" d="M1632.2,528.3c0,0-20.1,54.4-16.9,70.5s16.9,14.9,16.9,14.9s13.6,1.1,16.9-14.9S1632.2,528.3,1632.2,528.3z"
		/>
	<path class="st15" d="M1632.2,553.9L1632.2,553.9c-1.1,0-2,0.9-2,2v64h4v-64C1634.2,554.8,1633.4,553.9,1632.2,553.9z"/>
	<path class="st35" d="M807,490c0,0-20.1,54.4-16.9,70.5s16.9,14.9,16.9,14.9s13.6,1.1,16.9-14.9S807,490,807,490z"/>
	<path class="st15" d="M807,515.6L807,515.6c-1.1,0-2,0.9-2,2v64h4v-64C809,516.5,808.1,515.6,807,515.6z"/>
	<path class="st35" d="M586.4,510.7c0,0-20.1,54.4-16.9,70.5s16.9,14.9,16.9,14.9s13.6,1.1,16.9-14.9S586.4,510.7,586.4,510.7z"/>
	<path class="st15" d="M586.4,536.3L586.4,536.3c-1.1,0-2,0.9-2,2v64h4v-64C588.4,537.2,587.5,536.3,586.4,536.3z"/>
	<path class="st35" d="M620.3,459.6c0,0-26.2,70.9-22,91.9s22,19.5,22,19.5s17.8,1.5,22-19.5S620.3,459.6,620.3,459.6z"/>
	<path class="st15" d="M620.3,493L620.3,493c-1.5,0-2.6,1.2-2.6,2.6v83.4h5.3v-83.4C622.9,494.2,621.7,493,620.3,493
		C620.3,493,620.3,493,620.3,493z"/>
	<path class="st35" d="M701,468.1c0,0-13.5,36.4-11.3,47.1s11.3,10,11.3,10s9.1,0.8,11.3-10S701,468.1,701,468.1z"/>
	<path class="st15" d="M701,485.2L701,485.2c-0.7,0-1.3,0.6-1.3,1.4v42.8h2.7v-42.8C702.3,485.9,701.7,485.3,701,485.2
		C701,485.2,701,485.2,701,485.2z"/>
	<path class="st35" d="M136.5,579.1c0,0-9.6,26-8.1,33.7c1.5,7.7,8.1,7.2,8.1,7.2s6.5,0.5,8.1-7.2
		C146.1,605.1,136.5,579.1,136.5,579.1z"/>
	<path class="st15" d="M136.5,591.3L136.5,591.3c-0.6,0-1,0.4-1,1v30.6h1.9v-30.6C137.4,591.8,137,591.4,136.5,591.3z"/>
	<rect x="1042.3" y="531.8" class="st13" width="0.6" height="27.6"/>
	<path class="st13" d="M1045,536.7c-1.3,0.9-1.9,2.3-1.8,3.8l-0.6,0.5l-0.6-0.5c0.1-1.5-0.6-3-1.8-3.8c-0.7-0.5-1.7-0.3-2.2,0.4
		c-0.4,0.5-0.4,1.3,0,1.8c0.9,1.2,2.4,1.9,3.9,1.7l0.6,0.6l0.1-0.1l0.1,0.1l0.6-0.6c1.5,0.2,3-0.5,3.9-1.7c0.5-0.7,0.3-1.7-0.4-2.2
		C1046.3,536.3,1045.6,536.3,1045,536.7z"/>
	<path class="st13" d="M1045,541.8c-1.3,0.9-1.9,2.3-1.8,3.8l-0.6,0.5l-0.6-0.5c0.1-1.5-0.6-3-1.8-3.8c-0.7-0.5-1.7-0.3-2.2,0.4
		c-0.4,0.5-0.4,1.3,0,1.8c0.9,1.2,2.4,1.9,3.9,1.7l0.6,0.6l0.1-0.1l0.1,0.1l0.6-0.6c1.5,0.2,3-0.5,3.9-1.7c0.5-0.7,0.3-1.7-0.4-2.2
		C1046.3,541.4,1045.6,541.4,1045,541.8z"/>
	<path class="st13" d="M1045,546.5c-1.3,0.9-1.9,2.3-1.8,3.8l-0.6,0.5l-0.6-0.5c0.1-1.5-0.6-3-1.8-3.8c-0.7-0.5-1.7-0.3-2.2,0.5
		c-0.4,0.5-0.3,1.2,0,1.8c0.9,1.2,2.4,1.9,3.9,1.7l0.6,0.6l0.1-0.1l0.1,0.1l0.6-0.6c1.5,0.2,3-0.5,3.9-1.7c0.5-0.7,0.3-1.7-0.4-2.2
		C1046.2,546.2,1045.5,546.2,1045,546.5z"/>
	<path class="st39" d="M1044,526.8c0,1.6-0.6,2.9-1.4,2.9s-1.4-1.3-1.4-2.9s0.6-1.4,1.4-1.4S1044,525.2,1044,526.8z"/>
	<path class="st39" d="M1046.3,528.9c-1.1,1.1-2.5,1.6-3,1.1s0-1.9,1.1-3s1.4-0.6,2-0.1S1047.5,527.8,1046.3,528.9z"/>
	<path class="st39" d="M1046.5,532.1c-1.6,0-2.9-0.6-2.9-1.4s1.3-1.4,2.9-1.4s1.4,0.6,1.4,1.4S1048.1,532.1,1046.5,532.1z"/>
	<path class="st39" d="M1044.4,534.4c-1.1-1.1-1.6-2.5-1.1-3s1.9,0,3,1.1s0.6,1.5,0.1,2S1045.5,535.5,1044.4,534.4z"/>
	<path class="st39" d="M1041.3,534.6c0-1.6,0.6-2.9,1.4-2.9s1.4,1.3,1.4,2.9s-0.6,1.5-1.4,1.5S1041.3,536.2,1041.3,534.6z"/>
	<path class="st39" d="M1038.9,532.4c1.1-1.1,2.5-1.6,3-1.1s0,1.9-1.1,3s-1.5,0.6-2,0.1S1037.8,533.6,1038.9,532.4z"/>
	<path class="st39" d="M1038.8,529.3c1.6,0,2.9,0.6,2.9,1.4s-1.3,1.4-2.9,1.4s-1.4-0.6-1.4-1.4S1037.2,529.3,1038.8,529.3z"/>
	<path class="st39" d="M1040.9,527c1.1,1.1,1.6,2.5,1.1,3s-1.9,0-3-1.1s-0.6-1.5-0.1-2S1039.7,525.9,1040.9,527z"/>
	<circle class="st40" cx="1042.6" cy="530.7" r="1.6"/>
	<rect x="1162.4" y="495.2" class="st13" width="0.4" height="17.7"/>
	<path class="st13" d="M1164.1,498.4c-0.8,0.6-1.2,1.5-1.2,2.5l-0.3,0.3l-0.4-0.3c0.1-1-0.4-1.9-1.2-2.5c-0.4-0.4-1.1-0.3-1.4,0.1
		c-0.3,0.4-0.3,0.9,0,1.3c0.6,0.8,1.5,1.2,2.5,1.1l0.4,0.4v0v0l0.4-0.4c1,0.1,1.9-0.3,2.5-1.1c0.3-0.5,0.2-1.1-0.3-1.4
		C1164.8,498.2,1164.4,498.2,1164.1,498.4z"/>
	<path class="st13" d="M1164.1,501.6c-0.8,0.6-1.2,1.5-1.2,2.5l-0.3,0.3l-0.4-0.3c0.1-1-0.4-1.9-1.2-2.5c-0.4-0.4-1.1-0.3-1.4,0.1
		c-0.3,0.4-0.3,0.9,0,1.3c0.6,0.8,1.5,1.2,2.5,1.1l0.4,0.4v0v0l0.4-0.4c1,0.1,1.9-0.3,2.5-1.1c0.3-0.5,0.2-1.1-0.3-1.4
		C1164.8,501.5,1164.4,501.5,1164.1,501.6z"/>
	<path class="st13" d="M1164.1,504.6c-0.8,0.6-1.2,1.5-1.2,2.5l-0.3,0.3l-0.4-0.3c0.1-1-0.4-1.9-1.2-2.5c-0.4-0.4-1.1-0.3-1.4,0.1
		c-0.3,0.4-0.3,0.9,0,1.3c0.6,0.8,1.5,1.2,2.5,1.1l0.4,0.4l0,0l0,0l0.4-0.4c1,0.1,1.9-0.3,2.5-1.1c0.3-0.5,0.2-1.1-0.3-1.4
		C1164.8,504.5,1164.4,504.5,1164.1,504.6z"/>
	<path class="st39" d="M1163.4,492c0,1-0.4,1.9-0.9,1.9s-0.9-0.8-0.9-1.9s0.4-0.9,0.9-0.9S1163.4,491,1163.4,492z"/>
	<path class="st39" d="M1164.9,493.4c-0.7,0.7-1.6,1-1.9,0.7s0-1.2,0.7-1.9s0.9-0.4,1.3,0S1165.7,492.7,1164.9,493.4z"/>
	<path class="st39" d="M1165,495.4c-1,0-1.9-0.4-1.9-0.9s0.8-0.9,1.9-0.9s0.9,0.4,0.9,0.9S1166.1,495.4,1165,495.4z"/>
	<path class="st39" d="M1163.7,496.9c-0.7-0.7-1-1.6-0.7-1.9s1.2,0,1.9,0.7s0.4,0.9,0,1.3S1164.4,497.6,1163.7,496.9z"/>
	<path class="st39" d="M1161.7,497c0-1,0.4-1.9,0.9-1.9s0.9,0.8,0.9,1.9s-0.4,0.9-0.9,0.9S1161.7,498,1161.7,497z"/>
	<path class="st39" d="M1160.2,495.6c0.7-0.7,1.6-1,1.9-0.7s0,1.2-0.7,1.9s-0.9,0.4-1.3,0S1159.5,496.4,1160.2,495.6z"/>
	<path class="st39" d="M1160.1,493.6c1,0,1.9,0.4,1.9,0.9s-0.8,0.9-1.9,0.9s-0.9-0.4-0.9-0.9S1159.1,493.6,1160.1,493.6z"/>
	<path class="st39" d="M1161.4,492.2c0.7,0.7,1,1.6,0.7,1.9s-1.2,0-1.9-0.7s-0.4-0.9,0-1.3S1160.7,491.4,1161.4,492.2z"/>
	<circle class="st40" cx="1162.6" cy="494.5" r="1"/>
	<rect x="1231.2" y="591" class="st13" width="0.6" height="27.6"/>
	<path class="st13" d="M1233.9,595.8c-1.3,0.9-1.9,2.3-1.8,3.8l-0.6,0.5l-0.6-0.5c0.1-1.5-0.6-3-1.8-3.8c-0.7-0.5-1.7-0.3-2.2,0.5
		c-0.4,0.5-0.3,1.2,0,1.8c0.9,1.2,2.4,1.9,3.9,1.7l0.6,0.6l0.1-0.1l0.1,0.1l0.6-0.6c1.5,0.2,3-0.5,3.9-1.7c0.5-0.7,0.3-1.7-0.4-2.2
		C1235.2,595.5,1234.5,595.5,1233.9,595.8z"/>
	<path class="st13" d="M1233.9,600.9c-1.3,0.9-1.9,2.3-1.8,3.8l-0.6,0.5l-0.6-0.5c0.1-1.5-0.6-3-1.8-3.8c-0.7-0.5-1.7-0.3-2.2,0.5
		c-0.4,0.5-0.3,1.2,0,1.8c0.9,1.2,2.4,1.9,3.9,1.7l0.6,0.6l0.1-0.1l0.1,0.1l0.6-0.6c1.5,0.2,3-0.5,3.9-1.7c0.5-0.7,0.3-1.7-0.4-2.2
		C1235.2,600.6,1234.5,600.6,1233.9,600.9z"/>
	<path class="st13" d="M1233.9,605.7c-1.3,0.9-1.9,2.3-1.8,3.8l-0.6,0.5l-0.6-0.5c0.1-1.5-0.6-3-1.8-3.8c-0.7-0.5-1.7-0.3-2.2,0.4
		c-0.4,0.5-0.4,1.3,0,1.8c0.9,1.2,2.4,1.9,3.9,1.7l0.6,0.6l0.1-0.1l0.1,0.1l0.6-0.6c1.5,0.2,3-0.5,3.9-1.7c0.5-0.7,0.3-1.7-0.4-2.2
		C1235.2,605.3,1234.5,605.3,1233.9,605.7z"/>
	<path class="st39" d="M1232.9,586c0,1.6-0.6,2.9-1.4,2.9s-1.4-1.3-1.4-2.9s0.6-1.4,1.4-1.4S1232.9,584.4,1232.9,586z"/>
	<path class="st39" d="M1235.3,588.1c-1.1,1.1-2.5,1.6-3,1.1s0-1.9,1.1-3s1.4-0.6,2-0.1S1236.4,586.9,1235.3,588.1z"/>
	<path class="st39" d="M1235.4,591.2c-1.6,0-2.9-0.6-2.9-1.4s1.3-1.4,2.9-1.4s1.4,0.6,1.4,1.4S1237,591.2,1235.4,591.2z"/>
	<path class="st39" d="M1233.3,593.5c-1.1-1.1-1.6-2.5-1.1-3s1.9,0,3,1.1s0.6,1.5,0.1,2S1234.5,594.7,1233.3,593.5z"/>
	<path class="st39" d="M1230.2,593.7c0-1.6,0.6-2.9,1.4-2.9s1.4,1.3,1.4,2.9s-0.6,1.4-1.4,1.4S1230.2,595.3,1230.2,593.7z"/>
	<path class="st39" d="M1227.9,591.6c1.1-1.1,2.5-1.6,3-1.1s0,1.9-1.1,3s-1.5,0.6-2,0.1S1226.7,592.7,1227.9,591.6z"/>
	<path class="st39" d="M1227.7,588.4c1.6,0,2.9,0.6,2.9,1.4s-1.3,1.4-2.9,1.4s-1.4-0.6-1.4-1.4S1226.1,588.4,1227.7,588.4z"/>
	<path class="st39" d="M1229.8,586.1c1.1,1.1,1.6,2.5,1.1,3s-1.9,0-3-1.1s-0.6-1.5-0.1-2S1228.7,585,1229.8,586.1z"/>
	<circle class="st40" cx="1231.6" cy="589.8" r="1.6"/>
	<rect x="1219.4" y="598.7" class="st13" width="0.3" height="14"/>
	<path class="st13" d="M1220.7,601.2c-0.7,0.4-1,1.2-0.9,2l-0.3,0.3l-0.3-0.3c0.1-0.8-0.3-1.6-0.9-2c-0.4-0.3-0.9-0.2-1.1,0.2
		c-0.2,0.3-0.2,0.6,0,0.9c0.5,0.6,1.2,1,2,0.9l0.3,0.3l0,0l0,0l0.3-0.3c0.8,0.1,1.5-0.2,2-0.9c0.2-0.4,0.1-0.9-0.2-1.1
		C1221.3,601,1221,601,1220.7,601.2z"/>
	<path class="st13" d="M1220.7,603.8c-0.6,0.4-1,1.2-0.9,2l-0.3,0.3l-0.3-0.3c0.1-0.8-0.3-1.5-0.9-2c-0.4-0.3-0.9-0.2-1.1,0.2
		c-0.2,0.3-0.2,0.7,0,1c0.5,0.6,1.2,1,2,0.9l0.3,0.3l0,0l0,0l0.3-0.3c0.8,0.1,1.5-0.2,2-0.9c0.3-0.4,0.2-0.9-0.2-1.1
		C1221.4,603.6,1221,603.6,1220.7,603.8z"/>
	<path class="st13" d="M1220.7,606.2c-0.7,0.4-1,1.2-0.9,2l-0.3,0.3l-0.3-0.3c0.1-0.8-0.3-1.6-0.9-2c-0.4-0.3-0.9-0.2-1.1,0.2
		c-0.2,0.3-0.2,0.7,0,1c0.5,0.6,1.2,1,2,0.9l0.3,0.3l0,0l0,0l0.3-0.3c0.8,0.1,1.5-0.2,2-0.9c0.3-0.4,0.2-0.9-0.2-1.1
		C1221.4,606,1221,606,1220.7,606.2z"/>
	<path class="st39" d="M1220.2,596.2c0,0.8-0.3,1.5-0.7,1.5s-0.7-0.7-0.7-1.5s0.3-0.7,0.7-0.7S1220.2,595.4,1220.2,596.2z"/>
	<path class="st39" d="M1221.4,597.2c-0.6,0.6-1.3,0.8-1.5,0.6s0-1,0.6-1.5s0.7-0.3,1,0S1222,596.7,1221.4,597.2z"/>
	<path class="st39" d="M1221.5,598.8c-0.8,0-1.5-0.3-1.5-0.7s0.7-0.7,1.5-0.7s0.7,0.3,0.7,0.7S1222.3,598.8,1221.5,598.8z"/>
	<path class="st39" d="M1220.4,600c-0.6-0.6-0.8-1.3-0.6-1.5s1,0,1.5,0.6s0.3,0.7,0,1S1221,600.6,1220.4,600z"/>
	<path class="st39" d="M1218.8,600.1c0-0.8,0.3-1.5,0.7-1.5s0.7,0.7,0.7,1.5s-0.3,0.7-0.7,0.7S1218.8,600.9,1218.8,600.1z"/>
	<path class="st39" d="M1217.6,599c0.6-0.6,1.3-0.8,1.5-0.6s0,1-0.6,1.5s-0.7,0.3-1,0S1217.1,599.6,1217.6,599z"/>
	<path class="st39" d="M1217.6,597.4c0.8,0,1.5,0.3,1.5,0.7s-0.7,0.7-1.5,0.7s-0.7-0.3-0.7-0.7S1216.7,597.4,1217.6,597.4z"/>
	<path class="st39" d="M1218.6,596.3c0.6,0.6,0.8,1.3,0.6,1.5s-1,0-1.5-0.6s-0.3-0.7,0-1S1218,595.7,1218.6,596.3z"/>
	<circle class="st40" cx="1219.5" cy="598.1" r="0.8"/>
	<rect x="1210.2" y="589.9" class="st13" width="0.4" height="19"/>
	<path class="st13" d="M1212,593.3c-0.9,0.6-1.3,1.6-1.2,2.6l-0.4,0.4l-0.4-0.4c0.1-1-0.4-2-1.3-2.6c-0.5-0.3-1.2-0.2-1.5,0.3
		c-0.3,0.4-0.3,0.9,0,1.3c0.6,0.8,1.6,1.3,2.7,1.2l0.4,0.4l0.1,0v0l0.4-0.4c1,0.1,2.1-0.3,2.7-1.2c0.3-0.5,0.2-1.2-0.3-1.5
		C1212.8,593.1,1212.4,593.1,1212,593.3z"/>
	<path class="st13" d="M1212,596.8c-0.9,0.6-1.3,1.6-1.2,2.6l-0.4,0.4l-0.4-0.4c0.1-1-0.4-2-1.3-2.6c-0.5-0.3-1.2-0.2-1.5,0.3
		c-0.3,0.4-0.3,0.9,0,1.3c0.6,0.8,1.6,1.3,2.7,1.2l0.4,0.4l0.1,0v0l0.4-0.4c1,0.1,2.1-0.3,2.7-1.2c0.3-0.5,0.2-1.2-0.3-1.5
		C1212.8,596.6,1212.4,596.6,1212,596.8z"/>
	<path class="st13" d="M1212,600c-0.9,0.6-1.3,1.6-1.2,2.6l-0.4,0.4l-0.4-0.4c0.1-1-0.4-2-1.3-2.6c-0.5-0.3-1.2-0.2-1.5,0.3
		c-0.3,0.4-0.3,0.9,0,1.3c0.6,0.8,1.6,1.3,2.7,1.2l0.4,0.4l0.1,0v0l0.4-0.4c1,0.1,2.1-0.3,2.7-1.2c0.3-0.5,0.2-1.2-0.3-1.5
		C1212.8,599.8,1212.4,599.8,1212,600z"/>
	<path class="st39" d="M1211.3,586.4c0,1.1-0.4,2-0.9,2s-0.9-0.9-0.9-2s0.4-1,0.9-1S1211.3,585.4,1211.3,586.4z"/>
	<path class="st39" d="M1212.9,587.9c-0.8,0.8-1.7,1.1-2.1,0.8s0-1.3,0.8-2.1s1-0.4,1.4,0S1213.7,587.1,1212.9,587.9z"/>
	<path class="st39" d="M1213.1,590.1c-1.1,0-2-0.4-2-0.9s0.9-0.9,2-0.9s1,0.4,1,0.9S1214.2,590.1,1213.1,590.1z"/>
	<path class="st39" d="M1211.6,591.7c-0.8-0.8-1.1-1.7-0.8-2.1s1.3,0,2.1,0.8s0.4,1,0,1.4S1212.4,592.4,1211.6,591.7z"/>
	<path class="st39" d="M1209.5,591.8c0-1.1,0.4-2,0.9-2s0.9,0.9,0.9,2s-0.4,1-0.9,1S1209.5,592.9,1209.5,591.8z"/>
	<path class="st39" d="M1207.9,590.3c0.8-0.8,1.7-1.1,2.1-0.8s0,1.3-0.8,2.1s-1,0.4-1.4,0S1207.1,591.1,1207.9,590.3z"/>
	<path class="st39" d="M1207.8,588.2c1.1,0,2,0.4,2,0.9s-0.9,0.9-2,0.9s-1-0.4-1-0.9S1206.6,588.2,1207.8,588.2z"/>
	<path class="st39" d="M1209.2,586.6c0.8,0.8,1.1,1.7,0.8,2.1s-1.3,0-2.1-0.8s-0.4-1,0-1.4S1208.4,585.8,1209.2,586.6z"/>
	<circle class="st40" cx="1210.4" cy="589.1" r="1.1"/>
	<rect x="901.8" y="478.1" class="st13" width="0.8" height="34.9"/>
	<path class="st13" d="M905.2,484.2c-1.6,1.1-2.5,2.9-2.3,4.8l-0.7,0.7l-0.7-0.7c0.2-1.9-0.7-3.8-2.3-4.8c-0.9-0.6-2.2-0.4-2.8,0.5
		c-0.5,0.7-0.5,1.6,0,2.3c1.1,1.6,3,2.4,4.9,2.2l0.8,0.7l0.1-0.1l0.1,0.1l0.8-0.7c1.9,0.2,3.8-0.6,4.9-2.2c0.6-0.9,0.4-2.1-0.5-2.8
		C906.8,483.8,905.9,483.8,905.2,484.2z"/>
	<path class="st13" d="M905.2,490.7c-1.6,1.1-2.5,2.9-2.3,4.8l-0.7,0.7l-0.7-0.7c0.2-1.9-0.7-3.8-2.3-4.8c-0.9-0.6-2.2-0.4-2.8,0.5
		c-0.5,0.7-0.5,1.6,0,2.3c1.1,1.5,3,2.4,4.9,2.2l0.8,0.7l0.1-0.1l0.1,0.1l0.8-0.7c1.9,0.2,3.8-0.6,4.9-2.2c0.7-0.9,0.5-2.1-0.4-2.8
		C906.9,490.2,905.9,490.2,905.2,490.7z"/>
	<path class="st13" d="M905.2,496.7c-1.6,1.1-2.5,2.9-2.3,4.8l-0.7,0.7l-0.7-0.7c0.2-1.9-0.7-3.8-2.3-4.8c-0.9-0.6-2.2-0.4-2.8,0.5
		c-0.5,0.7-0.5,1.6,0,2.3c1.1,1.5,3,2.4,4.9,2.2l0.8,0.7l0.1-0.1l0.1,0.1l0.8-0.7c1.9,0.2,3.8-0.6,4.9-2.2c0.7-0.9,0.5-2.1-0.4-2.8
		C906.9,496.2,905.9,496.2,905.2,496.7z"/>
	<path class="st39" d="M903.9,471.8c0,2-0.8,3.7-1.7,3.7s-1.7-1.7-1.7-3.7s0.8-1.8,1.7-1.8S903.9,469.7,903.9,471.8z"/>
	<path class="st39" d="M906.9,474.4c-1.4,1.4-3.2,2.1-3.8,1.4s0-2.4,1.4-3.8s1.8-0.7,2.5-0.1S908.3,473,906.9,474.4z"/>
	<path class="st39" d="M907.1,478.4c-2,0-3.7-0.8-3.7-1.7s1.7-1.7,3.7-1.7s1.8,0.8,1.8,1.7S909.1,478.4,907.1,478.4z"/>
	<path class="st39" d="M904.5,481.3c-1.4-1.4-2.1-3.2-1.4-3.8s2.4,0,3.8,1.4s0.8,1.8,0.1,2.5S905.9,482.8,904.5,481.3z"/>
	<path class="st39" d="M900.5,481.5c0-2,0.8-3.7,1.7-3.7s1.7,1.7,1.7,3.7s-0.8,1.8-1.7,1.8S900.5,483.6,900.5,481.5z"/>
	<path class="st39" d="M897.5,478.9c1.4-1.4,3.2-2.1,3.8-1.4s0,2.4-1.4,3.8s-1.8,0.8-2.5,0.1S896.1,480.3,897.5,478.9z"/>
	<path class="st39" d="M897.3,474.9c2,0,3.7,0.8,3.7,1.7s-1.7,1.7-3.7,1.7s-1.8-0.8-1.8-1.7S895.3,474.9,897.3,474.9z"/>
	<path class="st39" d="M900,472c1.4,1.4,2.1,3.2,1.4,3.8s-2.4,0-3.8-1.4s-0.8-1.8-0.1-2.5S898.5,470.5,900,472z"/>
	<circle class="st40" cx="902.2" cy="476.7" r="2"/>
	<rect x="764.1" y="540.4" class="st13" width="0.5" height="19.8"/>
	<path class="st13" d="M766.1,543.9c-0.9,0.6-1.4,1.7-1.3,2.8l-0.4,0.4l-0.4-0.4c0.1-1.1-0.4-2.1-1.3-2.8c-0.5-0.3-1.2-0.2-1.6,0.3
		c-0.2,0.4-0.2,0.9,0,1.3c0.6,0.9,1.7,1.4,2.8,1.2l0.4,0.4h0l0,0l0.4-0.4c1.1,0.1,2.2-0.3,2.8-1.2c0.3-0.5,0.2-1.2-0.4-1.6
		C766.9,543.7,766.4,543.7,766.1,543.9z"/>
	<path class="st13" d="M766.1,547.6c-0.9,0.6-1.4,1.7-1.3,2.8l-0.4,0.4l-0.4-0.4c0.1-1.1-0.4-2.1-1.3-2.8c-0.5-0.3-1.2-0.2-1.6,0.3
		c-0.3,0.4-0.3,0.9,0,1.3c0.6,0.9,1.7,1.4,2.8,1.2l0.4,0.4h0l0,0l0.4-0.4c1.1,0.1,2.1-0.4,2.8-1.2c0.3-0.5,0.2-1.2-0.4-1.6
		C766.9,547.4,766.4,547.4,766.1,547.6z"/>
	<path class="st13" d="M766.1,551c-0.9,0.6-1.4,1.7-1.3,2.8l-0.4,0.4l-0.4-0.4c0.1-1.1-0.4-2.1-1.3-2.8c-0.5-0.3-1.2-0.2-1.6,0.3
		c-0.2,0.4-0.2,0.9,0,1.3c0.6,0.9,1.7,1.4,2.8,1.2l0.4,0.4h0l0,0l0.4-0.4c1.1,0.1,2.2-0.3,2.8-1.2c0.3-0.5,0.2-1.2-0.4-1.6
		C766.9,550.8,766.4,550.8,766.1,551z"/>
	<path class="st39" d="M765.3,536.8c0,1.2-0.4,2.1-1,2.1s-1-0.9-1-2.1s0.4-1,1-1S765.3,535.7,765.3,536.8z"/>
	<path class="st39" d="M767,538.3c-0.8,0.8-1.8,1.2-2.2,0.8s0-1.4,0.8-2.2s1-0.4,1.4,0S767.8,537.5,767,538.3z"/>
	<path class="st39" d="M767.1,540.6c-1.2,0-2.1-0.4-2.1-1s1-1,2.1-1s1,0.4,1,1S768.3,540.6,767.1,540.6z"/>
	<path class="st39" d="M765.6,542.3c-0.8-0.8-1.2-1.8-0.8-2.2s1.4,0,2.2,0.8s0.4,1,0,1.4S766.5,543.1,765.6,542.3z"/>
	<path class="st39" d="M763.4,542.4c0-1.2,0.4-2.1,1-2.1s1,0.9,1,2.1s-0.4,1-1,1S763.4,543.5,763.4,542.4z"/>
	<path class="st39" d="M761.7,540.9c0.8-0.8,1.8-1.2,2.2-0.8s0,1.4-0.8,2.2s-1,0.4-1.4,0S760.9,541.7,761.7,540.9z"/>
	<path class="st39" d="M761.6,538.6c1.2,0,2.1,0.4,2.1,1s-0.9,1-2.1,1s-1-0.4-1-1S760.4,538.6,761.6,538.6z"/>
	<path class="st39" d="M763.1,536.9c0.8,0.8,1.2,1.8,0.8,2.2s-1.4,0-2.2-0.8s-0.4-1,0-1.4S762.3,536.1,763.1,536.9z"/>
	<circle class="st40" cx="764.4" cy="539.6" r="1.2"/>
	<rect x="1055.8" y="543.9" class="st13" width="0.5" height="16"/>
	<path class="st13" d="M1051.5,547.1c0.4,4.2,3.5,4.1,4.1,4l0.5,0.5l0.1-0.1l-0.5-0.5C1055.7,550.4,1055.7,547.4,1051.5,547.1z"/>
	<path class="st13" d="M1060.7,547.1c-0.4,4.2-3.5,4.1-4.1,4l-0.5,0.5l-0.1-0.1l0.5-0.5C1056.5,550.4,1056.5,547.4,1060.7,547.1z"/>
	<path class="st13" d="M1051.5,551.3c0.4,4.2,3.5,4.1,4.1,4l0.5,0.5l0.1-0.1l-0.5-0.5C1055.7,554.7,1055.7,551.6,1051.5,551.3z"/>
	<path class="st13" d="M1060.7,551.3c-0.4,4.2-3.5,4.1-4.1,4l-0.5,0.5l-0.1-0.1l0.5-0.5C1056.5,554.7,1056.5,551.6,1060.7,551.3z"/>
	<ellipse class="st40" cx="1056.1" cy="540.1" rx="1.1" ry="2"/>
	<ellipse transform="matrix(0.7071 -0.7071 0.7071 0.7071 -72.6137 906.597)" class="st40" cx="1058.1" cy="541" rx="2" ry="1.1"/>
	<ellipse class="st40" cx="1058.9" cy="542.9" rx="2" ry="1.1"/>
	
		<ellipse transform="matrix(0.7071 -0.7071 0.7071 0.7071 -75.3792 907.7499)" class="st40" cx="1058.1" cy="544.9" rx="1.1" ry="2"/>
	<ellipse class="st40" cx="1056.1" cy="545.7" rx="1.1" ry="2"/>
	
		<ellipse transform="matrix(0.7071 -0.7071 0.7071 0.7071 -76.5364 904.9744)" class="st40" cx="1054.1" cy="544.9" rx="2" ry="1.1"/>
	<ellipse class="st40" cx="1053.3" cy="542.9" rx="2" ry="1.1"/>
	<ellipse transform="matrix(0.7071 -0.7071 0.7071 0.7071 -73.7637 903.8244)" class="st40" cx="1054.1" cy="541" rx="1.1" ry="2"/>
	<circle class="st39" cx="1056.1" cy="542.9" r="1.3"/>
	<rect x="791" y="584" class="st13" width="0.5" height="16"/>
	<path class="st13" d="M786.7,587.2c0.4,4.2,3.5,4.1,4.1,4l0.5,0.5l0.1-0.1l-0.5-0.5C790.9,590.6,790.9,587.5,786.7,587.2z"/>
	<path class="st13" d="M795.9,587.2c-0.4,4.2-3.5,4.1-4.1,4l-0.5,0.5l-0.1-0.1l0.5-0.5C791.7,590.6,791.7,587.5,795.9,587.2z"/>
	<path class="st13" d="M786.7,591.4c0.4,4.2,3.5,4.1,4.1,4l0.5,0.5l0.1-0.1l-0.5-0.5C790.9,594.8,790.9,591.7,786.7,591.4z"/>
	<path class="st13" d="M795.9,591.4c-0.4,4.2-3.5,4.1-4.1,4l-0.5,0.5l-0.1-0.1l0.5-0.5C791.7,594.8,791.7,591.7,795.9,591.4z"/>
	<ellipse class="st40" cx="791.3" cy="580.2" rx="1.1" ry="2"/>
	
		<ellipse transform="matrix(0.7071 -0.7071 0.7071 0.7071 -178.5366 731.1102)" class="st40" cx="793.3" cy="581.1" rx="2" ry="1.1"/>
	<ellipse class="st40" cx="794.1" cy="583" rx="2" ry="1.1"/>
	<ellipse transform="matrix(0.7071 -0.7071 0.7071 0.7071 -181.3022 732.2632)" class="st40" cx="793.3" cy="585" rx="1.1" ry="2"/>
	<ellipse class="st40" cx="791.3" cy="585.8" rx="1.1" ry="2"/>
	<ellipse transform="matrix(0.7071 -0.7071 0.7071 0.7071 -182.4522 729.4847)" class="st40" cx="789.3" cy="585" rx="2" ry="1.1"/>
	<ellipse class="st40" cx="788.5" cy="583" rx="2" ry="1.1"/>
	
		<ellipse transform="matrix(0.7071 -0.7071 0.7071 0.7071 -179.6795 728.3347)" class="st40" cx="789.3" cy="581.1" rx="1.1" ry="2"/>
	<circle class="st39" cx="791.3" cy="583" r="1.3"/>
	<rect x="781.3" y="544.1" class="st13" width="0.5" height="16"/>
	<path class="st13" d="M776.9,547.3c0.4,4.2,3.5,4.1,4.1,4.1l0.5,0.5l0.1-0.1l-0.5-0.5C781.1,550.7,781.2,547.6,776.9,547.3z"/>
	<path class="st13" d="M786.2,547.3c-0.4,4.2-3.5,4.1-4.1,4.1l-0.5,0.5l-0.1-0.1l0.5-0.5C781.9,550.7,781.9,547.6,786.2,547.3z"/>
	<path class="st13" d="M776.9,551.5c0.4,4.2,3.5,4.1,4.1,4.1l0.5,0.5l0.1-0.1l-0.5-0.5C781.1,554.9,781.2,551.8,776.9,551.5z"/>
	<path class="st13" d="M786.2,551.5c-0.4,4.2-3.5,4.1-4.1,4.1l-0.5,0.5l-0.1-0.1l0.5-0.5C781.9,554.9,781.9,551.8,786.2,551.5z"/>
	<ellipse class="st40" cx="781.5" cy="540.4" rx="1.1" ry="2"/>
	
		<ellipse transform="matrix(0.7071 -0.7071 0.7071 0.7071 -153.1962 712.5254)" class="st40" cx="783.5" cy="541.2" rx="2" ry="1.1"/>
	<ellipse class="st40" cx="784.3" cy="543.2" rx="2" ry="1.1"/>
	
		<ellipse transform="matrix(0.7071 -0.7071 0.7071 0.7071 -155.9788 713.6854)" class="st40" cx="783.5" cy="545.1" rx="1.1" ry="2"/>
	<ellipse class="st40" cx="781.5" cy="545.9" rx="1.1" ry="2"/>
	
		<ellipse transform="matrix(0.7071 -0.7071 0.7071 0.7071 -157.1318 710.8998)" class="st40" cx="779.6" cy="545.1" rx="2" ry="1.1"/>
	<ellipse class="st40" cx="778.8" cy="543.2" rx="2" ry="1.1"/>
	
		<ellipse transform="matrix(0.7071 -0.7071 0.7071 0.7071 -154.3533 709.7498)" class="st40" cx="779.6" cy="541.2" rx="1.1" ry="2"/>
	<circle class="st39" cx="781.5" cy="543.2" r="1.3"/>
	<rect x="774.8" y="570.7" class="st13" width="0.8" height="25"/>
	<path class="st13" d="M768,575.7c0.6,6.6,5.5,6.4,6.3,6.3l0.8,0.8l0.2-0.2l-0.8-0.8C774.5,581,774.6,576.2,768,575.7z"/>
	<path class="st13" d="M782.4,575.7c-0.6,6.6-5.5,6.4-6.3,6.3l-0.8,0.8l-0.2-0.2l0.8-0.8C775.8,581,775.8,576.2,782.4,575.7z"/>
	<path class="st13" d="M768,582.3c0.6,6.6,5.5,6.4,6.3,6.3l0.8,0.7l0.2-0.2l-0.8-0.8C774.5,587.5,774.6,582.7,768,582.3z"/>
	<path class="st13" d="M782.4,582.3c-0.6,6.6-5.5,6.4-6.3,6.3l-0.8,0.7l-0.2-0.2l0.8-0.8C775.8,587.5,775.8,582.7,782.4,582.3z"/>
	<ellipse class="st40" cx="775.2" cy="564.9" rx="1.8" ry="3.1"/>
	
		<ellipse transform="matrix(0.7071 -0.7071 0.7071 0.7071 -172.3736 716.1221)" class="st40" cx="778.2" cy="566.1" rx="3.1" ry="1.8"/>
	<ellipse class="st40" cx="779.5" cy="569.2" rx="3.1" ry="1.8"/>
	
		<ellipse transform="matrix(0.7071 -0.7071 0.7071 0.7071 -176.693 717.915)" class="st40" cx="778.3" cy="572.2" rx="1.8" ry="3.1"/>
	<ellipse class="st40" cx="775.2" cy="573.5" rx="1.8" ry="3.1"/>
	
		<ellipse transform="matrix(0.7071 -0.7071 0.7071 0.7071 -178.4901 713.5856)" class="st40" cx="772.1" cy="572.2" rx="3.1" ry="1.8"/>
	<ellipse class="st40" cx="770.9" cy="569.2" rx="3.1" ry="1.8"/>
	
		<ellipse transform="matrix(0.7071 -0.7071 0.7071 0.7071 -174.1637 711.7957)" class="st40" cx="772.1" cy="566.1" rx="1.8" ry="3.1"/>
	<circle class="st39" cx="775.2" cy="569.2" r="2.1"/>
	<rect x="1135.1" y="496.3" class="st13" width="0.5" height="16"/>
	<path class="st13" d="M1130.7,499.5c0.4,4.2,3.5,4.1,4.1,4.1l0.5,0.5l0.1-0.1l-0.5-0.5C1134.9,502.9,1135,499.8,1130.7,499.5z"/>
	<path class="st13" d="M1139.9,499.5c-0.4,4.2-3.5,4.1-4.1,4.1l-0.5,0.5l-0.1-0.1l0.5-0.5C1135.7,502.9,1135.7,499.8,1139.9,499.5z"
		/>
	<path class="st13" d="M1130.7,503.7c0.4,4.2,3.5,4.1,4.1,4.1l0.5,0.5l0.1-0.1l-0.5-0.5C1134.9,507.1,1135,504,1130.7,503.7z"/>
	<path class="st13" d="M1139.9,503.7c-0.4,4.2-3.5,4.1-4.1,4.1l-0.5,0.5l-0.1-0.1l0.5-0.5C1135.7,507.1,1135.7,504,1139.9,503.7z"/>
	<ellipse class="st40" cx="1135.3" cy="492.5" rx="1.1" ry="2"/>
	
		<ellipse transform="matrix(0.7071 -0.7071 0.7071 0.7071 -15.7432 948.6816)" class="st40" cx="1137.3" cy="493.3" rx="2" ry="1.1"/>
	<ellipse class="st40" cx="1138.1" cy="495.3" rx="2" ry="1.1"/>
	
		<ellipse transform="matrix(0.7071 -0.7071 0.7071 0.7071 -18.5117 949.8416)" class="st40" cx="1137.3" cy="497.3" rx="1.1" ry="2"/>
	<ellipse class="st40" cx="1135.3" cy="498.1" rx="1.1" ry="2"/>
	
		<ellipse transform="matrix(0.7071 -0.7071 0.7071 0.7071 -19.6717 947.059)" class="st40" cx="1133.4" cy="497.3" rx="2" ry="1.1"/>
	<ellipse class="st40" cx="1132.6" cy="495.3" rx="2" ry="1.1"/>
	
		<ellipse transform="matrix(0.7071 -0.7071 0.7071 0.7071 -16.8932 945.9089)" class="st40" cx="1133.4" cy="493.3" rx="1.1" ry="2"/>
	<circle class="st39" cx="1135.3" cy="495.3" r="1.3"/>
	<rect x="694.2" y="519.6" class="st13" width="0.8" height="24.2"/>
	<path class="st13" d="M687.6,524.5c0.6,6.4,5.3,6.2,6.2,6.1l0.7,0.7l0.2-0.2l-0.7-0.7C693.9,529.6,694,525,687.6,524.5z"/>
	<path class="st13" d="M701.5,524.5c-0.6,6.4-5.3,6.2-6.2,6.1l-0.7,0.7l-0.2-0.2l0.7-0.7C695.2,529.6,695.1,525,701.5,524.5z"/>
	<path class="st13" d="M687.6,530.9c0.6,6.4,5.3,6.2,6.2,6.2l0.7,0.7l0.2-0.2l-0.7-0.7C693.9,536,694,531.3,687.6,530.9z"/>
	<path class="st13" d="M701.5,530.9c-0.6,6.4-5.3,6.2-6.2,6.2l-0.7,0.7l-0.2-0.2l0.7-0.7C695.2,536,695.1,531.3,701.5,530.9z"/>
	<ellipse class="st40" cx="694.5" cy="514" rx="1.7" ry="3"/>
	
		<ellipse transform="matrix(0.7071 -0.7071 0.7071 0.7071 -160.0065 644.1166)" class="st40" cx="697.5" cy="515.2" rx="3" ry="1.7"/>
	<ellipse class="st40" cx="698.7" cy="518.2" rx="3" ry="1.7"/>
	
		<ellipse transform="matrix(0.7071 -0.7071 0.7071 0.7071 -164.2127 645.8625)" class="st40" cx="697.5" cy="521.2" rx="1.7" ry="3"/>
	<ellipse class="st40" cx="694.5" cy="522.4" rx="1.7" ry="3"/>
	
		<ellipse transform="matrix(0.7071 -0.7071 0.7071 0.7071 -165.9527 641.6563)" class="st40" cx="691.6" cy="521.2" rx="3" ry="1.7"/>
	<ellipse class="st40" cx="690.3" cy="518.2" rx="3" ry="1.7"/>
	
		<ellipse transform="matrix(0.7071 -0.7071 0.7071 0.7071 -161.7466 639.9163)" class="st40" cx="691.6" cy="515.2" rx="1.7" ry="3"/>
	<circle class="st39" cx="694.5" cy="518.2" r="2"/>
	<rect x="1219.6" y="569.8" class="st13" width="0.7" height="21.9"/>
	<path class="st13" d="M1213.7,574.2c0.6,5.8,4.8,5.6,5.6,5.5l0.7,0.7l0.1-0.1l-0.7-0.7C1219.4,578.8,1219.5,574.6,1213.7,574.2z"/>
	<path class="st13" d="M1226.3,574.2c-0.6,5.8-4.8,5.6-5.6,5.5l-0.7,0.7l-0.1-0.1l0.7-0.7C1220.6,578.8,1220.5,574.6,1226.3,574.2z"
		/>
	<path class="st13" d="M1213.7,580c0.6,5.8,4.8,5.6,5.6,5.5l0.7,0.7l0.1-0.1l-0.7-0.7C1219.4,584.6,1219.5,580.3,1213.7,580z"/>
	<path class="st13" d="M1226.3,580c-0.6,5.8-4.8,5.6-5.6,5.5l-0.7,0.7l-0.1-0.1l0.7-0.7C1220.6,584.6,1220.5,580.3,1226.3,580z"/>
	<ellipse class="st40" cx="1220" cy="564.7" rx="1.5" ry="2.7"/>
	
		<ellipse transform="matrix(0.7071 -0.7071 0.7071 0.7071 -41.9689 1030.2814)" class="st40" cx="1222.7" cy="565.8" rx="2.7" ry="1.5"/>
	<ellipse class="st40" cx="1223.8" cy="568.5" rx="2.7" ry="1.5"/>
	
		<ellipse transform="matrix(0.7071 -0.7071 0.7071 0.7071 -45.7619 1031.8584)" class="st40" cx="1222.7" cy="571.2" rx="1.5" ry="2.7"/>
	<ellipse class="st40" cx="1220" cy="572.3" rx="1.5" ry="2.7"/>
	
		<ellipse transform="matrix(0.7071 -0.7071 0.7071 0.7071 -47.342 1028.0525)" class="st40" cx="1217.3" cy="571.2" rx="2.7" ry="1.5"/>
	<ellipse class="st40" cx="1216.2" cy="568.5" rx="2.7" ry="1.5"/>
	
		<ellipse transform="matrix(0.7071 -0.7071 0.7071 0.7071 -43.5389 1026.4854)" class="st40" cx="1217.3" cy="565.8" rx="1.5" ry="2.7"/>
	<circle class="st39" cx="1220" cy="568.5" r="1.8"/>
	<rect x="1223.4" y="606" class="st13" width="0.4" height="13.5"/>
	<path class="st13" d="M1219.7,608.7c0.3,3.6,2.9,3.5,3.4,3.4l0.4,0.4l0.1-0.1l-0.4-0.4C1223.3,611.6,1223.3,609,1219.7,608.7z"/>
	<path class="st13" d="M1227.5,608.7c-0.3,3.6-2.9,3.5-3.4,3.4l-0.4,0.4l-0.1-0.1l0.4-0.4C1223.9,611.6,1223.9,609,1227.5,608.7z"/>
	<path class="st13" d="M1219.7,612.2c0.3,3.6,2.9,3.5,3.4,3.4l0.4,0.4l0.1-0.1l-0.4-0.4C1223.3,615.1,1223.3,612.5,1219.7,612.2z"/>
	<path class="st13" d="M1227.5,612.2c-0.3,3.6-2.9,3.5-3.4,3.4l-0.4,0.4l-0.1-0.1l0.4-0.4C1223.9,615.1,1223.9,612.5,1227.5,612.2z"
		/>
	<ellipse class="st40" cx="1223.6" cy="602.9" rx="0.9" ry="1.7"/>
	
		<ellipse transform="matrix(0.7071 -0.7071 0.7071 0.7071 -67.9136 1043.1575)" class="st40" cx="1225.2" cy="603.6" rx="1.7" ry="0.9"/>
	<ellipse class="st40" cx="1225.9" cy="605.2" rx="1.7" ry="0.9"/>
	
		<ellipse transform="matrix(0.7071 -0.7071 0.7071 0.7071 -70.2484 1044.1274)" class="st40" cx="1225.2" cy="606.9" rx="0.9" ry="1.7"/>
	<ellipse class="st40" cx="1223.6" cy="607.5" rx="0.9" ry="1.7"/>
	
		<ellipse transform="matrix(0.7071 -0.7071 0.7071 0.7071 -71.2114 1041.7897)" class="st40" cx="1221.9" cy="606.9" rx="1.7" ry="0.9"/>
	<ellipse class="st40" cx="1221.3" cy="605.2" rx="1.7" ry="0.9"/>
	
		<ellipse transform="matrix(0.7071 -0.7071 0.7071 0.7071 -68.8736 1040.8325)" class="st40" cx="1222" cy="603.6" rx="0.9" ry="1.7"/>
	<circle class="st39" cx="1223.6" cy="605.2" r="1.1"/>
	<rect x="309.1" y="606.4" class="st13" width="0.5" height="22.3"/>
	<path class="st13" d="M311.3,610.4c-1,0.7-1.6,1.9-1.5,3.1l-0.5,0.4l-0.4-0.4c0.1-1.2-0.5-2.4-1.5-3.1c-0.6-0.4-1.4-0.3-1.8,0.3
		c-0.3,0.4-0.3,1,0,1.5c0.7,1,1.9,1.5,3.1,1.4l0.5,0.5l0-0.1l0.1,0.1l0.5-0.5c1.2,0.1,2.4-0.4,3.1-1.4c0.4-0.6,0.3-1.4-0.3-1.8
		C312.3,610.1,311.7,610.1,311.3,610.4z"/>
	<path class="st13" d="M311.3,614.5c-1,0.7-1.6,1.9-1.5,3.1l-0.5,0.4l-0.4-0.4c0.1-1.2-0.5-2.4-1.5-3.1c-0.6-0.4-1.4-0.3-1.8,0.3
		c-0.3,0.4-0.3,1,0,1.5c0.7,1,1.9,1.5,3.1,1.4l0.5,0.5l0-0.1l0.1,0.1l0.5-0.5c1.2,0.1,2.4-0.4,3.1-1.4c0.4-0.6,0.3-1.4-0.3-1.8
		C312.3,614.2,311.7,614.2,311.3,614.5z"/>
	<path class="st13" d="M311.3,618.3c-1,0.7-1.6,1.9-1.5,3.1l-0.5,0.4l-0.4-0.4c0.1-1.2-0.5-2.4-1.5-3.1c-0.6-0.4-1.4-0.3-1.8,0.3
		c-0.3,0.4-0.3,1,0,1.5c0.7,1,1.9,1.5,3.1,1.4l0.5,0.5l0-0.1l0.1,0.1l0.5-0.5c1.2,0.1,2.4-0.4,3.1-1.4c0.4-0.6,0.3-1.4-0.3-1.8
		C312.3,618,311.7,618,311.3,618.3z"/>
	<path class="st39" d="M310.5,602.4c0,1.3-0.5,2.4-1.1,2.4s-1.1-1.1-1.1-2.4s0.5-1.2,1.1-1.2S310.5,601.1,310.5,602.4z"/>
	<path class="st39" d="M312.4,604.1c-0.9,0.9-2,1.3-2.4,0.9s0-1.5,0.9-2.5s1.2-0.5,1.6,0S313.3,603.2,312.4,604.1z"/>
	<path class="st39" d="M312.5,606.6c-1.3,0-2.4-0.5-2.4-1.1s1.1-1.1,2.4-1.1s1.2,0.5,1.2,1.1S313.8,606.6,312.5,606.6z"/>
	<path class="st39" d="M310.8,608.5c-0.9-0.9-1.3-2-0.9-2.5s1.5,0,2.4,0.9s0.5,1.2,0,1.6S311.7,609.4,310.8,608.5z"/>
	<path class="st39" d="M308.3,608.6c0-1.3,0.5-2.4,1.1-2.4s1.1,1.1,1.1,2.4s-0.5,1.2-1.1,1.2S308.3,610,308.3,608.6z"/>
	<path class="st39" d="M306.4,607c0.9-0.9,2-1.3,2.4-0.9s0,1.5-0.9,2.5s-1.2,0.5-1.6,0S305.5,607.9,306.4,607z"/>
	<path class="st39" d="M306.2,604.4c1.3,0,2.4,0.5,2.4,1.1s-1.1,1.1-2.4,1.1s-1.2-0.5-1.2-1.1S304.9,604.4,306.2,604.4z"/>
	<path class="st39" d="M307.9,602.5c0.9,0.9,1.3,2,0.9,2.5s-1.5,0-2.4-0.9s-0.5-1.2,0-1.6S307,601.6,307.9,602.5z"/>
	<circle class="st40" cx="309.4" cy="605.5" r="1.3"/>
	<rect x="577.2" y="586" class="st13" width="0.6" height="27.8"/>
	<path class="st13" d="M579.9,591c-1.3,0.9-2,2.3-1.8,3.9l-0.5,0.5l-0.6-0.5c0.1-1.5-0.6-3-1.8-3.9c-0.7-0.5-1.7-0.3-2.2,0.5
		c-0.4,0.5-0.3,1.2,0,1.8c0.9,1.2,2.4,1.9,3.9,1.7l0.6,0.6l0.1-0.1l0.1,0.1l0.6-0.6c1.5,0.2,3-0.5,3.9-1.7c0.5-0.7,0.3-1.7-0.5-2.2
		C581.1,590.6,580.4,590.6,579.9,591z"/>
	<path class="st13" d="M579.9,596.1c-1.3,0.9-2,2.3-1.8,3.9l-0.5,0.5l-0.6-0.5c0.1-1.5-0.6-3-1.8-3.9c-0.7-0.5-1.7-0.3-2.2,0.5
		c-0.4,0.5-0.3,1.2,0,1.8c0.9,1.2,2.4,1.9,3.9,1.7l0.6,0.6l0.1-0.1l0.1,0.1l0.6-0.6c1.5,0.2,3-0.5,3.9-1.7c0.5-0.7,0.3-1.7-0.4-2.2
		C581.1,595.7,580.4,595.7,579.9,596.1z"/>
	<path class="st13" d="M579.9,600.8c-1.3,0.9-2,2.3-1.8,3.9l-0.5,0.5l-0.6-0.5c0.1-1.5-0.6-3-1.8-3.9c-0.7-0.5-1.7-0.3-2.2,0.5
		c-0.4,0.5-0.3,1.2,0,1.8c0.9,1.2,2.4,1.9,3.9,1.7l0.6,0.6l0.1-0.1l0.1,0.1l0.6-0.6c1.5,0.2,3-0.5,3.9-1.7c0.5-0.7,0.3-1.7-0.4-2.2
		C581.1,600.5,580.4,600.5,579.9,600.8z"/>
	<path class="st39" d="M578.9,581c0,1.6-0.6,2.9-1.4,2.9s-1.4-1.3-1.4-2.9s0.6-1.5,1.4-1.5S578.9,579.4,578.9,581z"/>
	<path class="st39" d="M581.2,583.1c-1.1,1.2-2.5,1.6-3,1.1s0-1.9,1.1-3s1.5-0.6,2-0.1S582.4,582,581.2,583.1z"/>
	<path class="st39" d="M581.4,586.3c-1.6,0-2.9-0.6-2.9-1.4s1.3-1.4,2.9-1.4s1.5,0.6,1.5,1.4S583,586.3,581.4,586.3z"/>
	<path class="st39" d="M579.3,588.6c-1.2-1.2-1.6-2.5-1.1-3s1.9,0,3,1.1s0.6,1.5,0.1,2S580.4,589.8,579.3,588.6z"/>
	<path class="st39" d="M576.1,588.8c0-1.6,0.6-2.9,1.4-2.9s1.4,1.3,1.4,2.9s-0.6,1.5-1.4,1.5S576.1,590.4,576.1,588.8z"/>
	<path class="st39" d="M573.8,586.7c1.1-1.1,2.5-1.6,3-1.1s0,1.9-1.1,3s-1.5,0.6-2,0.1S572.7,587.8,573.8,586.7z"/>
	<path class="st39" d="M573.6,583.5c1.6,0,2.9,0.6,2.9,1.4s-1.3,1.4-2.9,1.4s-1.5-0.6-1.5-1.4S572,583.5,573.6,583.5z"/>
	<path class="st39" d="M575.7,581.2c1.1,1.2,1.6,2.5,1.1,3s-1.9,0-3-1.1s-0.6-1.5-0.1-2S574.6,580,575.7,581.2z"/>
	<circle class="st40" cx="577.5" cy="584.9" r="1.6"/>
	<rect x="169.7" y="606.3" class="st13" width="0.3" height="13.9"/>
	<path class="st13" d="M171.1,609.2c-0.6,0.4-1,1.2-0.9,1.9l-0.3,0.3l-0.3-0.3c0.1-0.8-0.3-1.5-0.9-1.9c-0.4-0.3-0.8-0.2-1.1,0.2
		c-0.2,0.3-0.2,0.7,0,0.9c0.5,0.6,1.2,1,2,0.9l0.3,0.3l0,0l0,0l0.3-0.3c0.8,0.1,1.5-0.2,1.9-0.9c0.2-0.4,0.2-0.9-0.2-1.1
		C171.7,609.1,171.4,609.1,171.1,609.2z"/>
	<path class="st13" d="M171.1,611.8c-0.6,0.4-1,1.2-0.9,1.9l-0.3,0.3l-0.3-0.3c0.1-0.8-0.3-1.5-0.9-1.9c-0.4-0.2-0.9-0.1-1.1,0.2
		c-0.2,0.3-0.2,0.6,0,0.9c0.5,0.6,1.2,1,2,0.9l0.3,0.3l0,0l0,0l0.3-0.3c0.8,0.1,1.5-0.2,1.9-0.9c0.2-0.4,0.1-0.9-0.2-1.1
		C171.7,611.6,171.4,611.6,171.1,611.8z"/>
	<path class="st13" d="M171.1,614.2c-0.6,0.4-1,1.2-0.9,1.9l-0.3,0.3l-0.3-0.3c0.1-0.8-0.3-1.5-0.9-1.9c-0.4-0.3-0.8-0.2-1.1,0.2
		c-0.2,0.3-0.2,0.7,0,0.9c0.5,0.6,1.2,1,2,0.9l0.3,0.3l0,0l0,0l0.3-0.3c0.8,0.1,1.5-0.2,1.9-0.9c0.2-0.4,0.2-0.9-0.2-1.1
		C171.7,614,171.4,614,171.1,614.2z"/>
	<path class="st39" d="M170.6,603.8c0,0.8-0.3,1.5-0.7,1.5s-0.7-0.7-0.7-1.5s0.3-0.7,0.7-0.7S170.6,603,170.6,603.8z"/>
	<path class="st39" d="M171.8,604.9c-0.6,0.6-1.2,0.8-1.5,0.5s0-0.9,0.6-1.5s0.7-0.3,1,0S172.3,604.3,171.8,604.9z"/>
	<path class="st39" d="M171.8,606.4c-0.8,0-1.5-0.3-1.5-0.7s0.6-0.7,1.5-0.7s0.7,0.3,0.7,0.7S172.6,606.4,171.8,606.4z"/>
	<path class="st39" d="M170.8,607.6c-0.6-0.6-0.8-1.3-0.6-1.5s0.9,0,1.5,0.5s0.3,0.7,0,1S171.3,608.2,170.8,607.6z"/>
	<path class="st39" d="M169.2,607.7c0-0.8,0.3-1.5,0.7-1.5s0.7,0.7,0.7,1.5s-0.3,0.7-0.7,0.7S169.2,608.5,169.2,607.7z"/>
	<path class="st39" d="M168,606.6c0.6-0.6,1.2-0.8,1.5-0.5s0,0.9-0.6,1.5s-0.7,0.3-1,0S167.5,607.2,168,606.6z"/>
	<path class="st39" d="M167.9,605.1c0.8,0,1.5,0.3,1.5,0.7s-0.7,0.7-1.5,0.7s-0.7-0.3-0.7-0.7S167.1,605.1,167.9,605.1z"/>
	<path class="st39" d="M169,603.9c0.6,0.6,0.8,1.3,0.6,1.5s-1,0-1.5-0.5s-0.3-0.7,0-1S168.4,603.3,169,603.9z"/>
	<circle class="st40" cx="169.9" cy="605.8" r="0.8"/>
	<rect x="242.4" y="571.7" class="st13" width="0.3" height="13.9"/>
	<path class="st13" d="M243.8,574.7c-0.6,0.4-1,1.2-0.9,1.9l-0.3,0.3l-0.3-0.3c0.1-0.8-0.3-1.5-0.9-1.9c-0.4-0.3-0.8-0.2-1.1,0.2
		c-0.2,0.3-0.2,0.7,0,0.9c0.5,0.6,1.2,1,2,0.9l0.3,0.3l0,0l0,0l0.3-0.3c0.8,0.1,1.5-0.2,1.9-0.9c0.2-0.4,0.2-0.9-0.2-1.1
		C244.4,574.5,244,574.5,243.8,574.7z"/>
	<path class="st13" d="M243.8,577.2c-0.6,0.4-1,1.2-0.9,1.9l-0.3,0.3l-0.3-0.3c0.1-0.8-0.3-1.5-0.9-1.9c-0.4-0.2-0.9-0.1-1.1,0.2
		c-0.2,0.3-0.2,0.6,0,0.9c0.5,0.6,1.2,1,2,0.9l0.3,0.3l0,0l0,0l0.3-0.3c0.8,0.1,1.5-0.2,1.9-0.9c0.2-0.4,0.1-0.9-0.2-1.1
		C244.3,577.1,244,577.1,243.8,577.2z"/>
	<path class="st13" d="M243.8,579.6c-0.6,0.4-1,1.2-0.9,1.9l-0.3,0.3l-0.3-0.3c0.1-0.8-0.3-1.5-0.9-1.9c-0.4-0.3-0.8-0.2-1.1,0.2
		c-0.2,0.3-0.2,0.7,0,0.9c0.5,0.6,1.2,1,2,0.9l0.3,0.3l0,0l0,0l0.3-0.3c0.8,0.1,1.5-0.2,1.9-0.9c0.2-0.4,0.2-0.9-0.2-1.1
		C244.4,579.4,244,579.4,243.8,579.6z"/>
	<path class="st39" d="M243.2,569.2c0,0.8-0.3,1.5-0.7,1.5s-0.7-0.7-0.7-1.5s0.3-0.7,0.7-0.7S243.2,568.4,243.2,569.2z"/>
	<path class="st39" d="M244.4,570.3c-0.6,0.6-1.2,0.8-1.5,0.5s0-0.9,0.6-1.5s0.7-0.3,1,0S245,569.7,244.4,570.3z"/>
	<path class="st39" d="M244.5,571.8c-0.8,0-1.5-0.3-1.5-0.7s0.6-0.7,1.5-0.7s0.7,0.3,0.7,0.7S245.3,571.8,244.5,571.8z"/>
	<path class="st39" d="M243.4,573c-0.6-0.6-0.8-1.3-0.6-1.5s0.9,0,1.5,0.5s0.3,0.7,0,1S244,573.6,243.4,573z"/>
	<path class="st39" d="M241.9,573.1c0-0.8,0.3-1.5,0.7-1.5s0.7,0.7,0.7,1.5s-0.3,0.7-0.7,0.7S241.9,573.9,241.9,573.1z"/>
	<path class="st39" d="M240.7,572.1c0.6-0.6,1.2-0.8,1.5-0.5s0,0.9-0.6,1.5s-0.7,0.3-1,0S240.1,572.6,240.7,572.1z"/>
	<path class="st39" d="M240.6,570.5c0.8,0,1.5,0.3,1.5,0.7s-0.7,0.7-1.5,0.7s-0.7-0.3-0.7-0.7S239.8,570.5,240.6,570.5z"/>
	<path class="st39" d="M241.7,569.3c0.6,0.6,0.8,1.3,0.6,1.5s-1,0-1.5-0.5s-0.3-0.7,0-1S241.1,568.7,241.7,569.3z"/>
	<circle class="st40" cx="242.5" cy="571.2" r="0.8"/>
	<rect x="174.5" y="578.8" class="st13" width="0.3" height="13.9"/>
	<path class="st13" d="M175.8,581.3c-0.6,0.4-1,1.2-0.9,1.9l-0.3,0.3l-0.3-0.3c0.1-0.8-0.3-1.5-0.9-1.9c-0.4-0.3-0.8-0.2-1.1,0.2
		c-0.2,0.3-0.2,0.7,0,0.9c0.4,0.6,1.2,0.9,1.9,0.9l0.3,0.3l0,0l0,0l0.3-0.3c0.8,0.1,1.5-0.2,2-0.9c0.2-0.4,0.2-0.9-0.2-1.1
		C176.4,581.1,176.1,581.1,175.8,581.3z"/>
	<path class="st13" d="M175.8,583.8c-0.6,0.4-1,1.2-0.9,1.9l-0.3,0.3l-0.3-0.3c0.1-0.8-0.3-1.5-0.9-1.9c-0.4-0.3-0.8-0.2-1.1,0.2
		c-0.2,0.3-0.2,0.7,0,0.9c0.4,0.6,1.2,0.9,1.9,0.9l0.3,0.3l0,0l0,0l0.3-0.3c0.8,0.1,1.5-0.2,2-0.9c0.2-0.4,0.2-0.9-0.2-1.1
		C176.4,583.7,176.1,583.7,175.8,583.8z"/>
	<path class="st13" d="M175.8,586.2c-0.6,0.4-1,1.2-0.9,1.9l-0.3,0.3l-0.3-0.3c0.1-0.8-0.3-1.5-0.9-1.9c-0.4-0.3-0.8-0.2-1.1,0.2
		c-0.2,0.3-0.2,0.7,0,0.9c0.4,0.6,1.2,0.9,1.9,0.9l0.3,0.3l0,0l0,0l0.3-0.3c0.8,0.1,1.5-0.2,2-0.9c0.2-0.4,0.2-0.9-0.2-1.1
		C176.4,586,176.1,586,175.8,586.2z"/>
	<path class="st39" d="M175.3,576.3c0,0.8-0.3,1.5-0.7,1.5s-0.7-0.7-0.7-1.5s0.3-0.7,0.7-0.7S175.3,575.5,175.3,576.3z"/>
	<path class="st39" d="M176.5,577.4c-0.6,0.6-1.2,0.8-1.5,0.6s0-1,0.6-1.5s0.7-0.3,1,0S177,576.8,176.5,577.4z"/>
	<path class="st39" d="M176.6,578.9c-0.8,0-1.5-0.3-1.5-0.7s0.6-0.7,1.5-0.7s0.7,0.3,0.7,0.7S177.4,578.9,176.6,578.9z"/>
	<path class="st39" d="M175.5,580.1c-0.6-0.6-0.8-1.2-0.6-1.5s1,0,1.5,0.5s0.3,0.7,0,1S176.1,580.7,175.5,580.1z"/>
	<path class="st39" d="M173.9,580.2c0-0.8,0.3-1.5,0.7-1.5s0.7,0.7,0.7,1.5s-0.3,0.7-0.7,0.7S173.9,581,173.9,580.2z"/>
	<path class="st39" d="M172.8,579.1c0.6-0.6,1.2-0.8,1.5-0.5s0,1-0.6,1.5s-0.7,0.3-1,0S172.2,579.7,172.8,579.1z"/>
	<path class="st39" d="M172.7,577.6c0.8,0,1.5,0.3,1.5,0.7s-0.7,0.7-1.5,0.7s-0.7-0.3-0.7-0.7S171.9,577.6,172.7,577.6z"/>
	<path class="st39" d="M173.8,576.4c0.6,0.6,0.8,1.2,0.6,1.5s-0.9,0-1.5-0.6s-0.3-0.7,0-1S173.2,575.8,173.8,576.4z"/>
	<circle class="st40" cx="174.6" cy="578.3" r="0.8"/>
	<rect x="178.8" y="598.5" class="st13" width="0.5" height="16"/>
	<path class="st13" d="M174.4,601.8c0.4,4.2,3.5,4.1,4.1,4.1l0.5,0.5l0.1-0.1l-0.5-0.5C178.6,605.2,178.7,602.1,174.4,601.8z"/>
	<path class="st13" d="M183.7,601.8c-0.4,4.2-3.5,4.1-4.1,4.1l-0.5,0.5l-0.1-0.1l0.5-0.5C179.5,605.2,179.4,602.1,183.7,601.8z"/>
	<path class="st13" d="M174.4,606c0.4,4.2,3.5,4.1,4.1,4.1l0.5,0.5l0.1-0.1l-0.5-0.5C178.6,609.4,178.7,606.3,174.4,606z"/>
	<path class="st13" d="M183.7,606c-0.4,4.2-3.5,4.1-4.1,4.1l-0.5,0.5l-0.1-0.1l0.5-0.5C179.5,609.4,179.4,606.3,183.7,606z"/>
	<ellipse class="st40" cx="179" cy="594.8" rx="1.1" ry="2"/>
	<ellipse transform="matrix(0.7071 -0.7071 0.7071 0.7071 -368.1587 302.4456)" class="st40" cx="181" cy="595.6" rx="2" ry="1.1"/>
	<ellipse class="st40" cx="181.8" cy="597.6" rx="2" ry="1.1"/>
	<ellipse transform="matrix(0.7071 -0.7071 0.7071 0.7071 -370.9342 303.6027)" class="st40" cx="181" cy="599.6" rx="1.1" ry="2"/>
	<ellipse class="st40" cx="179" cy="600.4" rx="1.1" ry="2"/>
	
		<ellipse transform="matrix(0.7071 -0.7071 0.7071 0.7071 -372.0872 300.8171)" class="st40" cx="177.1" cy="599.6" rx="2" ry="1.1"/>
	<ellipse class="st40" cx="176.3" cy="597.6" rx="2" ry="1.1"/>
	
		<ellipse transform="matrix(0.7071 -0.7071 0.7071 0.7071 -369.3016 299.6701)" class="st40" cx="177.1" cy="595.6" rx="1.1" ry="2"/>
	<circle class="st39" cx="179" cy="597.6" r="1.3"/>
	<rect x="280.5" y="536.7" class="st13" width="0.5" height="16"/>
	<path class="st13" d="M276.1,539.9c0.4,4.2,3.5,4.1,4.1,4l0.5,0.5l0.1-0.1l-0.5-0.5C280.3,543.3,280.3,540.2,276.1,539.9z"/>
	<path class="st13" d="M285.3,539.9c-0.4,4.2-3.5,4.1-4.1,4l-0.5,0.5l-0.1-0.1l0.5-0.5C281.1,543.3,281.1,540.2,285.3,539.9z"/>
	<path class="st13" d="M276.1,544.1c0.4,4.2,3.5,4.1,4.1,4l0.5,0.5l0.1-0.1l-0.5-0.5C280.3,547.5,280.3,544.4,276.1,544.1z"/>
	<path class="st13" d="M285.3,544.1c-0.4,4.2-3.5,4.1-4.1,4l-0.5,0.5l-0.1-0.1l0.5-0.5C281.1,547.5,281.1,544.4,285.3,544.1z"/>
	<ellipse class="st40" cx="280.7" cy="533" rx="1.1" ry="2"/>
	
		<ellipse transform="matrix(0.7071 -0.7071 0.7071 0.7071 -294.6637 356.2374)" class="st40" cx="282.7" cy="533.8" rx="2" ry="1.1"/>
	<ellipse class="st40" cx="283.5" cy="535.8" rx="2" ry="1.1"/>
	
		<ellipse transform="matrix(0.7071 -0.7071 0.7071 0.7071 -297.4393 357.3803)" class="st40" cx="282.7" cy="537.7" rx="1.1" ry="2"/>
	<path class="st40" d="M280.7,536.6c0.6,0,1.1,0.9,1.1,2c0,1.1-0.5,2-1.1,2c-0.6,0-1.1-0.9-1.1-2
		C279.6,537.4,280.1,536.6,280.7,536.6z"/>
	
		<ellipse transform="matrix(0.7071 -0.7071 0.7071 0.7071 -298.5893 354.6018)" class="st40" cx="278.7" cy="537.7" rx="2" ry="1.1"/>
	<ellipse class="st40" cx="278" cy="535.8" rx="2" ry="1.1"/>
	
		<ellipse transform="matrix(0.7071 -0.7071 0.7071 0.7071 -295.8066 353.4618)" class="st40" cx="278.8" cy="533.8" rx="1.1" ry="2"/>
	<circle class="st39" cx="280.7" cy="535.8" r="1.3"/>
	<rect x="320.9" y="600.1" class="st13" width="0.6" height="19.5"/>
	<path class="st13" d="M315.6,604c0.5,5.2,4.3,5,5,4.9l0.6,0.6l0.1-0.1l-0.6-0.6C320.7,608.2,320.8,604.4,315.6,604z"/>
	<path class="st13" d="M326.8,604c-0.5,5.2-4.2,5-4.9,4.9l-0.6,0.6l-0.1-0.1l0.6-0.6C321.7,608.2,321.7,604.4,326.8,604z"/>
	<path class="st13" d="M315.6,609.2c0.5,5.2,4.3,5,5,4.9l0.6,0.6l0.1-0.1l-0.6-0.6C320.7,613.3,320.8,609.5,315.6,609.2z"/>
	<path class="st13" d="M326.8,609.2c-0.5,5.2-4.2,5-4.9,4.9l-0.6,0.6l-0.1-0.1l0.6-0.6C321.7,613.3,321.7,609.5,326.8,609.2z"/>
	<ellipse class="st40" cx="321.2" cy="595.6" rx="1.4" ry="2.4"/>
	
		<ellipse transform="matrix(0.7071 -0.7071 0.7071 0.7071 -327.0627 403.5506)" class="st40" cx="323.6" cy="596.6" rx="2.4" ry="1.4"/>
	<ellipse class="st40" cx="324.6" cy="599" rx="2.4" ry="1.4"/>
	
		<ellipse transform="matrix(0.7071 -0.7071 0.7071 0.7071 -330.4356 404.9535)" class="st40" cx="323.6" cy="601.3" rx="1.4" ry="2.4"/>
	<ellipse class="st40" cx="321.2" cy="602.3" rx="1.4" ry="2.4"/>
	
		<ellipse transform="matrix(0.7071 -0.7071 0.7071 0.7071 -331.8356 401.5735)" class="st40" cx="318.8" cy="601.3" rx="2.4" ry="1.4"/>
	<ellipse class="st40" cx="317.8" cy="599" rx="2.4" ry="1.4"/>
	
		<ellipse transform="matrix(0.7071 -0.7071 0.7071 0.7071 -328.4556 400.1735)" class="st40" cx="318.8" cy="596.6" rx="1.4" ry="2.4"/>
	<circle class="st39" cx="321.2" cy="599" r="1.6"/>
	<rect x="348.3" y="616" class="st13" width="0.4" height="12.7"/>
	<path class="st13" d="M344.9,618.6c0.3,3.4,2.8,3.3,3.2,3.2l0.4,0.4l0.1-0.1l-0.4-0.4C348.2,621.3,348.2,618.8,344.9,618.6z"/>
	<path class="st13" d="M352.2,618.6c-0.3,3.4-2.8,3.3-3.2,3.2l-0.4,0.4l-0.1-0.1l0.4-0.4C348.9,621.3,348.8,618.8,352.2,618.6z"/>
	<path class="st13" d="M344.9,621.9c0.3,3.4,2.8,3.3,3.2,3.2l0.4,0.4l0.1-0.1l-0.4-0.4C348.2,624.6,348.2,622.1,344.9,621.9z"/>
	<path class="st13" d="M352.2,621.9c-0.3,3.4-2.8,3.3-3.2,3.2l-0.4,0.4l-0.1-0.1l0.4-0.4C348.9,624.6,348.8,622.1,352.2,621.9z"/>
	<ellipse class="st40" cx="348.5" cy="613" rx="0.9" ry="1.6"/>
	
		<ellipse transform="matrix(0.7071 -0.7071 0.7071 0.7071 -331.4136 427.2894)" class="st40" cx="350.1" cy="613.7" rx="1.6" ry="0.9"/>
	<ellipse class="st40" cx="350.7" cy="615.2" rx="1.6" ry="0.9"/>
	
		<ellipse transform="matrix(0.7071 -0.7071 0.7071 0.7071 -333.6153 428.2065)" class="st40" cx="350.1" cy="616.8" rx="0.9" ry="1.6"/>
	<ellipse class="st40" cx="348.5" cy="617.5" rx="0.9" ry="1.6"/>
	
		<ellipse transform="matrix(0.7071 -0.7071 0.7071 0.7071 -334.5282 425.9948)" class="st40" cx="347" cy="616.8" rx="1.6" ry="0.9"/>
	<ellipse class="st40" cx="346.3" cy="615.2" rx="1.6" ry="0.9"/>
	
		<ellipse transform="matrix(0.7071 -0.7071 0.7071 0.7071 -332.3236 425.0848)" class="st40" cx="347" cy="613.7" rx="0.9" ry="1.6"/>
	<circle class="st39" cx="348.5" cy="615.2" r="1.1"/>
	<rect x="300" y="610.7" class="st13" width="0.3" height="10.3"/>
	<path class="st13" d="M297.2,612.8c0.3,2.7,2.2,2.6,2.6,2.6l0.3,0.3l0.1-0.1l-0.3-0.3C299.9,614.9,299.9,613,297.2,612.8z"/>
	<path class="st13" d="M303.1,612.8c-0.3,2.7-2.2,2.6-2.6,2.6l-0.3,0.3l-0.1-0.1l0.3-0.3C300.4,614.9,300.4,613,303.1,612.8z"/>
	<path class="st13" d="M297.2,615.4c0.3,2.7,2.2,2.6,2.6,2.6l0.3,0.3l0.1-0.1l-0.3-0.3C299.9,617.6,299.9,615.6,297.2,615.4z"/>
	<path class="st13" d="M303.1,615.4c-0.3,2.7-2.2,2.6-2.6,2.6l-0.3,0.3l-0.1-0.1l0.3-0.3C300.4,617.6,300.4,615.6,303.1,615.4z"/>
	<ellipse class="st40" cx="300.2" cy="608.3" rx="0.7" ry="1.3"/>
	
		<ellipse transform="matrix(0.7071 -0.7071 0.7071 0.7071 -342.2127 391.4525)" class="st40" cx="301.4" cy="608.8" rx="1.3" ry="0.7"/>
	<ellipse class="st40" cx="301.9" cy="610.1" rx="1.3" ry="0.7"/>
	
		<ellipse transform="matrix(0.7071 -0.7071 0.7071 0.7071 -343.9883 392.1954)" class="st40" cx="301.4" cy="611.3" rx="0.7" ry="1.3"/>
	<ellipse class="st40" cx="300.2" cy="611.9" rx="0.7" ry="1.3"/>
	
		<ellipse transform="matrix(0.7071 -0.7071 0.7071 0.7071 -344.7354 390.4098)" class="st40" cx="298.9" cy="611.3" rx="1.3" ry="0.7"/>
	<ellipse class="st40" cx="298.4" cy="610.1" rx="1.3" ry="0.7"/>
	
		<ellipse transform="matrix(0.7071 -0.7071 0.7071 0.7071 -342.9527 389.6698)" class="st40" cx="298.9" cy="608.8" rx="0.7" ry="1.3"/>
	<circle class="st39" cx="300.2" cy="610.1" r="0.8"/>
	<circle class="st13" cx="681.9" cy="424.7" r="24.9"/>
	<circle class="st14" cx="711.5" cy="444.4" r="19.7"/>
	<circle class="st14" cx="650.6" cy="460.6" r="19.7"/>
	<path class="st15" d="M711,446L711,446c-1-1-2.6-1-3.6,0c0,0,0,0,0,0l-22.1,22.1v-38.5c0-1.9-1.5-3.4-3.4-3.4l0,0
		c-1.9,0-3.4,1.5-3.4,3.4v54.5l-22.3-22.3c-0.9-1.1-2.6-1.2-3.7-0.3c-1.1,0.9-1.2,2.6-0.3,3.7c0.1,0.1,0.2,0.2,0.3,0.3l26,26v44.7
		h6.7v-60.7l25.8-25.7C712,448.7,712.1,447.1,711,446C711.1,446,711.1,446,711,446z"/>
	<rect x="1471.3" y="610.2" class="st13" width="0.4" height="19"/>
	<path class="st13" d="M1473.1,613.6c-0.9,0.6-1.3,1.6-1.3,2.6l-0.4,0.4l-0.4-0.4c0.1-1-0.4-2.1-1.2-2.6c-0.5-0.3-1.2-0.2-1.5,0.3
		c-0.3,0.4-0.3,0.9,0,1.3c0.6,0.8,1.6,1.3,2.7,1.2l0.4,0.4l0,0l0,0l0.4-0.4c1,0.1,2.1-0.3,2.7-1.2c0.3-0.5,0.1-1.2-0.4-1.5
		C1473.8,613.4,1473.4,613.4,1473.1,613.6z"/>
	<path class="st13" d="M1473.1,617.1c-0.9,0.6-1.3,1.6-1.3,2.6l-0.4,0.4l-0.4-0.4c0.1-1-0.4-2.1-1.2-2.6c-0.5-0.3-1.2-0.2-1.5,0.3
		c-0.3,0.4-0.3,0.9,0,1.3c0.6,0.8,1.6,1.3,2.7,1.2l0.4,0.4l0,0l0,0l0.4-0.4c1,0.1,2.1-0.3,2.7-1.2c0.3-0.5,0.1-1.2-0.4-1.5
		C1473.8,616.9,1473.4,616.9,1473.1,617.1z"/>
	<path class="st13" d="M1473.1,620.3c-0.9,0.6-1.3,1.6-1.3,2.6l-0.4,0.4l-0.4-0.4c0.1-1-0.4-2.1-1.2-2.6c-0.5-0.3-1.2-0.2-1.5,0.3
		c-0.3,0.4-0.3,0.9,0,1.3c0.6,0.8,1.6,1.3,2.7,1.2l0.4,0.4l0,0l0,0l0.4-0.4c1,0.1,2.1-0.3,2.7-1.2c0.3-0.5,0.1-1.2-0.4-1.5
		C1473.8,620.2,1473.4,620.2,1473.1,620.3z"/>
	<path class="st39" d="M1472.4,606.8c0,1.1-0.4,2-0.9,2s-0.9-0.9-0.9-2s0.4-1,0.9-1S1472.4,605.7,1472.4,606.8z"/>
	<path class="st39" d="M1474,608.2c-0.8,0.8-1.7,1.1-2.1,0.8s0-1.3,0.8-2.1s1-0.4,1.4,0S1474.8,607.4,1474,608.2z"/>
	<path class="st39" d="M1474.1,610.4c-1.1,0-2-0.4-2-0.9s0.9-0.9,2-0.9s1,0.4,1,0.9S1475.2,610.4,1474.1,610.4z"/>
	<path class="st39" d="M1472.7,612c-0.8-0.8-1.1-1.7-0.8-2.1s1.3,0,2.1,0.8s0.4,1,0,1.4S1473.5,612.8,1472.7,612z"/>
	<path class="st39" d="M1470.5,612.1c0-1.1,0.4-2,0.9-2s0.9,0.9,0.9,2s-0.4,1-0.9,1S1470.5,613.2,1470.5,612.1z"/>
	<path class="st39" d="M1468.9,610.6c0.8-0.8,1.7-1.1,2.1-0.8s0,1.3-0.8,2.1s-1,0.4-1.4,0S1468.1,611.4,1468.9,610.6z"/>
	<path class="st39" d="M1468.8,608.5c1.1,0,2,0.4,2,0.9s-0.9,0.9-2,0.9s-1-0.4-1-0.9S1467.7,608.5,1468.8,608.5z"/>
	<path class="st39" d="M1470.2,606.9c0.8,0.8,1.1,1.7,0.8,2.1s-1.3,0-2.1-0.8s-0.4-1,0-1.4S1469.5,606.1,1470.2,606.9z"/>
	<circle class="st40" cx="1471.5" cy="609.4" r="1.1"/>
	<rect x="1447.6" y="595.4" class="st13" width="0.6" height="25.2"/>
	<path class="st13" d="M1450.1,599.9c-1.1,0.8-1.8,2.1-1.7,3.5l-0.5,0.5l-0.5-0.5c0.1-1.4-0.5-2.7-1.7-3.5c-0.7-0.4-1.6-0.2-2,0.5
		c-0.3,0.5-0.3,1.1,0,1.5c0.8,1.1,2.2,1.7,3.6,1.6l0.6,0.5l0.1-0.1l0.1,0.1l0.6-0.5c1.4,0.2,2.7-0.5,3.6-1.6c0.4-0.7,0.2-1.6-0.5-2
		C1451.1,599.6,1450.5,599.6,1450.1,599.9z"/>
	<path class="st13" d="M1450.1,604.6c-1.1,0.8-1.8,2.1-1.7,3.5l-0.5,0.5l-0.5-0.5c0.1-1.4-0.5-2.7-1.7-3.5c-0.7-0.5-1.6-0.3-2,0.3
		c-0.4,0.5-0.4,1.2,0,1.7c0.8,1.1,2.2,1.7,3.6,1.6l0.6,0.5l0.1-0.1l0.1,0.1l0.6-0.5c1.4,0.2,2.7-0.4,3.6-1.6c0.5-0.7,0.3-1.6-0.3-2
		C1451.2,604.3,1450.6,604.2,1450.1,604.6z"/>
	<path class="st13" d="M1450.1,608.9c-1.1,0.8-1.8,2.1-1.7,3.5l-0.5,0.5l-0.5-0.5c0.1-1.4-0.5-2.7-1.7-3.5c-0.7-0.4-1.6-0.2-2,0.5
		c-0.3,0.5-0.3,1.1,0,1.5c0.8,1.1,2.2,1.7,3.6,1.6l0.6,0.5l0.1-0.1l0.1,0.1l0.6-0.5c1.4,0.2,2.7-0.4,3.6-1.6c0.4-0.7,0.2-1.6-0.5-2
		C1451.1,608.6,1450.5,608.6,1450.1,608.9z"/>
	<path class="st39" d="M1449.1,590.9c0,1.5-0.6,2.7-1.2,2.7s-1.2-1.2-1.2-2.7s0.6-1.3,1.2-1.3S1449.1,589.4,1449.1,590.9z"/>
	<path class="st39" d="M1451.3,592.8c-1,1-2.3,1.5-2.8,1s0-1.7,1-2.8s1.3-0.5,1.8,0S1452.3,591.8,1451.3,592.8z"/>
	<path class="st39" d="M1451.4,595.7c-1.5,0-2.7-0.6-2.7-1.2s1.2-1.2,2.7-1.2s1.3,0.6,1.3,1.2S1452.9,595.7,1451.4,595.7z"/>
	<path class="st39" d="M1449.5,597.8c-1-1-1.5-2.3-1-2.8s1.7,0,2.8,1s0.5,1.3,0,1.8S1450.5,598.8,1449.5,597.8z"/>
	<path class="st39" d="M1446.6,598c0-1.5,0.6-2.7,1.2-2.7s1.2,1.2,1.2,2.7s-0.6,1.3-1.2,1.3S1446.6,599.4,1446.6,598z"/>
	<path class="st39" d="M1444.5,596c1-1,2.3-1.5,2.8-1s0,1.7-1,2.8s-1.3,0.5-1.8,0S1443.5,597.1,1444.5,596z"/>
	<path class="st39" d="M1444.3,593.2c1.5,0,2.7,0.6,2.7,1.2s-1.2,1.2-2.7,1.2s-1.3-0.6-1.3-1.2S1442.9,593.2,1444.3,593.2z"/>
	<path class="st39" d="M1446.3,591c1,1,1.5,2.3,1,2.8s-1.7,0-2.8-1s-0.5-1.3,0-1.8S1445.2,590,1446.3,591z"/>
	<circle class="st40" cx="1447.9" cy="594.4" r="1.5"/>
	<rect x="1480.7" y="590.1" class="st13" width="0.7" height="21.9"/>
	<path class="st13" d="M1474.8,594.5c0.6,5.8,4.8,5.6,5.6,5.5l0.7,0.7l0.1-0.1l-0.7-0.7C1480.5,599.1,1480.6,594.9,1474.8,594.5z"/>
	<path class="st13" d="M1487.4,594.5c-0.6,5.8-4.8,5.6-5.6,5.5l-0.7,0.7l-0.1-0.1l0.7-0.7C1481.6,599.1,1481.6,594.9,1487.4,594.5z"
		/>
	<path class="st13" d="M1474.8,600.2c0.6,5.8,4.8,5.6,5.6,5.5l0.7,0.7l0.1-0.1l-0.7-0.7C1480.5,604.9,1480.6,600.6,1474.8,600.2z"/>
	<path class="st13" d="M1487.4,600.2c-0.6,5.8-4.8,5.6-5.6,5.5l-0.7,0.7l-0.1-0.1l0.7-0.7C1481.6,604.9,1481.6,600.6,1487.4,600.2z"
		/>
	<ellipse class="st40" cx="1481.1" cy="585" rx="1.5" ry="2.7"/>
	
		<ellipse transform="matrix(0.7071 -0.7071 0.7071 0.7071 20.1421 1220.8246)" class="st40" cx="1483.7" cy="586.1" rx="2.7" ry="1.5"/>
	<ellipse class="st40" cx="1484.8" cy="588.8" rx="2.7" ry="1.5"/>
	
		<ellipse transform="matrix(0.7071 -0.7071 0.7071 0.7071 16.342 1222.4045)" class="st40" cx="1483.7" cy="591.5" rx="1.5" ry="2.7"/>
	<ellipse class="st40" cx="1481.1" cy="592.6" rx="1.5" ry="2.7"/>
	
		<ellipse transform="matrix(0.7071 -0.7071 0.7071 0.7071 14.7691 1218.6016)" class="st40" cx="1478.4" cy="591.5" rx="2.7" ry="1.5"/>
	<ellipse class="st40" cx="1477.3" cy="588.8" rx="2.7" ry="1.5"/>
	
		<ellipse transform="matrix(0.7071 -0.7071 0.7071 0.7071 18.565 1217.0315)" class="st40" cx="1478.4" cy="586.1" rx="1.5" ry="2.7"/>
	<circle class="st39" cx="1481.1" cy="588.8" r="1.8"/>
	<rect x="1458.5" y="624.1" class="st13" width="0.7" height="21.9"/>
	<path class="st13" d="M1452.6,628.5c0.6,5.8,4.8,5.6,5.6,5.5l0.7,0.7l0.1-0.1l-0.7-0.7C1458.3,633.1,1458.4,628.9,1452.6,628.5z"/>
	<path class="st13" d="M1465.2,628.5c-0.6,5.8-4.8,5.6-5.6,5.5l-0.7,0.7l-0.1-0.1l0.7-0.7C1459.4,633.1,1459.4,628.9,1465.2,628.5z"
		/>
	<path class="st13" d="M1452.6,634.2c0.6,5.8,4.8,5.6,5.6,5.5l0.7,0.7l0.1-0.1l-0.7-0.7C1458.3,638.9,1458.4,634.6,1452.6,634.2z"/>
	<path class="st13" d="M1465.2,634.2c-0.6,5.8-4.8,5.6-5.6,5.5l-0.7,0.7l-0.1-0.1l0.7-0.7C1459.4,638.9,1459.4,634.6,1465.2,634.2z"
		/>
	<ellipse class="st40" cx="1458.9" cy="619" rx="1.5" ry="2.7"/>
	
		<ellipse transform="matrix(0.7071 -0.7071 0.7071 0.7071 -10.3972 1215.1066)" class="st40" cx="1461.6" cy="620.1" rx="2.7" ry="1.5"/>
	<ellipse class="st40" cx="1462.7" cy="622.8" rx="2.7" ry="1.5"/>
	
		<ellipse transform="matrix(0.7071 -0.7071 0.7071 0.7071 -14.1933 1216.6824)" class="st40" cx="1461.6" cy="625.5" rx="1.5" ry="2.7"/>
	<ellipse class="st40" cx="1458.9" cy="626.6" rx="1.5" ry="2.7"/>
	
		<ellipse transform="matrix(0.7071 -0.7071 0.7071 0.7071 -15.7733 1212.8763)" class="st40" cx="1456.2" cy="625.5" rx="2.7" ry="1.5"/>
	<ellipse class="st40" cx="1455.1" cy="622.8" rx="2.7" ry="1.5"/>
	
		<ellipse transform="matrix(0.7071 -0.7071 0.7071 0.7071 -11.9702 1211.3093)" class="st40" cx="1456.2" cy="620.1" rx="1.5" ry="2.7"/>
	<circle class="st39" cx="1458.9" cy="622.8" r="1.8"/>
	<rect x="1484.4" y="626.3" class="st13" width="0.4" height="13.5"/>
	<path class="st13" d="M1480.8,629c0.3,3.6,2.9,3.5,3.4,3.4l0.4,0.4l0.1-0.1l-0.4-0.4C1484.3,631.9,1484.4,629.3,1480.8,629z"/>
	<path class="st13" d="M1488.6,629c-0.3,3.6-2.9,3.5-3.4,3.4l-0.4,0.4l-0.1-0.1l0.4-0.4C1485,631.9,1485,629.3,1488.6,629z"/>
	<path class="st13" d="M1480.8,632.5c0.3,3.6,2.9,3.5,3.4,3.4l0.4,0.4l0.1-0.1l-0.4-0.4C1484.3,635.4,1484.4,632.8,1480.8,632.5z"/>
	<path class="st13" d="M1488.6,632.5c-0.3,3.6-2.9,3.5-3.4,3.4l-0.4,0.4l-0.1-0.1l0.4-0.4C1485,635.4,1485,632.8,1488.6,632.5z"/>
	<ellipse class="st40" cx="1484.7" cy="623.2" rx="0.9" ry="1.7"/>
	
		<ellipse transform="matrix(0.7071 -0.7071 0.7071 0.7071 -5.7955 1233.7036)" class="st40" cx="1486.3" cy="623.8" rx="1.7" ry="0.9"/>
	<ellipse class="st40" cx="1487" cy="625.5" rx="1.7" ry="0.9"/>
	
		<ellipse transform="matrix(0.7071 -0.7071 0.7071 0.7071 -8.1304 1234.6736)" class="st40" cx="1486.3" cy="627.2" rx="0.9" ry="1.7"/>
	<ellipse class="st40" cx="1484.7" cy="627.8" rx="0.9" ry="1.7"/>
	
		<ellipse transform="matrix(0.7071 -0.7071 0.7071 0.7071 -9.1003 1232.3387)" class="st40" cx="1483" cy="627.2" rx="1.7" ry="0.9"/>
	<ellipse class="st40" cx="1482.3" cy="625.5" rx="1.7" ry="0.9"/>
	
		<ellipse transform="matrix(0.7071 -0.7071 0.7071 0.7071 -6.7625 1231.3759)" class="st40" cx="1483" cy="623.9" rx="0.9" ry="1.7"/>
	<circle class="st39" cx="1484.7" cy="625.5" r="1.1"/>
	<rect x="1462.9" y="596.4" class="st13" width="0.4" height="13.5"/>
	<path class="st13" d="M1459.2,599.1c0.3,3.6,2.9,3.5,3.4,3.4l0.4,0.4l0.1-0.1l-0.4-0.4C1462.7,602,1462.8,599.4,1459.2,599.1z"/>
	<path class="st13" d="M1467,599.1c-0.3,3.6-2.9,3.5-3.4,3.4l-0.4,0.4l-0.1-0.1l0.4-0.4C1463.4,602,1463.4,599.4,1467,599.1z"/>
	<path class="st13" d="M1459.2,602.7c0.3,3.6,2.9,3.5,3.4,3.4l0.4,0.4l0.1-0.1l-0.4-0.4C1462.7,605.5,1462.8,602.9,1459.2,602.7z"/>
	<path class="st13" d="M1467,602.7c-0.3,3.6-2.9,3.5-3.4,3.4l-0.4,0.4l-0.1-0.1l0.4-0.4C1463.4,605.5,1463.4,602.9,1467,602.7z"/>
	<ellipse class="st40" cx="1463.1" cy="593.3" rx="0.9" ry="1.7"/>
	
		<ellipse transform="matrix(0.7071 -0.7071 0.7071 0.7071 8.9963 1209.6987)" class="st40" cx="1464.7" cy="594" rx="1.7" ry="0.9"/>
	<ellipse class="st40" cx="1465.4" cy="595.6" rx="1.7" ry="0.9"/>
	
		<ellipse transform="matrix(0.7071 -0.7071 0.7071 0.7071 6.6685 1210.6716)" class="st40" cx="1464.7" cy="597.3" rx="0.9" ry="1.7"/>
	<ellipse class="st40" cx="1463.1" cy="598" rx="0.9" ry="1.7"/>
	
		<ellipse transform="matrix(0.7071 -0.7071 0.7071 0.7071 5.6915 1208.3339)" class="st40" cx="1461.4" cy="597.3" rx="1.7" ry="0.9"/>
	<ellipse class="st40" cx="1460.8" cy="595.6" rx="1.7" ry="0.9"/>
	
		<ellipse transform="matrix(0.7071 -0.7071 0.7071 0.7071 8.0334 1207.3667)" class="st40" cx="1461.4" cy="594" rx="0.9" ry="1.7"/>
	<circle class="st39" cx="1463.1" cy="595.6" r="1.1"/>
	<path class="st11" d="M1482.4,801.3l9.1,0.8l-13.6,21.3h50.6l-13.6-21.3l9.1-0.8c0.3,0,0.5-0.3,0.5-0.6c0-0.1,0-0.2-0.1-0.2
		l-12.3-19.2l4.7-0.4c0.3,0,0.5-0.3,0.5-0.6c0-0.1,0-0.2-0.1-0.2l-7.8-12.2l2.6-0.3c0.3,0,0.5-0.3,0.5-0.6c0-0.1,0-0.2-0.1-0.2
		l-9.2-14.9v-0.2l-9.6,15.1c-0.2,0.2-0.1,0.6,0.1,0.7c0.1,0,0.2,0.1,0.2,0.1l2.6,0.3l-7.8,12.2c-0.2,0.2-0.1,0.6,0.2,0.7
		c0.1,0.1,0.2,0.1,0.3,0.1l4.7,0.4l-12.3,19.3c-0.2,0.2-0.1,0.6,0.2,0.7C1482.3,801.3,1482.3,801.3,1482.4,801.3z"/>
	<path class="st11" d="M1698.2,821.6l22.3,1.9h47.2l22.4-1.9c0.4,0,0.8-0.4,0.7-0.9c0-0.1-0.1-0.2-0.1-0.3l-27-42.4l15.5-1.3
		c0.4,0,0.8-0.4,0.7-0.9c0-0.1-0.1-0.2-0.1-0.4l-20.6-32.4l8.1-0.7c0.4,0,0.8-0.4,0.7-0.9c0-0.1-0.1-0.2-0.1-0.3l-13.1-20.6l4.6-0.5
		c0.4-0.1,0.8-0.4,0.7-0.9c0-0.1-0.1-0.2-0.1-0.3l-15.4-25.2v-0.3l-16.2,25.4c-0.2,0.4-0.1,0.9,0.2,1.1c0.1,0.1,0.2,0.1,0.4,0.1
		l4.5,0.5l-13.1,20.5c-0.2,0.4-0.1,0.9,0.3,1.1c0.1,0.1,0.2,0.1,0.4,0.1l8.1,0.7l-20.6,32.4c-0.2,0.4-0.1,0.9,0.2,1.1
		c0.1,0.1,0.2,0.1,0.4,0.1l15.5,1.3l-27,42.4c-0.2,0.4-0.1,0.9,0.3,1.1C1697.9,821.5,1698,821.6,1698.2,821.6z"/>
	<path class="st11" d="M1813.2,796.2l13.6,1.1l-16.6,26.1h68l-16.6-26.1l13.6-1.1c0.4,0,0.8-0.4,0.7-0.9c0-0.1-0.1-0.3-0.1-0.4
		l-18.3-28.6l7-0.6c0.4,0,0.8-0.4,0.7-0.9c0-0.1-0.1-0.2-0.1-0.4l-11.5-18.1l3.9-0.4c0.4,0,0.8-0.4,0.7-0.9c0-0.1-0.1-0.2-0.1-0.3
		l-13.6-22.2v-0.2l-14.3,22.4c-0.2,0.4-0.1,0.9,0.3,1.1c0.1,0.1,0.2,0.1,0.3,0.1l3.8,0.4l-11.5,18.1c-0.2,0.4-0.1,0.9,0.2,1.1
		c0.1,0.1,0.2,0.1,0.4,0.1l7,0.6l-18.2,28.6c-0.2,0.4-0.1,0.9,0.2,1.1C1813,796.2,1813.1,796.2,1813.2,796.2z"/>
</g>
</svg>
