<svg id="lac" xmlns="http://www.w3.org/2000/svg" viewBox="0 0 1920 46.69"><defs><style>.cls-1{fill:#3ca4a8;}</style></defs><title>eau4</title><path id="_1" data-name="1" class="cls-1" d="M1920,1080.5v-29.18a42.64,42.64,0,0,1-18.68,4.1,45.9,45.9,0,0,1-9.61-1c-2.78-.74-5.13-1.46-7.12-2.21a29.73,29.73,0,0,1-9.29-6c-1.84-2.23-3-4.92-4.42-8.44a14.78,14.78,0,0,1-1-4h-.16c-1.08,11-14.73,19.61-31.42,19.61-14.6,0-26.87-6.63-30.44-15.62a14.78,14.78,0,0,1-1-4h-.16c-1.08,11-14.73,19.61-31.42,19.61-14.6,0-26.88-6.63-30.44-15.62a14.78,14.78,0,0,1-1-4h-.16c-1.08,11-14.73,19.61-31.42,19.61-14.6,0-26.88-6.63-30.44-15.62a14.78,14.78,0,0,1-1-4h-.16c-1.08,11-14.73,19.61-31.42,19.61-14.6,0-26.87-6.63-30.44-15.62a14.78,14.78,0,0,1-1-4h-.16c-1.08,11-14.73,19.61-31.42,19.61-14.6,0-26.87-6.63-30.44-15.62a14.78,14.78,0,0,1-1-4h-.16c-1.08,11-14.73,19.61-31.42,19.61-14.6,0-26.87-6.63-30.44-15.62a14.78,14.78,0,0,1-1-4h-.16c-1.08,11-14.73,19.61-31.42,19.61-14.6,0-26.87-6.63-30.44-15.62a14.78,14.78,0,0,1-1-4h-.16c-1.08,11-14.73,19.61-31.42,19.61-14.6,0-33.52-11.6-33.52-19.61,0,7.77-17.17,19.61-29.48,19.61-16.69,0-30.34-8.66-31.42-19.61h-.16c-1.08,11-14.73,19.61-31.42,19.61s-30.34-8.66-31.42-19.61h-.16c-1.08,11-14.73,19.61-31.42,19.61s-30.34-8.66-31.42-19.61h-.16c-1.08,11-14.73,19.61-31.42,19.61s-30.09-8.51-31.38-19.33v2.19c-1.43,10.73-14.92,19.14-31.36,19.14-14.6,0-26.88-6.63-30.45-15.62a14.4,14.4,0,0,1-1-4H1051c-1.08,11-14.74,19.61-31.42,19.61-14.6,0-26.88-6.63-30.45-15.62a14.4,14.4,0,0,1-1-4H988c-1.08,11-14.74,19.61-31.42,19.61-14.6,0-26.88-6.63-30.45-15.62a14.4,14.4,0,0,1-1-4H925c-1.08,11-14.74,19.61-31.42,19.61-14.6,0-26.88-6.63-30.45-15.62a14.4,14.4,0,0,1-1-4H862c-1.08,11-14.74,19.61-31.42,19.61-14.6,0-26.88-6.63-30.45-15.62a14.4,14.4,0,0,1-1-4H799c-1.08,11-14.74,19.61-31.42,19.61-14.6,0-26.88-6.63-30.45-15.62a14.4,14.4,0,0,1-1-4H736c-1.08,11-14.73,19.61-31.42,19.61-14.6,0-26.88-6.63-30.45-15.62a14.4,14.4,0,0,1-1-4H673c-1.08,11-14.73,19.61-31.42,19.61-14.6,0-33.52-11.6-33.52-19.61,0,7.77-17.17,19.61-29.48,19.61-16.69,0-30.34-8.66-31.43-19.61H547c-1.08,11-14.73,19.61-31.42,19.61a45.83,45.83,0,0,1-9.61-1c-2.79-.74-5.13-1.46-7.13-2.21a29.85,29.85,0,0,1-9.29-6c-1.83-2.23-3-4.92-4.42-8.44a14.4,14.4,0,0,1-1-4H484c-1.08,11-14.74,19.61-31.42,19.61-14.6,0-26.88-6.63-30.45-15.62a14.4,14.4,0,0,1-1-4H421c-1.08,11-14.74,19.61-31.42,19.61-14.6,0-26.88-6.63-30.45-15.62a14.4,14.4,0,0,1-1-4H358c-1.08,11-14.74,19.61-31.42,19.61-14.6,0-26.88-6.63-30.45-15.62a14.4,14.4,0,0,1-1-4H295c-1.08,11-14.74,19.61-31.42,19.61-14.6,0-26.88-6.63-30.45-15.62a14.4,14.4,0,0,1-1-4H232c-1.08,11-14.74,19.61-31.42,19.61-14.6,0-26.88-6.63-30.45-15.62a14.4,14.4,0,0,1-1-4H169c-1.08,11-14.74,19.61-31.42,19.61-14.6,0-26.88-6.63-30.45-15.62a14.4,14.4,0,0,1-1-4H106c-1.08,11-14.73,19.61-31.42,19.61-14.6,0-26.88-6.63-30.45-15.62a14.4,14.4,0,0,1-1-4H43c-1.08,11-14.73,19.61-31.42,19.61a38.47,38.47,0,0,1-11.58-2v29.08Z" transform="translate(0 -1033.81)"/></svg>