<svg id="lac" xmlns="http://www.w3.org/2000/svg" viewBox="0 0 1920 95.88"><defs><style>.cls-1{fill:#3a9ea2;}</style></defs><title>eau5</title><path id="_2" data-name="2" class="cls-1" d="M1920,1080v-76.15c-10.29-3.13-17.61-9.83-18.39-17.73h-.16c-1.08,11-14.73,19.61-31.42,19.61a46.48,46.48,0,0,1-9.6-1c-2.79-.74-5.13-1.47-7.13-2.22a29.55,29.55,0,0,1-9.29-6c-1.83-2.22-3-4.91-4.42-8.43a14.4,14.4,0,0,1-1-4h-.16c-1.09,11-14.74,19.61-31.43,19.61-14.6,0-26.87-6.63-30.44-15.62a14.4,14.4,0,0,1-1-4h-.16c-1.09,11-14.74,19.61-31.43,19.61-14.6,0-26.87-6.63-30.44-15.62a14.4,14.4,0,0,1-1-4h-.16c-1.09,11-14.74,19.61-31.43,19.61-14.6,0-26.87-6.63-30.44-15.62a14.4,14.4,0,0,1-1-4h-.16c-1.09,11-14.74,19.61-31.43,19.61-14.6,0-26.87-6.63-30.44-15.62a14.4,14.4,0,0,1-1-4h-.16c-1.09,11-14.74,19.61-31.43,19.61-14.6,0-26.87-6.63-30.44-15.62a14.4,14.4,0,0,1-1-4h-.16c-1.09,11-14.74,19.61-31.43,19.61-14.6,0-26.87-6.63-30.44-15.62a14.4,14.4,0,0,1-1-4h-.17c-1.08,11-14.73,19.61-31.42,19.61-14.6,0-26.87-6.63-30.44-15.62a14.4,14.4,0,0,1-1-4h-.17c-1.08,11-14.73,19.61-31.42,19.61-14.6,0-33.52-11.6-33.52-19.61,0,7.77-17.17,19.61-29.48,19.61-16.69,0-30.34-8.66-31.42-19.61h-.16c-1.08,11-14.73,19.61-31.42,19.61s-30.34-8.66-31.42-19.61h-.16c-1.08,11-14.73,19.61-31.42,19.61s-30.34-8.66-31.42-19.61h-.16c-1.08,11-14.73,19.61-31.42,19.61-16.54,0-30.09-8.51-31.38-19.33v2.19c-1.43,10.72-14.91,19.14-31.36,19.14-14.6,0-26.88-6.63-30.44-15.62a14.78,14.78,0,0,1-1-4h-.16c-1.08,11-14.73,19.61-31.42,19.61-14.6,0-26.88-6.63-30.45-15.62a15.14,15.14,0,0,1-1-4h-.16c-1.08,11-14.73,19.61-31.42,19.61-14.6,0-26.88-6.63-30.45-15.62a15.14,15.14,0,0,1-1-4h-.16c-1.08,11-14.73,19.61-31.42,19.61-14.6,0-26.88-6.63-30.44-15.62a14.78,14.78,0,0,1-1-4h-.16c-1.08,11-14.73,19.61-31.42,19.61-14.6,0-26.88-6.63-30.44-15.62a14.78,14.78,0,0,1-1-4h-.16c-1.08,11-14.73,19.61-31.42,19.61-14.6,0-26.88-6.63-30.44-15.62a14.78,14.78,0,0,1-1-4h-.16c-1.08,11-14.73,19.61-31.42,19.61-14.6,0-26.88-6.63-30.44-15.62a14.78,14.78,0,0,1-1-4h-.16c-1.08,11-14.73,19.61-31.42,19.61-14.6,0-33.52-11.6-33.52-19.61,0,7.77-17.17,19.61-29.48,19.61-16.69,0-30.34-8.66-31.42-19.61h-.16c-1.08,11-14.73,19.61-31.42,19.61a46.57,46.57,0,0,1-9.61-1c-2.78-.74-5.13-1.47-7.12-2.22a29.72,29.72,0,0,1-9.3-6c-1.83-2.22-3-4.91-4.41-8.43a14.78,14.78,0,0,1-1-4h-.16c-1.08,11-14.73,19.61-31.42,19.61-14.6,0-26.88-6.63-30.44-15.62a14.78,14.78,0,0,1-1-4h-.16c-1.08,11-14.73,19.61-31.42,19.61-14.6,0-26.88-6.63-30.45-15.62a15.14,15.14,0,0,1-1-4h-.16c-1.08,11-14.73,19.61-31.42,19.61-14.6,0-26.88-6.63-30.45-15.62a15.14,15.14,0,0,1-1-4h-.16c-1.08,11-14.73,19.61-31.42,19.61-14.6,0-26.88-6.63-30.44-15.62a14.78,14.78,0,0,1-1-4h-.16c-1.08,11-14.73,19.61-31.42,19.61-14.6,0-26.88-6.63-30.44-15.62a14.78,14.78,0,0,1-1-4h-.16c-1.08,11-14.73,19.61-31.42,19.61-14.6,0-26.88-6.63-30.44-15.62a14.78,14.78,0,0,1-1-4h-.16c-1.08,11-14.73,19.61-31.42,19.61-14.6,0-26.88-6.63-30.44-15.62a14.78,14.78,0,0,1-1-4h-.16c-.6,6-5,11.4-11.71,15V1080Z" transform="translate(0 -984.12)"/></svg>