<svg id="lac" xmlns="http://www.w3.org/2000/svg" viewBox="0 0 1920 141.93"><defs><style>.cls-1{fill:#37979b;}</style></defs><title>eau6</title><path id="_3" data-name="3" class="cls-1" d="M1920,1080V955a42,42,0,0,1-19.83,4.7c-14.6,0-26.88-6.63-30.45-15.62a14.85,14.85,0,0,1-1-4h0v0h-.15c-1.08,11-14.73,19.62-31.42,19.62-14.6,0-33.52-11.6-33.52-19.62,0,7.78-17.17,19.62-29.48,19.62-16.69,0-30.34-8.66-31.43-19.62h-.15c-1.08,11-14.73,19.62-31.42,19.62a45.89,45.89,0,0,1-9.61-1,73.92,73.92,0,0,1-7.13-2.21,29.67,29.67,0,0,1-9.29-6c-1.83-2.22-3-4.92-4.42-8.43a15.24,15.24,0,0,1-1-4h0v0h-.15c-1.08,11-14.73,19.62-31.42,19.62-14.6,0-26.88-6.63-30.45-15.62a15.24,15.24,0,0,1-1-4h0v0h-.15c-1.08,11-14.73,19.62-31.42,19.62-14.6,0-26.88-6.63-30.45-15.62a15.34,15.34,0,0,1-1-4h0v0h-.15c-1.08,11-14.73,19.62-31.42,19.62-14.6,0-26.88-6.63-30.45-15.62a15.34,15.34,0,0,1-1-4h0v0h-.15c-1.08,11-14.73,19.62-31.42,19.62-14.6,0-26.88-6.63-30.45-15.62a15.24,15.24,0,0,1-1-4h0v0h-.15c-1.08,11-14.73,19.62-31.42,19.62-14.6,0-26.88-6.63-30.45-15.62a15.24,15.24,0,0,1-1-4h0v0h-.15c-1.08,11-14.73,19.62-31.42,19.62-14.6,0-26.88-6.63-30.45-15.62a15.24,15.24,0,0,1-1-4h0v0h-.15c-1.08,11-14.73,19.62-31.42,19.62-14.6,0-26.88-6.63-30.45-15.62a15.24,15.24,0,0,1-1-4h0v0h-.15c-1.08,11-14.73,19.62-31.42,19.62-14.6,0-33.52-11.6-33.52-19.62,0,7.78-17.17,19.62-29.48,19.62-16.69,0-30.34-8.66-31.43-19.62h-.15c-1.08,11-14.73,19.62-31.42,19.62s-30.34-8.66-31.43-19.62h-.15c-1.08,11-14.73,19.62-31.42,19.62s-30.34-8.66-31.43-19.62h-.15c-1.08,11-14.73,19.62-31.42,19.62s-30.1-8.52-31.39-19.33v2.18c-1.42,10.73-14.91,19.15-31.36,19.15-14.6,0-26.87-6.63-30.44-15.62a14.48,14.48,0,0,1-1-4h0v0h-.15c-1.09,11-14.74,19.62-31.43,19.62-14.6,0-26.87-6.63-30.44-15.62a14.57,14.57,0,0,1-1-4h0v0h-.15c-1.09,11-14.74,19.62-31.43,19.62-14.6,0-26.87-6.63-30.44-15.62a14.57,14.57,0,0,1-1-4h0v0h-.15c-1.09,11-14.74,19.62-31.43,19.62-14.6,0-26.87-6.63-30.44-15.62a14.48,14.48,0,0,1-1-4h0v0h-.15c-1.09,11-14.74,19.62-31.43,19.62-14.6,0-26.87-6.63-30.44-15.62a14.48,14.48,0,0,1-1-4h0v0h-.15c-1.09,11-14.74,19.62-31.43,19.62-14.6,0-26.87-6.63-30.44-15.62a14.48,14.48,0,0,1-1-4h0v0h-.15c-1.09,11-14.74,19.62-31.43,19.62-14.6,0-26.87-6.63-30.44-15.62a14.48,14.48,0,0,1-1-4h0v0h-.15c-1.09,11-14.74,19.62-31.43,19.62-14.6,0-33.52-11.6-33.52-19.62,0,7.78-17.16,19.62-29.48,19.62-16.69,0-30.34-8.66-31.42-19.62h-.15c-1.09,11-14.74,19.62-31.43,19.62a45.79,45.79,0,0,1-9.6-1,73,73,0,0,1-7.13-2.21,29.67,29.67,0,0,1-9.29-6c-1.83-2.22-3-4.92-4.42-8.43a14.48,14.48,0,0,1-1-4h0v0h-.15c-1.09,11-14.74,19.62-31.43,19.62-14.6,0-26.87-6.63-30.44-15.62a14.48,14.48,0,0,1-1-4h0v0h-.15c-1.09,11-14.74,19.62-31.43,19.62-14.6,0-26.87-6.63-30.44-15.62a14.57,14.57,0,0,1-1-4h0v0h-.15c-1.09,11-14.74,19.62-31.43,19.62-14.6,0-26.87-6.63-30.44-15.62a14.57,14.57,0,0,1-1-4h0v0h-.15c-1.09,11-14.74,19.62-31.43,19.62-14.6,0-26.87-6.63-30.44-15.62a14.48,14.48,0,0,1-1-4h0v0h-.15c-1.09,11-14.74,19.62-31.43,19.62A46,46,0,0,1,0,956.51V1080Z" transform="translate(0 -938.07)"/></svg>