<svg xmlns="http://www.w3.org/2000/svg" viewBox="0 0 290.17 458.36"><defs><style>.cls-1{isolation:isolate;}.cls-2,.cls-3{fill:#c51a25;}.cls-3{stroke:#911930;stroke-miterlimit:10;}.cls-4{fill:#452416;}.cls-5{fill:#eff4da;}.cls-6{fill:#ee633f;}.cls-7{mix-blend-mode:hard-light;}</style></defs><title>montgolfiere</title><g class="cls-1"><g id="Montgolfière"><g id="Montgolfière-2" data-name="Montgolfière"><path class="cls-2" d="M290.17,141c0,77.84-129.78,196.55-145.08,196.55C129.25,337.5,0,218.79,0,141S65,0,145.09,0,290.17,63.1,290.17,141Z" transform="translate(0 0.5)"/><path class="cls-3" d="M260.76,141c0,77.84-103.47,196.55-115.67,196.55C132.46,337.5,29.42,218.79,29.42,141S81.21,0,145.09,0,260.76,63.1,260.76,141Z" transform="translate(0 0.5)"/><path class="cls-3" d="M217.73,140.94c0,77.85-65,196.56-72.64,196.56-7.93,0-72.64-118.71-72.64-196.56S105,0,145.09,0,217.73,63.1,217.73,140.94Z" transform="translate(0 0.5)"/><path class="cls-3" d="M173.6,140.94c0,77.85-25.5,196.56-28.51,196.56s-28.52-118.71-28.52-196.56S129.34,0,145.09,0,173.6,63.11,173.6,140.94Z" transform="translate(0 0.5)"/><polygon class="cls-2" points="173.6 341.53 116.33 341.53 95.95 300.01 193.1 300.01 173.6 341.53"/><path class="cls-4" d="M168.22,387.39l-.07-.42-5.55-33.09H129l-9.18,32.83-.18.68H104.09v40.68a30,30,0,0,0,30.25,29.79h20.37A30,30,0,0,0,185,428.07V387.39Zm-43.2,0L133,359h25.23l4.76,28.4Z" transform="translate(0 0.5)"/><rect class="cls-4" x="152.82" y="341.53" width="2.6" height="12.85"/><rect class="cls-4" x="135.95" y="341.53" width="2.6" height="12.85"/><rect class="cls-5" x="104.09" y="400.83" width="80.86" height="4.78"/><path class="cls-6" d="M149.93,408.66a5.72,5.72,0,0,1-5.76,5.67h0a5.72,5.72,0,0,1-5.76-5.67v-9.52a5.72,5.72,0,0,1,5.76-5.67h0a5.72,5.72,0,0,1,5.76,5.67Z" transform="translate(0 0.5)"/><path class="cls-6" d="M174.59,408.66a5.72,5.72,0,0,1-5.76,5.67h0a5.72,5.72,0,0,1-5.76-5.67v-9.52a5.72,5.72,0,0,1,5.76-5.67h0a5.72,5.72,0,0,1,5.76,5.67Z" transform="translate(0 0.5)"/><path class="cls-6" d="M126.57,408.66a5.72,5.72,0,0,1-5.76,5.67h0a5.72,5.72,0,0,1-5.76-5.67v-9.52a5.72,5.72,0,0,1,5.76-5.67h0a5.72,5.72,0,0,1,5.76,5.67Z" transform="translate(0 0.5)"/></g><g class="cls-7"><path class="cls-5" d="M197.05,162.49c-8.84-4.5-17.57-9.3-26.17-14.24,8.6-4.94,17.33-9.75,26.17-14.24a9,9,0,0,0,5.13-8.7,12.62,12.62,0,0,0-6.18-9.5c-14.22-9-28.3-18.16-42.44-27.26a9.43,9.43,0,0,0-10.37,0C129,97.64,115,106.84,100.74,115.81a12.61,12.61,0,0,0-6.17,9.5c-.74,15.38-.74,30.5,0,45.87a12.64,12.64,0,0,0,6.17,9.51c14.23,9,28.3,18.17,42.45,27.25a9.4,9.4,0,0,0,10.37,0c14.14-9.09,28.22-18.28,42.44-27.25a12.65,12.65,0,0,0,6.18-9.51A9,9,0,0,0,197.05,162.49Zm-13.2-40.21a6.14,6.14,0,0,1,3.21-4.16,6.66,6.66,0,0,1,3.6-.69,9,9,0,0,1,6.61,4,7,7,0,0,1,1.06,5.35,6.06,6.06,0,0,1-3.26,4.06,7.4,7.4,0,0,1-3.68.78,8.2,8.2,0,0,1-6.58-3.86A7.36,7.36,0,0,1,183.85,122.28ZM148.37,90.74c3.84,0,7,3.45,7.09,7.58a7.1,7.1,0,1,1-14.18,0C141.35,94.19,144.54,90.74,148.37,90.74ZM112.9,174.22a6.16,6.16,0,0,1-3.21,4.16,6.76,6.76,0,0,1-3.6.68,8.94,8.94,0,0,1-6.61-4,6.91,6.91,0,0,1-1.06-5.35,6.08,6.08,0,0,1,3.26-4.06,7.49,7.49,0,0,1,3.67-.78,8.22,8.22,0,0,1,6.59,3.87A7.39,7.39,0,0,1,112.9,174.22Zm-1-46.42a8.23,8.23,0,0,1-6.59,3.86,7.38,7.38,0,0,1-3.67-.78,6.06,6.06,0,0,1-3.26-4.06,6.92,6.92,0,0,1,1.06-5.35,8.94,8.94,0,0,1,6.61-4,6.66,6.66,0,0,1,3.6.69,6.14,6.14,0,0,1,3.21,4.16A7.41,7.41,0,0,1,111.94,127.8Zm36.43,78c-3.83,0-7-3.45-7.09-7.58a7.1,7.1,0,1,1,14.18,0C155.4,202.3,152.21,205.75,148.37,205.75Zm-5.61-67.24a11.22,11.22,0,0,0,0,19.47c8.67,5.06,17.36,10.09,26.12,15-8.31,5-12.44,7.5-20.51,12.3-10.6-6.33-21.17-12.74-31.8-19q-.48-18,0-35.95c10.63-6.28,21.2-12.69,31.8-19,8.07,4.8,12.2,7.32,20.51,12.31C160.12,128.43,151.43,133.46,142.76,138.51Zm13.12,9.74a7.51,7.51,0,1,1-7.51-7.51A7.52,7.52,0,0,1,155.88,148.25ZM197.27,175a9,9,0,0,1-6.61,4,6.75,6.75,0,0,1-3.6-.68,6.16,6.16,0,0,1-3.21-4.16,7.34,7.34,0,0,1,1-5.52,8.2,8.2,0,0,1,6.58-3.87,7.51,7.51,0,0,1,3.68.78,6.08,6.08,0,0,1,3.26,4.06A7,7,0,0,1,197.27,175Z" transform="translate(0 0.5)"/></g></g></g></svg>